<ttFont>
    <TTGlyph name="A" xMin="-20" yMin="0" xMax="621" yMax="607">
      <contour>
        <pt x="410" y="27" on="1"/>
        <pt x="436" y="27" on="0"/>
        <pt x="436" y="54" on="1"/>
        <pt x="436" y="71" on="0"/>
        <pt x="425" y="90" on="1"/>
        <pt x="376" y="208" on="1"/>
        <pt x="144" y="208" on="1"/>
        <pt x="97" y="96" on="1"/>
        <pt x="76" y="42" on="0"/>
        <pt x="88" y="30" on="1"/>
        <pt x="93" y="25" on="0"/>
        <pt x="105" y="26" on="1"/>
        <pt x="153" y="29" on="1"/>
        <pt x="153" y="0" on="1"/>
        <pt x="-20" y="0" on="1"/>
        <pt x="-20" y="29" on="1"/>
        <pt x="6" y="27" on="1"/>
        <pt x="10" y="27" on="1"/>
        <pt x="30" y="27" on="0"/>
        <pt x="58" y="68" on="0"/>
        <pt x="73" y="104" on="1"/>
        <pt x="282" y="607" on="1"/>
        <pt x="308" y="607" on="1"/>
        <pt x="519" y="102" on="1"/>
        <pt x="533" y="66" on="0"/>
        <pt x="562" y="27" on="0"/>
        <pt x="583" y="27" on="1"/>
        <pt x="588" y="27" on="1"/>
        <pt x="621" y="29" on="1"/>
        <pt x="621" y="0" on="1"/>
        <pt x="356" y="0" on="1"/>
        <pt x="356" y="29" on="1"/>
        <pt x="405" y="27" on="1"/>
        <pt x="407" y="27" on="0"/>
      </contour>
      <contour>
        <pt x="259" y="488" on="1"/>
        <pt x="154" y="236" on="1"/>
        <pt x="366" y="236" on="1"/>
      </contour>
    </TTGlyph>
    <TTGlyph name="AE" xMin="5" yMin="-3" xMax="828" yMax="599">
      <contour>
        <pt x="180" y="0" on="1"/>
        <pt x="5" y="0" on="1"/>
        <pt x="5" y="30" on="1"/>
        <pt x="36" y="27" on="1"/>
        <pt x="49" y="25" on="0"/>
        <pt x="74" y="51" on="0"/>
        <pt x="96" y="86" on="1"/>
        <pt x="375" y="543" on="1"/>
        <pt x="380" y="552" on="0"/>
        <pt x="369" y="567" on="0"/>
        <pt x="360" y="567" on="1"/>
        <pt x="309" y="565" on="1"/>
        <pt x="309" y="597" on="1"/>
        <pt x="774" y="597" on="1"/>
        <pt x="794" y="597" on="0"/>
        <pt x="808" y="599" on="1"/>
        <pt x="808" y="443" on="1"/>
        <pt x="782" y="443" on="1"/>
        <pt x="782" y="508" on="0"/>
        <pt x="713" y="569" on="0"/>
        <pt x="640" y="569" on="1"/>
        <pt x="476" y="569" on="1"/>
        <pt x="521" y="324" on="1"/>
        <pt x="604" y="324" on="1"/>
        <pt x="637" y="324" on="0"/>
        <pt x="680" y="381" on="0"/>
        <pt x="680" y="426" on="1"/>
        <pt x="706" y="426" on="1"/>
        <pt x="706" y="195" on="1"/>
        <pt x="680" y="195" on="1"/>
        <pt x="680" y="240" on="0"/>
        <pt x="637" y="297" on="0"/>
        <pt x="604" y="297" on="1"/>
        <pt x="525" y="297" on="1"/>
        <pt x="573" y="46" on="1"/>
        <pt x="578" y="27" on="0"/>
        <pt x="594" y="27" on="1"/>
        <pt x="660" y="27" on="1"/>
        <pt x="801" y="27" on="0"/>
        <pt x="801" y="171" on="1"/>
        <pt x="828" y="171" on="1"/>
        <pt x="828" y="-3" on="1"/>
        <pt x="792" y="0" on="0"/>
        <pt x="740" y="0" on="1"/>
        <pt x="395" y="0" on="1"/>
        <pt x="395" y="30" on="1"/>
        <pt x="452" y="27" on="1"/>
        <pt x="464" y="26" on="0"/>
        <pt x="476" y="42" on="0"/>
        <pt x="474" y="52" on="1"/>
        <pt x="445" y="208" on="1"/>
        <pt x="199" y="208" on="1"/>
        <pt x="123" y="80" on="1"/>
        <pt x="92" y="24" on="0"/>
        <pt x="129" y="27" on="1"/>
        <pt x="180" y="30" on="1"/>
      </contour>
      <contour>
        <pt x="387" y="515" on="1"/>
        <pt x="215" y="236" on="1"/>
        <pt x="439" y="236" on="1"/>
      </contour>
    </TTGlyph>
    <TTGlyph name="Aacute" xMin="-20" yMin="0" xMax="621" yMax="839">
      <contour>
        <pt x="410" y="27" on="1"/>
        <pt x="436" y="27" on="0"/>
        <pt x="436" y="54" on="1"/>
        <pt x="436" y="71" on="0"/>
        <pt x="425" y="90" on="1"/>
        <pt x="376" y="208" on="1"/>
        <pt x="144" y="208" on="1"/>
        <pt x="97" y="96" on="1"/>
        <pt x="76" y="42" on="0"/>
        <pt x="88" y="30" on="1"/>
        <pt x="93" y="25" on="0"/>
        <pt x="105" y="26" on="1"/>
        <pt x="153" y="29" on="1"/>
        <pt x="153" y="0" on="1"/>
        <pt x="-20" y="0" on="1"/>
        <pt x="-20" y="29" on="1"/>
        <pt x="6" y="27" on="1"/>
        <pt x="10" y="27" on="1"/>
        <pt x="30" y="27" on="0"/>
        <pt x="58" y="68" on="0"/>
        <pt x="73" y="104" on="1"/>
        <pt x="282" y="607" on="1"/>
        <pt x="308" y="607" on="1"/>
        <pt x="519" y="102" on="1"/>
        <pt x="533" y="66" on="0"/>
        <pt x="562" y="27" on="0"/>
        <pt x="583" y="27" on="1"/>
        <pt x="588" y="27" on="1"/>
        <pt x="621" y="29" on="1"/>
        <pt x="621" y="0" on="1"/>
        <pt x="356" y="0" on="1"/>
        <pt x="356" y="29" on="1"/>
        <pt x="405" y="27" on="1"/>
        <pt x="407" y="27" on="0"/>
      </contour>
      <contour>
        <pt x="259" y="488" on="1"/>
        <pt x="154" y="236" on="1"/>
        <pt x="366" y="236" on="1"/>
      </contour>
      <contour>
        <pt x="198" y="688" on="1"/>
        <pt x="198" y="692" on="0"/>
        <pt x="203" y="697" on="1"/>
        <pt x="309" y="814" on="1"/>
        <pt x="328" y="836" on="0"/>
        <pt x="339" y="840" on="0"/>
        <pt x="354" y="838" on="0"/>
        <pt x="390" y="830" on="0"/>
        <pt x="403" y="824" on="0"/>
        <pt x="403" y="808" on="0"/>
        <pt x="397" y="804" on="1"/>
        <pt x="221" y="683" on="1"/>
        <pt x="218" y="680" on="0"/>
        <pt x="198" y="680" on="0"/>
      </contour>
    </TTGlyph>
    <TTGlyph name="Acircumflex" xMin="-20" yMin="0" xMax="621" yMax="811">
      <component glyphName="A" x="0" y="0" flags="0x1004"/>
      <component glyphName="circumflex" x="95" y="177" flags="0x1004"/>
    </TTGlyph>
    <TTGlyph name="Adieresis" xMin="-20" yMin="0" xMax="621" yMax="794">
      <component glyphName="A" x="0" y="0" flags="0x1004"/>
      <component glyphName="dieresis" x="72" y="177" flags="0x1004"/>
    </TTGlyph>
    <TTGlyph name="Agrave" xMin="-20" yMin="0" xMax="621" yMax="830">
      <component glyphName="A" x="0" y="0" flags="0x1004"/>
      <component glyphName="grave" x="14" y="177" flags="0x1004"/>
    </TTGlyph>
    <TTGlyph name="Aring" xMin="-20" yMin="0" xMax="621" yMax="819">
      <contour>
        <pt x="410" y="27" on="1"/>
        <pt x="436" y="27" on="0"/>
        <pt x="436" y="54" on="1"/>
        <pt x="436" y="71" on="0"/>
        <pt x="425" y="90" on="1"/>
        <pt x="376" y="208" on="1"/>
        <pt x="144" y="208" on="1"/>
        <pt x="97" y="96" on="1"/>
        <pt x="76" y="42" on="0"/>
        <pt x="88" y="30" on="1"/>
        <pt x="93" y="25" on="0"/>
        <pt x="105" y="26" on="1"/>
        <pt x="153" y="29" on="1"/>
        <pt x="153" y="0" on="1"/>
        <pt x="-20" y="0" on="1"/>
        <pt x="-20" y="29" on="1"/>
        <pt x="6" y="27" on="1"/>
        <pt x="8" y="27" on="0"/>
        <pt x="10" y="27" on="1"/>
        <pt x="27" y="27" on="0"/>
        <pt x="56" y="63" on="0"/>
        <pt x="73" y="104" on="1"/>
        <pt x="282" y="607" on="1"/>
        <pt x="308" y="607" on="1"/>
        <pt x="519" y="102" on="1"/>
        <pt x="536" y="59" on="0"/>
        <pt x="563" y="27" on="0"/>
        <pt x="583" y="27" on="1"/>
        <pt x="585" y="27" on="0"/>
        <pt x="588" y="27" on="1"/>
        <pt x="621" y="29" on="1"/>
        <pt x="621" y="0" on="1"/>
        <pt x="356" y="0" on="1"/>
        <pt x="356" y="29" on="1"/>
        <pt x="405" y="27" on="1"/>
        <pt x="407" y="27" on="0"/>
      </contour>
      <contour>
        <pt x="259" y="488" on="1"/>
        <pt x="154" y="236" on="1"/>
        <pt x="366" y="236" on="1"/>
      </contour>
      <contour>
        <pt x="265" y="656" on="0"/>
        <pt x="217" y="703" on="0"/>
        <pt x="217" y="772" on="0"/>
        <pt x="266" y="819" on="0"/>
        <pt x="336" y="819" on="0"/>
        <pt x="384" y="773" on="0"/>
        <pt x="384" y="703" on="0"/>
        <pt x="335" y="656" on="0"/>
      </contour>
      <contour>
        <pt x="259" y="756" on="0"/>
        <pt x="259" y="720" on="0"/>
        <pt x="283" y="692" on="0"/>
        <pt x="317" y="692" on="0"/>
        <pt x="342" y="720" on="0"/>
        <pt x="342" y="756" on="0"/>
        <pt x="317" y="783" on="0"/>
        <pt x="283" y="783" on="0"/>
      </contour>
    </TTGlyph>
    <TTGlyph name="Atilde" xMin="-20" yMin="0" xMax="621" yMax="793">
      <contour>
        <pt x="410" y="27" on="1"/>
        <pt x="436" y="27" on="0"/>
        <pt x="436" y="54" on="1"/>
        <pt x="436" y="71" on="0"/>
        <pt x="425" y="90" on="1"/>
        <pt x="376" y="208" on="1"/>
        <pt x="144" y="208" on="1"/>
        <pt x="97" y="96" on="1"/>
        <pt x="76" y="42" on="0"/>
        <pt x="88" y="30" on="1"/>
        <pt x="93" y="25" on="0"/>
        <pt x="105" y="26" on="1"/>
        <pt x="153" y="29" on="1"/>
        <pt x="153" y="0" on="1"/>
        <pt x="-20" y="0" on="1"/>
        <pt x="-20" y="29" on="1"/>
        <pt x="6" y="27" on="1"/>
        <pt x="10" y="27" on="1"/>
        <pt x="30" y="27" on="0"/>
        <pt x="58" y="68" on="0"/>
        <pt x="73" y="104" on="1"/>
        <pt x="282" y="607" on="1"/>
        <pt x="308" y="607" on="1"/>
        <pt x="519" y="102" on="1"/>
        <pt x="533" y="66" on="0"/>
        <pt x="562" y="27" on="0"/>
        <pt x="583" y="27" on="1"/>
        <pt x="588" y="27" on="1"/>
        <pt x="621" y="29" on="1"/>
        <pt x="621" y="0" on="1"/>
        <pt x="356" y="0" on="1"/>
        <pt x="356" y="29" on="1"/>
        <pt x="405" y="27" on="1"/>
        <pt x="407" y="27" on="0"/>
      </contour>
      <contour>
        <pt x="259" y="488" on="1"/>
        <pt x="154" y="236" on="1"/>
        <pt x="366" y="236" on="1"/>
      </contour>
      <contour>
        <pt x="177" y="702" on="1"/>
        <pt x="157" y="702" on="1"/>
        <pt x="157" y="739" on="0"/>
        <pt x="194" y="793" on="0"/>
        <pt x="243" y="793" on="0"/>
        <pt x="371" y="750" on="0"/>
        <pt x="404" y="750" on="0"/>
        <pt x="423" y="774" on="0"/>
        <pt x="423" y="792" on="1"/>
        <pt x="443" y="792" on="1"/>
        <pt x="443" y="755" on="0"/>
        <pt x="406" y="701" on="0"/>
        <pt x="356" y="701" on="0"/>
        <pt x="229" y="744" on="0"/>
        <pt x="196" y="744" on="0"/>
        <pt x="177" y="720" on="0"/>
      </contour>
    </TTGlyph>
    <TTGlyph name="B" xMin="50" yMin="0" xMax="533" yMax="597">
      <contour>
        <pt x="312" y="0" on="1"/>
        <pt x="50" y="0" on="1"/>
        <pt x="50" y="29" on="1"/>
        <pt x="100" y="27" on="1"/>
        <pt x="118" y="27" on="0"/>
        <pt x="118" y="49" on="1"/>
        <pt x="118" y="549" on="1"/>
        <pt x="118" y="556" on="0"/>
        <pt x="109" y="569" on="0"/>
        <pt x="101" y="569" on="1"/>
        <pt x="50" y="567" on="1"/>
        <pt x="50" y="597" on="1"/>
        <pt x="327" y="597" on="1"/>
        <pt x="500" y="597" on="0"/>
        <pt x="500" y="454" on="1"/>
        <pt x="500" y="401" on="0"/>
        <pt x="425" y="328" on="0"/>
        <pt x="362" y="317" on="1"/>
        <pt x="434" y="317" on="0"/>
        <pt x="533" y="228" on="0"/>
        <pt x="533" y="162" on="1"/>
        <pt x="533" y="0" on="0"/>
      </contour>
      <contour>
        <pt x="211" y="299" on="1"/>
        <pt x="211" y="41" on="1"/>
        <pt x="211" y="28" on="0"/>
        <pt x="225" y="28" on="1"/>
        <pt x="295" y="28" on="1"/>
        <pt x="359" y="28" on="0"/>
        <pt x="436" y="100" on="0"/>
        <pt x="436" y="162" on="1"/>
        <pt x="436" y="299" on="0"/>
        <pt x="314" y="299" on="1"/>
      </contour>
      <contour>
        <pt x="211" y="557" on="1"/>
        <pt x="211" y="327" on="1"/>
        <pt x="287" y="327" on="1"/>
        <pt x="405" y="327" on="0"/>
        <pt x="405" y="453" on="1"/>
        <pt x="405" y="507" on="0"/>
        <pt x="340" y="569" on="0"/>
        <pt x="281" y="569" on="1"/>
        <pt x="223" y="569" on="1"/>
        <pt x="212" y="569" on="0"/>
      </contour>
    </TTGlyph>
    <TTGlyph name="C" xMin="45" yMin="-10" xMax="562" yMax="607">
      <contour>
        <pt x="203" y="-10" on="0"/>
        <pt x="45" y="153" on="0"/>
        <pt x="45" y="442" on="0"/>
        <pt x="204" y="607" on="0"/>
        <pt x="345" y="607" on="1"/>
        <pt x="388" y="607" on="0"/>
        <pt x="439" y="596" on="0"/>
        <pt x="506" y="570" on="1"/>
        <pt x="524" y="564" on="0"/>
        <pt x="553" y="564" on="1"/>
        <pt x="549" y="527" on="0"/>
        <pt x="550" y="478" on="0"/>
        <pt x="550" y="468" on="1"/>
        <pt x="550" y="454" on="1"/>
        <pt x="550" y="436" on="0"/>
        <pt x="553" y="433" on="1"/>
        <pt x="529" y="433" on="1"/>
        <pt x="515" y="495" on="0"/>
        <pt x="407" y="582" on="0"/>
        <pt x="340" y="582" on="1"/>
        <pt x="251" y="582" on="0"/>
        <pt x="147" y="425" on="0"/>
        <pt x="147" y="171" on="0"/>
        <pt x="256" y="17" on="0"/>
        <pt x="345" y="17" on="1"/>
        <pt x="414" y="17" on="0"/>
        <pt x="520" y="102" on="0"/>
        <pt x="534" y="167" on="1"/>
        <pt x="562" y="167" on="1"/>
        <pt x="560" y="146" on="1"/>
        <pt x="558" y="122" on="1"/>
        <pt x="556" y="90" on="0"/>
        <pt x="556" y="53" on="0"/>
        <pt x="559" y="35" on="1"/>
        <pt x="553" y="35" on="1"/>
        <pt x="529" y="35" on="0"/>
        <pt x="484" y="20" on="1"/>
        <pt x="447" y="8" on="1"/>
        <pt x="410" y="-2" on="1"/>
        <pt x="367" y="-10" on="0"/>
        <pt x="340" y="-10" on="1"/>
      </contour>
    </TTGlyph>
    <TTGlyph name="Ccedilla" xMin="45" yMin="-214" xMax="562" yMax="607">
      <component glyphName="C" x="0" y="0" flags="0x1004"/>
      <component glyphName="cedilla" x="120" y="0" flags="0x1004"/>
    </TTGlyph>
    <TTGlyph name="D" xMin="50" yMin="0" xMax="588" yMax="597">
      <contour>
        <pt x="287" y="0" on="1"/>
        <pt x="50" y="0" on="1"/>
        <pt x="50" y="29" on="1"/>
        <pt x="93" y="27" on="1"/>
        <pt x="108" y="27" on="0"/>
        <pt x="108" y="49" on="1"/>
        <pt x="108" y="548" on="1"/>
        <pt x="108" y="569" on="0"/>
        <pt x="89" y="569" on="1"/>
        <pt x="50" y="567" on="1"/>
        <pt x="50" y="597" on="1"/>
        <pt x="275" y="597" on="1"/>
        <pt x="435" y="597" on="0"/>
        <pt x="588" y="458" on="0"/>
        <pt x="588" y="299" on="1"/>
        <pt x="588" y="0" on="0"/>
      </contour>
      <contour>
        <pt x="201" y="556" on="1"/>
        <pt x="201" y="41" on="1"/>
        <pt x="201" y="28" on="0"/>
        <pt x="213" y="28" on="1"/>
        <pt x="258" y="28" on="1"/>
        <pt x="382" y="28" on="0"/>
        <pt x="486" y="151" on="0"/>
        <pt x="486" y="445" on="0"/>
        <pt x="382" y="569" on="0"/>
        <pt x="258" y="569" on="1"/>
        <pt x="213" y="569" on="1"/>
        <pt x="201" y="569" on="0"/>
      </contour>
    </TTGlyph>
    <TTGlyph name="E" xMin="50" yMin="-3" xMax="519" yMax="598">
      <contour>
        <pt x="431" y="0" on="1"/>
        <pt x="50" y="0" on="1"/>
        <pt x="50" y="30" on="1"/>
        <pt x="90" y="27" on="1"/>
        <pt x="108" y="27" on="0"/>
        <pt x="108" y="49" on="1"/>
        <pt x="108" y="548" on="1"/>
        <pt x="108" y="557" on="0"/>
        <pt x="97" y="570" on="0"/>
        <pt x="88" y="569" on="1"/>
        <pt x="50" y="567" on="1"/>
        <pt x="50" y="597" on="1"/>
        <pt x="472" y="597" on="1"/>
        <pt x="486" y="597" on="0"/>
        <pt x="489" y="598" on="1"/>
        <pt x="489" y="443" on="1"/>
        <pt x="462" y="443" on="1"/>
        <pt x="462" y="510" on="0"/>
        <pt x="395" y="569" on="0"/>
        <pt x="320" y="569" on="1"/>
        <pt x="213" y="569" on="1"/>
        <pt x="201" y="569" on="0"/>
        <pt x="201" y="555" on="1"/>
        <pt x="201" y="325" on="1"/>
        <pt x="295" y="325" on="1"/>
        <pt x="329" y="325" on="0"/>
        <pt x="371" y="379" on="0"/>
        <pt x="371" y="426" on="1"/>
        <pt x="398" y="426" on="1"/>
        <pt x="398" y="195" on="1"/>
        <pt x="371" y="195" on="1"/>
        <pt x="371" y="239" on="0"/>
        <pt x="326" y="297" on="0"/>
        <pt x="295" y="297" on="1"/>
        <pt x="201" y="297" on="1"/>
        <pt x="201" y="41" on="1"/>
        <pt x="201" y="28" on="0"/>
        <pt x="213" y="28" on="1"/>
        <pt x="353" y="28" on="1"/>
        <pt x="421" y="28" on="0"/>
        <pt x="492" y="106" on="0"/>
        <pt x="492" y="179" on="1"/>
        <pt x="519" y="179" on="1"/>
        <pt x="519" y="-3" on="1"/>
        <pt x="496" y="0" on="0"/>
      </contour>
    </TTGlyph>
    <TTGlyph name="Eacute" xMin="50" yMin="-3" xMax="519" yMax="839">
      <contour>
        <pt x="431" y="0" on="1"/>
        <pt x="50" y="0" on="1"/>
        <pt x="50" y="30" on="1"/>
        <pt x="90" y="27" on="1"/>
        <pt x="108" y="27" on="0"/>
        <pt x="108" y="49" on="1"/>
        <pt x="108" y="548" on="1"/>
        <pt x="108" y="557" on="0"/>
        <pt x="97" y="570" on="0"/>
        <pt x="88" y="569" on="1"/>
        <pt x="50" y="567" on="1"/>
        <pt x="50" y="597" on="1"/>
        <pt x="472" y="597" on="1"/>
        <pt x="486" y="597" on="0"/>
        <pt x="489" y="598" on="1"/>
        <pt x="489" y="443" on="1"/>
        <pt x="462" y="443" on="1"/>
        <pt x="462" y="510" on="0"/>
        <pt x="395" y="569" on="0"/>
        <pt x="320" y="569" on="1"/>
        <pt x="213" y="569" on="1"/>
        <pt x="201" y="569" on="0"/>
        <pt x="201" y="555" on="1"/>
        <pt x="201" y="325" on="1"/>
        <pt x="295" y="325" on="1"/>
        <pt x="329" y="325" on="0"/>
        <pt x="371" y="379" on="0"/>
        <pt x="371" y="426" on="1"/>
        <pt x="398" y="426" on="1"/>
        <pt x="398" y="195" on="1"/>
        <pt x="371" y="195" on="1"/>
        <pt x="371" y="239" on="0"/>
        <pt x="326" y="297" on="0"/>
        <pt x="295" y="297" on="1"/>
        <pt x="201" y="297" on="1"/>
        <pt x="201" y="41" on="1"/>
        <pt x="201" y="28" on="0"/>
        <pt x="213" y="28" on="1"/>
        <pt x="353" y="28" on="1"/>
        <pt x="421" y="28" on="0"/>
        <pt x="492" y="106" on="0"/>
        <pt x="492" y="179" on="1"/>
        <pt x="519" y="179" on="1"/>
        <pt x="519" y="-3" on="1"/>
        <pt x="496" y="0" on="0"/>
      </contour>
      <contour>
        <pt x="219" y="688" on="1"/>
        <pt x="219" y="692" on="0"/>
        <pt x="224" y="697" on="1"/>
        <pt x="330" y="814" on="1"/>
        <pt x="349" y="836" on="0"/>
        <pt x="360" y="840" on="0"/>
        <pt x="375" y="838" on="0"/>
        <pt x="411" y="830" on="0"/>
        <pt x="424" y="824" on="0"/>
        <pt x="424" y="808" on="0"/>
        <pt x="418" y="804" on="1"/>
        <pt x="242" y="683" on="1"/>
        <pt x="239" y="680" on="0"/>
        <pt x="219" y="680" on="0"/>
      </contour>
    </TTGlyph>
    <TTGlyph name="Ecircumflex" xMin="50" yMin="-3" xMax="519" yMax="811">
      <component glyphName="E" x="0" y="0" flags="0x1004"/>
      <component glyphName="circumflex" x="76" y="177" flags="0x1004"/>
    </TTGlyph>
    <TTGlyph name="Edieresis" xMin="50" yMin="-3" xMax="519" yMax="794">
      <contour>
        <pt x="431" y="0" on="1"/>
        <pt x="50" y="0" on="1"/>
        <pt x="50" y="30" on="1"/>
        <pt x="90" y="27" on="1"/>
        <pt x="108" y="27" on="0"/>
        <pt x="108" y="49" on="1"/>
        <pt x="108" y="548" on="1"/>
        <pt x="108" y="557" on="0"/>
        <pt x="97" y="570" on="0"/>
        <pt x="88" y="569" on="1"/>
        <pt x="50" y="567" on="1"/>
        <pt x="50" y="597" on="1"/>
        <pt x="472" y="597" on="1"/>
        <pt x="486" y="597" on="0"/>
        <pt x="489" y="598" on="1"/>
        <pt x="489" y="443" on="1"/>
        <pt x="462" y="443" on="1"/>
        <pt x="462" y="510" on="0"/>
        <pt x="395" y="569" on="0"/>
        <pt x="320" y="569" on="1"/>
        <pt x="213" y="569" on="1"/>
        <pt x="201" y="569" on="0"/>
        <pt x="201" y="555" on="1"/>
        <pt x="201" y="325" on="1"/>
        <pt x="295" y="325" on="1"/>
        <pt x="329" y="325" on="0"/>
        <pt x="371" y="379" on="0"/>
        <pt x="371" y="426" on="1"/>
        <pt x="398" y="426" on="1"/>
        <pt x="398" y="195" on="1"/>
        <pt x="371" y="195" on="1"/>
        <pt x="371" y="239" on="0"/>
        <pt x="326" y="297" on="0"/>
        <pt x="295" y="297" on="1"/>
        <pt x="201" y="297" on="1"/>
        <pt x="201" y="41" on="1"/>
        <pt x="201" y="28" on="0"/>
        <pt x="213" y="28" on="1"/>
        <pt x="353" y="28" on="1"/>
        <pt x="421" y="28" on="0"/>
        <pt x="492" y="106" on="0"/>
        <pt x="492" y="179" on="1"/>
        <pt x="519" y="179" on="1"/>
        <pt x="519" y="-3" on="1"/>
        <pt x="496" y="0" on="0"/>
      </contour>
      <contour>
        <pt x="148" y="724" on="0"/>
        <pt x="148" y="766" on="0"/>
        <pt x="179" y="794" on="0"/>
        <pt x="224" y="794" on="0"/>
        <pt x="256" y="766" on="0"/>
        <pt x="256" y="724" on="0"/>
        <pt x="226" y="697" on="0"/>
        <pt x="178" y="697" on="0"/>
      </contour>
      <contour>
        <pt x="343" y="724" on="0"/>
        <pt x="343" y="766" on="0"/>
        <pt x="374" y="794" on="0"/>
        <pt x="419" y="794" on="0"/>
        <pt x="451" y="766" on="0"/>
        <pt x="451" y="724" on="0"/>
        <pt x="421" y="697" on="0"/>
        <pt x="373" y="697" on="0"/>
      </contour>
    </TTGlyph>
    <TTGlyph name="Egrave" xMin="50" yMin="-3" xMax="519" yMax="830">
      <component glyphName="E" x="0" y="0" flags="0x1004"/>
      <component glyphName="grave" x="-1" y="177" flags="0x1004"/>
    </TTGlyph>
    <TTGlyph name="Eth" xMin="42" yMin="0" xMax="591" yMax="597">
      <contour>
        <pt x="111" y="293" on="1"/>
        <pt x="42" y="293" on="1"/>
        <pt x="42" y="329" on="1"/>
        <pt x="111" y="329" on="1"/>
        <pt x="111" y="548" on="1"/>
        <pt x="111" y="569" on="0"/>
        <pt x="92" y="569" on="1"/>
        <pt x="53" y="567" on="1"/>
        <pt x="53" y="597" on="1"/>
        <pt x="278" y="597" on="1"/>
        <pt x="438" y="597" on="0"/>
        <pt x="591" y="458" on="0"/>
        <pt x="591" y="299" on="1"/>
        <pt x="591" y="0" on="0"/>
        <pt x="290" y="0" on="1"/>
        <pt x="53" y="0" on="1"/>
        <pt x="53" y="29" on="1"/>
        <pt x="96" y="27" on="1"/>
        <pt x="111" y="27" on="0"/>
        <pt x="111" y="49" on="1"/>
      </contour>
      <contour>
        <pt x="204" y="293" on="1"/>
        <pt x="204" y="41" on="1"/>
        <pt x="204" y="28" on="0"/>
        <pt x="216" y="28" on="1"/>
        <pt x="261" y="28" on="1"/>
        <pt x="385" y="28" on="0"/>
        <pt x="489" y="151" on="0"/>
        <pt x="489" y="445" on="0"/>
        <pt x="385" y="569" on="0"/>
        <pt x="261" y="569" on="1"/>
        <pt x="216" y="569" on="1"/>
        <pt x="204" y="569" on="0"/>
        <pt x="204" y="556" on="1"/>
        <pt x="204" y="329" on="1"/>
        <pt x="391" y="329" on="1"/>
        <pt x="391" y="293" on="1"/>
      </contour>
    </TTGlyph>
    <TTGlyph name="Euro" xMin="2" yMin="-10" xMax="461" yMax="607">
      <contour>
        <pt x="452" y="454" on="1"/>
        <pt x="452" y="445" on="0"/>
        <pt x="454" y="433" on="1"/>
        <pt x="436" y="433" on="1"/>
        <pt x="424" y="496" on="0"/>
        <pt x="340" y="582" on="0"/>
        <pt x="231" y="582" on="0"/>
        <pt x="154" y="471" on="0"/>
        <pt x="143" y="372" on="1"/>
        <pt x="383" y="372" on="1"/>
        <pt x="373" y="331" on="1"/>
        <pt x="139" y="331" on="1"/>
        <pt x="138" y="326" on="0"/>
        <pt x="138" y="318" on="1"/>
        <pt x="138" y="282" on="1"/>
        <pt x="138" y="266" on="0"/>
        <pt x="140" y="258" on="1"/>
        <pt x="383" y="258" on="1"/>
        <pt x="373" y="217" on="1"/>
        <pt x="143" y="217" on="1"/>
        <pt x="156" y="122" on="0"/>
        <pt x="235" y="17" on="0"/>
        <pt x="347" y="17" on="0"/>
        <pt x="429" y="102" on="0"/>
        <pt x="439" y="167" on="1"/>
        <pt x="461" y="167" on="1"/>
        <pt x="458" y="131" on="0"/>
        <pt x="458" y="122" on="1"/>
        <pt x="456" y="99" on="1"/>
        <pt x="456" y="82" on="1"/>
        <pt x="456" y="54" on="0"/>
        <pt x="459" y="35" on="1"/>
        <pt x="454" y="35" on="1"/>
        <pt x="438" y="35" on="0"/>
        <pt x="400" y="20" on="1"/>
        <pt x="372" y="8" on="1"/>
        <pt x="359" y="2" on="0"/>
        <pt x="306" y="-10" on="0"/>
        <pt x="288" y="-10" on="1"/>
        <pt x="198" y="-10" on="0"/>
        <pt x="79" y="110" on="0"/>
        <pt x="64" y="217" on="1"/>
        <pt x="2" y="217" on="1"/>
        <pt x="12" y="258" on="1"/>
        <pt x="60" y="258" on="1"/>
        <pt x="59" y="263" on="0"/>
        <pt x="59" y="272" on="1"/>
        <pt x="59" y="318" on="1"/>
        <pt x="59" y="326" on="0"/>
        <pt x="60" y="331" on="1"/>
        <pt x="2" y="331" on="1"/>
        <pt x="12" y="372" on="1"/>
        <pt x="63" y="372" on="1"/>
        <pt x="78" y="485" on="0"/>
        <pt x="198" y="607" on="0"/>
        <pt x="292" y="607" on="1"/>
        <pt x="325" y="607" on="0"/>
        <pt x="366" y="595" on="0"/>
        <pt x="417" y="570" on="1"/>
        <pt x="433" y="564" on="0"/>
        <pt x="454" y="564" on="1"/>
        <pt x="451" y="525" on="0"/>
        <pt x="451" y="473" on="0"/>
        <pt x="452" y="468" on="1"/>
      </contour>
    </TTGlyph>
    <TTGlyph name="F" xMin="50" yMin="0" xMax="499" yMax="598">
      <contour>
        <pt x="272" y="0" on="1"/>
        <pt x="50" y="0" on="1"/>
        <pt x="50" y="30" on="1"/>
        <pt x="90" y="27" on="1"/>
        <pt x="108" y="27" on="0"/>
        <pt x="108" y="49" on="1"/>
        <pt x="108" y="548" on="1"/>
        <pt x="108" y="569" on="0"/>
        <pt x="91" y="569" on="1"/>
        <pt x="89" y="569" on="1"/>
        <pt x="50" y="567" on="1"/>
        <pt x="50" y="597" on="1"/>
        <pt x="484" y="597" on="1"/>
        <pt x="496" y="597" on="0"/>
        <pt x="499" y="598" on="1"/>
        <pt x="499" y="443" on="1"/>
        <pt x="472" y="443" on="1"/>
        <pt x="472" y="509" on="0"/>
        <pt x="404" y="569" on="0"/>
        <pt x="330" y="569" on="1"/>
        <pt x="213" y="569" on="1"/>
        <pt x="201" y="569" on="0"/>
        <pt x="201" y="556" on="1"/>
        <pt x="201" y="315" on="1"/>
        <pt x="276" y="315" on="1"/>
        <pt x="312" y="315" on="0"/>
        <pt x="355" y="370" on="0"/>
        <pt x="355" y="417" on="1"/>
        <pt x="382" y="417" on="1"/>
        <pt x="382" y="187" on="1"/>
        <pt x="355" y="187" on="1"/>
        <pt x="355" y="232" on="0"/>
        <pt x="311" y="287" on="0"/>
        <pt x="276" y="287" on="1"/>
        <pt x="201" y="287" on="1"/>
        <pt x="201" y="48" on="1"/>
        <pt x="201" y="27" on="0"/>
        <pt x="220" y="27" on="1"/>
        <pt x="272" y="30" on="1"/>
      </contour>
    </TTGlyph>
    <TTGlyph name="G" xMin="45" yMin="-10" xMax="626" yMax="607">
      <contour>
        <pt x="200" y="-10" on="0"/>
        <pt x="45" y="144" on="0"/>
        <pt x="45" y="449" on="0"/>
        <pt x="200" y="607" on="0"/>
        <pt x="345" y="607" on="1"/>
        <pt x="424" y="607" on="0"/>
        <pt x="506" y="570" on="1"/>
        <pt x="520" y="564" on="0"/>
        <pt x="553" y="564" on="1"/>
        <pt x="549" y="544" on="0"/>
        <pt x="549" y="495" on="1"/>
        <pt x="549" y="474" on="1"/>
        <pt x="549" y="465" on="0"/>
        <pt x="550" y="461" on="1"/>
        <pt x="550" y="449" on="1"/>
        <pt x="553" y="433" on="1"/>
        <pt x="513" y="433" on="1"/>
        <pt x="514" y="438" on="0"/>
        <pt x="514" y="479" on="0"/>
        <pt x="504" y="500" on="1"/>
        <pt x="469" y="582" on="0"/>
        <pt x="340" y="582" on="1"/>
        <pt x="253" y="582" on="0"/>
        <pt x="147" y="436" on="0"/>
        <pt x="147" y="295" on="1"/>
        <pt x="147" y="17" on="0"/>
        <pt x="345" y="17" on="1"/>
        <pt x="390" y="17" on="0"/>
        <pt x="446" y="36" on="0"/>
        <pt x="473" y="63" on="1"/>
        <pt x="473" y="223" on="1"/>
        <pt x="473" y="245" on="0"/>
        <pt x="454" y="245" on="1"/>
        <pt x="395" y="243" on="1"/>
        <pt x="395" y="272" on="1"/>
        <pt x="626" y="272" on="1"/>
        <pt x="626" y="243" on="1"/>
        <pt x="585" y="245" on="1"/>
        <pt x="566" y="245" on="0"/>
        <pt x="566" y="224" on="1"/>
        <pt x="566" y="35" on="1"/>
        <pt x="561" y="36" on="0"/>
        <pt x="552" y="36" on="1"/>
        <pt x="532" y="34" on="1"/>
        <pt x="517" y="31" on="0"/>
        <pt x="501" y="26" on="1"/>
        <pt x="448" y="7" on="1"/>
        <pt x="398" y="-10" on="0"/>
        <pt x="340" y="-10" on="1"/>
      </contour>
    </TTGlyph>
    <TTGlyph name="H" xMin="50" yMin="0" xMax="646" yMax="597">
      <contour>
        <pt x="495" y="548" on="1"/>
        <pt x="495" y="571" on="0"/>
        <pt x="476" y="569" on="1"/>
        <pt x="427" y="567" on="1"/>
        <pt x="427" y="597" on="1"/>
        <pt x="646" y="597" on="1"/>
        <pt x="646" y="567" on="1"/>
        <pt x="607" y="569" on="1"/>
        <pt x="598" y="570" on="0"/>
        <pt x="588" y="558" on="0"/>
        <pt x="588" y="548" on="1"/>
        <pt x="588" y="49" on="1"/>
        <pt x="588" y="27" on="0"/>
        <pt x="607" y="27" on="1"/>
        <pt x="646" y="29" on="1"/>
        <pt x="646" y="0" on="1"/>
        <pt x="427" y="0" on="1"/>
        <pt x="427" y="29" on="1"/>
        <pt x="476" y="27" on="1"/>
        <pt x="495" y="27" on="0"/>
        <pt x="495" y="49" on="1"/>
        <pt x="495" y="294" on="1"/>
        <pt x="201" y="294" on="1"/>
        <pt x="201" y="49" on="1"/>
        <pt x="201" y="27" on="0"/>
        <pt x="221" y="27" on="1"/>
        <pt x="270" y="29" on="1"/>
        <pt x="270" y="0" on="1"/>
        <pt x="50" y="0" on="1"/>
        <pt x="50" y="29" on="1"/>
        <pt x="89" y="27" on="1"/>
        <pt x="108" y="27" on="0"/>
        <pt x="108" y="49" on="1"/>
        <pt x="108" y="548" on="1"/>
        <pt x="108" y="571" on="0"/>
        <pt x="89" y="569" on="1"/>
        <pt x="50" y="567" on="1"/>
        <pt x="50" y="597" on="1"/>
        <pt x="270" y="597" on="1"/>
        <pt x="270" y="567" on="1"/>
        <pt x="221" y="569" on="1"/>
        <pt x="212" y="570" on="0"/>
        <pt x="201" y="557" on="0"/>
        <pt x="201" y="548" on="1"/>
        <pt x="201" y="322" on="1"/>
        <pt x="495" y="322" on="1"/>
      </contour>
    </TTGlyph>
    <TTGlyph name="I" xMin="50" yMin="0" xMax="260" yMax="597">
      <contour>
        <pt x="260" y="0" on="1"/>
        <pt x="50" y="0" on="1"/>
        <pt x="50" y="29" on="1"/>
        <pt x="89" y="27" on="1"/>
        <pt x="108" y="27" on="0"/>
        <pt x="108" y="49" on="1"/>
        <pt x="108" y="548" on="1"/>
        <pt x="108" y="557" on="0"/>
        <pt x="98" y="570" on="0"/>
        <pt x="89" y="569" on="1"/>
        <pt x="50" y="567" on="1"/>
        <pt x="50" y="597" on="1"/>
        <pt x="260" y="597" on="1"/>
        <pt x="260" y="567" on="1"/>
        <pt x="221" y="569" on="1"/>
        <pt x="212" y="570" on="0"/>
        <pt x="201" y="557" on="0"/>
        <pt x="201" y="548" on="1"/>
        <pt x="201" y="49" on="1"/>
        <pt x="201" y="27" on="0"/>
        <pt x="221" y="27" on="1"/>
        <pt x="260" y="29" on="1"/>
      </contour>
    </TTGlyph>
    <TTGlyph name="Iacute" xMin="50" yMin="0" xMax="291" yMax="839">
      <contour>
        <pt x="260" y="0" on="1"/>
        <pt x="50" y="0" on="1"/>
        <pt x="50" y="29" on="1"/>
        <pt x="89" y="27" on="1"/>
        <pt x="108" y="27" on="0"/>
        <pt x="108" y="49" on="1"/>
        <pt x="108" y="548" on="1"/>
        <pt x="108" y="557" on="0"/>
        <pt x="98" y="570" on="0"/>
        <pt x="89" y="569" on="1"/>
        <pt x="50" y="567" on="1"/>
        <pt x="50" y="597" on="1"/>
        <pt x="260" y="597" on="1"/>
        <pt x="260" y="567" on="1"/>
        <pt x="221" y="569" on="1"/>
        <pt x="212" y="570" on="0"/>
        <pt x="201" y="557" on="0"/>
        <pt x="201" y="548" on="1"/>
        <pt x="201" y="49" on="1"/>
        <pt x="201" y="27" on="0"/>
        <pt x="221" y="27" on="1"/>
        <pt x="260" y="29" on="1"/>
      </contour>
      <contour>
        <pt x="86" y="688" on="1"/>
        <pt x="86" y="692" on="0"/>
        <pt x="91" y="697" on="1"/>
        <pt x="197" y="814" on="1"/>
        <pt x="216" y="836" on="0"/>
        <pt x="227" y="840" on="0"/>
        <pt x="242" y="838" on="0"/>
        <pt x="278" y="830" on="0"/>
        <pt x="291" y="824" on="0"/>
        <pt x="291" y="808" on="0"/>
        <pt x="285" y="804" on="1"/>
        <pt x="109" y="683" on="1"/>
        <pt x="106" y="680" on="0"/>
        <pt x="86" y="680" on="0"/>
      </contour>
    </TTGlyph>
    <TTGlyph name="Icircumflex" xMin="2" yMin="0" xMax="314" yMax="811">
      <component glyphName="I" x="0" y="0" flags="0x1004"/>
      <component glyphName="circumflex" x="-47" y="177" flags="0x1004"/>
    </TTGlyph>
    <TTGlyph name="Idieresis" xMin="7" yMin="0" xMax="310" yMax="794">
      <contour>
        <pt x="260" y="0" on="1"/>
        <pt x="50" y="0" on="1"/>
        <pt x="50" y="29" on="1"/>
        <pt x="89" y="27" on="1"/>
        <pt x="108" y="27" on="0"/>
        <pt x="108" y="49" on="1"/>
        <pt x="108" y="548" on="1"/>
        <pt x="108" y="557" on="0"/>
        <pt x="98" y="570" on="0"/>
        <pt x="89" y="569" on="1"/>
        <pt x="50" y="567" on="1"/>
        <pt x="50" y="597" on="1"/>
        <pt x="260" y="597" on="1"/>
        <pt x="260" y="567" on="1"/>
        <pt x="221" y="569" on="1"/>
        <pt x="212" y="570" on="0"/>
        <pt x="201" y="557" on="0"/>
        <pt x="201" y="548" on="1"/>
        <pt x="201" y="49" on="1"/>
        <pt x="201" y="27" on="0"/>
        <pt x="221" y="27" on="1"/>
        <pt x="260" y="29" on="1"/>
      </contour>
      <contour>
        <pt x="7" y="724" on="0"/>
        <pt x="7" y="766" on="0"/>
        <pt x="38" y="794" on="0"/>
        <pt x="83" y="794" on="0"/>
        <pt x="115" y="766" on="0"/>
        <pt x="115" y="724" on="0"/>
        <pt x="85" y="697" on="0"/>
        <pt x="37" y="697" on="0"/>
      </contour>
      <contour>
        <pt x="202" y="724" on="0"/>
        <pt x="202" y="766" on="0"/>
        <pt x="233" y="794" on="0"/>
        <pt x="278" y="794" on="0"/>
        <pt x="310" y="766" on="0"/>
        <pt x="310" y="724" on="0"/>
        <pt x="280" y="697" on="0"/>
        <pt x="232" y="697" on="0"/>
      </contour>
    </TTGlyph>
    <TTGlyph name="Igrave" xMin="50" yMin="0" xMax="261" yMax="830">
      <component glyphName="I" x="0" y="0" flags="0x1004"/>
      <component glyphName="grave" x="-128" y="177" flags="0x1004"/>
    </TTGlyph>
    <TTGlyph name="J" xMin="24" yMin="-10" xMax="406" yMax="597">
      <contour>
        <pt x="24" y="-1" on="1"/>
        <pt x="24" y="172" on="1"/>
        <pt x="60" y="172" on="1"/>
        <pt x="60" y="90" on="0"/>
        <pt x="102" y="44" on="1"/>
        <pt x="127" y="16" on="0"/>
        <pt x="213" y="16" on="0"/>
        <pt x="255" y="90" on="0"/>
        <pt x="255" y="179" on="1"/>
        <pt x="255" y="548" on="1"/>
        <pt x="255" y="557" on="0"/>
        <pt x="244" y="570" on="0"/>
        <pt x="236" y="569" on="1"/>
        <pt x="167" y="567" on="1"/>
        <pt x="167" y="597" on="1"/>
        <pt x="406" y="597" on="1"/>
        <pt x="406" y="567" on="1"/>
        <pt x="368" y="569" on="1"/>
        <pt x="359" y="570" on="0"/>
        <pt x="348" y="558" on="0"/>
        <pt x="348" y="549" on="1"/>
        <pt x="348" y="179" on="1"/>
        <pt x="348" y="-10" on="0"/>
        <pt x="181" y="-10" on="1"/>
        <pt x="150" y="-10" on="0"/>
        <pt x="70" y="5" on="0"/>
        <pt x="30" y="5" on="0"/>
      </contour>
    </TTGlyph>
    <TTGlyph name="K" xMin="50" yMin="0" xMax="611" yMax="597">
      <contour>
        <pt x="270" y="0" on="1"/>
        <pt x="50" y="0" on="1"/>
        <pt x="50" y="29" on="1"/>
        <pt x="89" y="27" on="1"/>
        <pt x="108" y="27" on="0"/>
        <pt x="108" y="49" on="1"/>
        <pt x="108" y="548" on="1"/>
        <pt x="108" y="558" on="0"/>
        <pt x="98" y="570" on="0"/>
        <pt x="89" y="569" on="1"/>
        <pt x="50" y="567" on="1"/>
        <pt x="50" y="597" on="1"/>
        <pt x="270" y="597" on="1"/>
        <pt x="270" y="567" on="1"/>
        <pt x="221" y="569" on="1"/>
        <pt x="201" y="569" on="0"/>
        <pt x="201" y="547" on="1"/>
        <pt x="201" y="278" on="1"/>
        <pt x="416" y="533" on="1"/>
        <pt x="427" y="548" on="1"/>
        <pt x="433" y="556" on="0"/>
        <pt x="433" y="560" on="1"/>
        <pt x="433" y="569" on="0"/>
        <pt x="423" y="569" on="1"/>
        <pt x="381" y="567" on="1"/>
        <pt x="381" y="597" on="1"/>
        <pt x="559" y="597" on="1"/>
        <pt x="559" y="567" on="1"/>
        <pt x="525" y="569" on="1"/>
        <pt x="524" y="569" on="0"/>
        <pt x="523" y="569" on="1"/>
        <pt x="494" y="569" on="0"/>
        <pt x="467" y="540" on="1"/>
        <pt x="313" y="367" on="1"/>
        <pt x="553" y="41" on="1"/>
        <pt x="564" y="27" on="0"/>
        <pt x="577" y="27" on="1"/>
        <pt x="580" y="27" on="1"/>
        <pt x="611" y="30" on="1"/>
        <pt x="611" y="0" on="1"/>
        <pt x="374" y="0" on="1"/>
        <pt x="374" y="30" on="1"/>
        <pt x="425" y="27" on="1"/>
        <pt x="456" y="25" on="0"/>
        <pt x="440" y="52" on="1"/>
        <pt x="257" y="300" on="1"/>
        <pt x="201" y="234" on="1"/>
        <pt x="201" y="49" on="1"/>
        <pt x="201" y="27" on="0"/>
        <pt x="221" y="27" on="1"/>
        <pt x="270" y="29" on="1"/>
      </contour>
    </TTGlyph>
    <TTGlyph name="L" xMin="50" yMin="-3" xMax="492" yMax="597">
      <contour>
        <pt x="368" y="0" on="1"/>
        <pt x="50" y="0" on="1"/>
        <pt x="50" y="30" on="1"/>
        <pt x="93" y="27" on="1"/>
        <pt x="108" y="27" on="0"/>
        <pt x="108" y="49" on="1"/>
        <pt x="108" y="548" on="1"/>
        <pt x="108" y="557" on="0"/>
        <pt x="97" y="570" on="0"/>
        <pt x="89" y="569" on="1"/>
        <pt x="50" y="567" on="1"/>
        <pt x="50" y="597" on="1"/>
        <pt x="270" y="597" on="1"/>
        <pt x="270" y="567" on="1"/>
        <pt x="221" y="569" on="1"/>
        <pt x="212" y="570" on="0"/>
        <pt x="201" y="557" on="0"/>
        <pt x="201" y="548" on="1"/>
        <pt x="201" y="41" on="1"/>
        <pt x="201" y="28" on="0"/>
        <pt x="213" y="28" on="1"/>
        <pt x="326" y="28" on="1"/>
        <pt x="395" y="28" on="0"/>
        <pt x="466" y="101" on="0"/>
        <pt x="466" y="171" on="1"/>
        <pt x="492" y="171" on="1"/>
        <pt x="492" y="-3" on="1"/>
        <pt x="474" y="0" on="0"/>
      </contour>
    </TTGlyph>
    <TTGlyph name="M" xMin="45" yMin="-10" xMax="808" yMax="597">
      <contour>
        <pt x="206" y="0" on="1"/>
        <pt x="45" y="0" on="1"/>
        <pt x="45" y="29" on="1"/>
        <pt x="84" y="27" on="1"/>
        <pt x="104" y="27" on="0"/>
        <pt x="104" y="49" on="1"/>
        <pt x="104" y="563" on="1"/>
        <pt x="104" y="570" on="0"/>
        <pt x="94" y="569" on="1"/>
        <pt x="52" y="567" on="1"/>
        <pt x="52" y="597" on="1"/>
        <pt x="206" y="597" on="1"/>
        <pt x="439" y="112" on="1"/>
        <pt x="657" y="597" on="1"/>
        <pt x="803" y="597" on="1"/>
        <pt x="803" y="567" on="1"/>
        <pt x="769" y="569" on="1"/>
        <pt x="760" y="570" on="0"/>
        <pt x="749" y="558" on="0"/>
        <pt x="749" y="549" on="1"/>
        <pt x="749" y="49" on="1"/>
        <pt x="749" y="27" on="0"/>
        <pt x="769" y="27" on="1"/>
        <pt x="808" y="29" on="1"/>
        <pt x="808" y="0" on="1"/>
        <pt x="588" y="0" on="1"/>
        <pt x="588" y="29" on="1"/>
        <pt x="637" y="27" on="1"/>
        <pt x="657" y="27" on="0"/>
        <pt x="657" y="49" on="1"/>
        <pt x="657" y="520" on="1"/>
        <pt x="419" y="-10" on="1"/>
        <pt x="395" y="-10" on="1"/>
        <pt x="138" y="526" on="1"/>
        <pt x="138" y="49" on="1"/>
        <pt x="138" y="27" on="0"/>
        <pt x="157" y="27" on="1"/>
        <pt x="206" y="29" on="1"/>
      </contour>
    </TTGlyph>
    <TTGlyph name="N" xMin="45" yMin="-6" xMax="617" yMax="597">
      <contour>
        <pt x="206" y="0" on="1"/>
        <pt x="45" y="0" on="1"/>
        <pt x="45" y="29" on="1"/>
        <pt x="84" y="27" on="1"/>
        <pt x="104" y="27" on="0"/>
        <pt x="104" y="49" on="1"/>
        <pt x="104" y="548" on="1"/>
        <pt x="104" y="557" on="0"/>
        <pt x="93" y="570" on="0"/>
        <pt x="84" y="569" on="1"/>
        <pt x="45" y="567" on="1"/>
        <pt x="45" y="597" on="1"/>
        <pt x="200" y="597" on="1"/>
        <pt x="525" y="154" on="1"/>
        <pt x="525" y="549" on="1"/>
        <pt x="525" y="569" on="0"/>
        <pt x="508" y="569" on="1"/>
        <pt x="505" y="569" on="1"/>
        <pt x="456" y="567" on="1"/>
        <pt x="456" y="597" on="1"/>
        <pt x="617" y="597" on="1"/>
        <pt x="617" y="567" on="1"/>
        <pt x="578" y="569" on="1"/>
        <pt x="576" y="569" on="1"/>
        <pt x="559" y="569" on="0"/>
        <pt x="559" y="548" on="1"/>
        <pt x="559" y="-6" on="1"/>
        <pt x="529" y="-6" on="1"/>
        <pt x="138" y="525" on="1"/>
        <pt x="138" y="49" on="1"/>
        <pt x="138" y="27" on="0"/>
        <pt x="157" y="27" on="1"/>
        <pt x="206" y="29" on="1"/>
      </contour>
    </TTGlyph>
    <TTGlyph name="Ntilde" xMin="45" yMin="-6" xMax="617" yMax="793">
      <component glyphName="N" x="0" y="0" flags="0x1004"/>
      <component glyphName="tilde" x="151" y="177" flags="0x1004"/>
    </TTGlyph>
    <TTGlyph name="O" xMin="45" yMin="-10" xMax="625" yMax="607">
      <contour>
        <pt x="45" y="156" on="0"/>
        <pt x="45" y="442" on="0"/>
        <pt x="111" y="515" on="1"/>
        <pt x="160" y="570" on="0"/>
        <pt x="269" y="607" on="0"/>
        <pt x="335" y="607" on="1"/>
        <pt x="476" y="607" on="0"/>
        <pt x="559" y="515" on="1"/>
        <pt x="625" y="442" on="0"/>
        <pt x="625" y="156" on="0"/>
        <pt x="559" y="83" on="1"/>
        <pt x="475" y="-10" on="0"/>
        <pt x="335" y="-10" on="1"/>
        <pt x="270" y="-10" on="0"/>
        <pt x="160" y="28" on="0"/>
        <pt x="111" y="83" on="1"/>
      </contour>
      <contour>
        <pt x="238" y="580" on="0"/>
        <pt x="147" y="448" on="0"/>
        <pt x="147" y="149" on="0"/>
        <pt x="238" y="17" on="0"/>
        <pt x="432" y="17" on="0"/>
        <pt x="523" y="149" on="0"/>
        <pt x="523" y="448" on="0"/>
        <pt x="432" y="580" on="0"/>
      </contour>
    </TTGlyph>
    <TTGlyph name="OE" xMin="46" yMin="-10" xMax="818" yMax="607">
      <contour>
        <pt x="480" y="0" on="1"/>
        <pt x="425" y="0" on="0"/>
        <pt x="340" y="-10" on="1"/>
        <pt x="198" y="-10" on="0"/>
        <pt x="46" y="146" on="0"/>
        <pt x="46" y="292" on="1"/>
        <pt x="46" y="607" on="0"/>
        <pt x="343" y="607" on="1"/>
        <pt x="370" y="607" on="0"/>
        <pt x="449" y="597" on="0"/>
        <pt x="472" y="597" on="1"/>
        <pt x="799" y="597" on="1"/>
        <pt x="799" y="443" on="1"/>
        <pt x="772" y="443" on="1"/>
        <pt x="772" y="511" on="0"/>
        <pt x="705" y="569" on="0"/>
        <pt x="630" y="569" on="1"/>
        <pt x="536" y="569" on="1"/>
        <pt x="523" y="569" on="0"/>
        <pt x="523" y="555" on="1"/>
        <pt x="523" y="324" on="1"/>
        <pt x="599" y="324" on="1"/>
        <pt x="632" y="324" on="0"/>
        <pt x="676" y="379" on="0"/>
        <pt x="676" y="426" on="1"/>
        <pt x="703" y="426" on="1"/>
        <pt x="703" y="195" on="1"/>
        <pt x="676" y="195" on="1"/>
        <pt x="676" y="239" on="0"/>
        <pt x="631" y="297" on="0"/>
        <pt x="599" y="297" on="1"/>
        <pt x="523" y="297" on="1"/>
        <pt x="523" y="40" on="1"/>
        <pt x="523" y="27" on="0"/>
        <pt x="536" y="27" on="1"/>
        <pt x="651" y="27" on="1"/>
        <pt x="720" y="27" on="0"/>
        <pt x="791" y="106" on="0"/>
        <pt x="791" y="179" on="1"/>
        <pt x="818" y="179" on="1"/>
        <pt x="818" y="-3" on="1"/>
        <pt x="794" y="0" on="0"/>
        <pt x="730" y="0" on="1"/>
      </contour>
      <contour>
        <pt x="234" y="581" on="0"/>
        <pt x="143" y="446" on="0"/>
        <pt x="143" y="148" on="0"/>
        <pt x="233" y="18" on="0"/>
        <pt x="435" y="18" on="0"/>
        <pt x="435" y="90" on="1"/>
        <pt x="435" y="526" on="1"/>
        <pt x="435" y="549" on="0"/>
        <pt x="377" y="581" on="0"/>
        <pt x="336" y="581" on="1"/>
      </contour>
    </TTGlyph>
    <TTGlyph name="Oacute" xMin="45" yMin="-10" xMax="625" yMax="839">
      <contour>
        <pt x="45" y="156" on="0"/>
        <pt x="45" y="442" on="0"/>
        <pt x="111" y="515" on="1"/>
        <pt x="160" y="570" on="0"/>
        <pt x="269" y="607" on="0"/>
        <pt x="335" y="607" on="1"/>
        <pt x="476" y="607" on="0"/>
        <pt x="559" y="515" on="1"/>
        <pt x="625" y="442" on="0"/>
        <pt x="625" y="156" on="0"/>
        <pt x="559" y="83" on="1"/>
        <pt x="475" y="-10" on="0"/>
        <pt x="335" y="-10" on="1"/>
        <pt x="270" y="-10" on="0"/>
        <pt x="160" y="28" on="0"/>
        <pt x="111" y="83" on="1"/>
      </contour>
      <contour>
        <pt x="238" y="580" on="0"/>
        <pt x="147" y="448" on="0"/>
        <pt x="147" y="149" on="0"/>
        <pt x="238" y="17" on="0"/>
        <pt x="432" y="17" on="0"/>
        <pt x="523" y="149" on="0"/>
        <pt x="523" y="448" on="0"/>
        <pt x="432" y="580" on="0"/>
      </contour>
      <contour>
        <pt x="242" y="688" on="1"/>
        <pt x="242" y="692" on="0"/>
        <pt x="247" y="697" on="1"/>
        <pt x="353" y="814" on="1"/>
        <pt x="372" y="836" on="0"/>
        <pt x="383" y="840" on="0"/>
        <pt x="398" y="838" on="0"/>
        <pt x="434" y="830" on="0"/>
        <pt x="447" y="824" on="0"/>
        <pt x="447" y="808" on="0"/>
        <pt x="441" y="804" on="1"/>
        <pt x="265" y="683" on="1"/>
        <pt x="262" y="680" on="0"/>
        <pt x="242" y="680" on="0"/>
      </contour>
    </TTGlyph>
    <TTGlyph name="Ocircumflex" xMin="45" yMin="-10" xMax="625" yMax="811">
      <component glyphName="O" x="0" y="0" flags="0x1004"/>
      <component glyphName="circumflex" x="130" y="177" flags="0x1004"/>
    </TTGlyph>
    <TTGlyph name="Odieresis" xMin="45" yMin="-10" xMax="625" yMax="794">
      <component glyphName="O" x="0" y="0" flags="0x1004"/>
      <component glyphName="dieresis" x="106" y="177" flags="0x1004"/>
    </TTGlyph>
    <TTGlyph name="Ograve" xMin="45" yMin="-10" xMax="625" yMax="830">
      <component glyphName="O" x="0" y="0" flags="0x1004"/>
      <component glyphName="grave" x="49" y="177" flags="0x1004"/>
    </TTGlyph>
    <TTGlyph name="Oslash" xMin="44" yMin="-92" xMax="626" yMax="685">
      <contour>
        <pt x="44" y="290" on="1"/>
        <pt x="44" y="442" on="0"/>
        <pt x="193" y="607" on="0"/>
        <pt x="335" y="607" on="1"/>
        <pt x="378" y="607" on="0"/>
        <pt x="432" y="595" on="0"/>
        <pt x="472" y="577" on="1"/>
        <pt x="535" y="685" on="1"/>
        <pt x="572" y="665" on="1"/>
        <pt x="508" y="555" on="1"/>
        <pt x="626" y="470" on="0"/>
        <pt x="626" y="294" on="1"/>
        <pt x="626" y="149" on="0"/>
        <pt x="467" y="-11" on="0"/>
        <pt x="329" y="-11" on="1"/>
        <pt x="255" y="-11" on="0"/>
        <pt x="191" y="18" on="1"/>
        <pt x="126" y="-92" on="1"/>
        <pt x="89" y="-75" on="1"/>
        <pt x="156" y="39" on="1"/>
        <pt x="44" y="114" on="0"/>
      </contour>
      <contour>
        <pt x="233" y="580" on="0"/>
        <pt x="146" y="443" on="0"/>
        <pt x="146" y="148" on="0"/>
        <pt x="184" y="87" on="1"/>
        <pt x="452" y="542" on="1"/>
        <pt x="407" y="580" on="0"/>
        <pt x="334" y="580" on="1"/>
      </contour>
      <contour>
        <pt x="479" y="507" on="1"/>
        <pt x="212" y="51" on="1"/>
        <pt x="255" y="16" on="0"/>
        <pt x="326" y="16" on="1"/>
        <pt x="432" y="16" on="0"/>
        <pt x="524" y="146" on="0"/>
        <pt x="524" y="298" on="1"/>
        <pt x="524" y="377" on="0"/>
        <pt x="504" y="466" on="0"/>
      </contour>
    </TTGlyph>
    <TTGlyph name="Otilde" xMin="45" yMin="-10" xMax="625" yMax="793">
      <contour>
        <pt x="45" y="156" on="0"/>
        <pt x="45" y="442" on="0"/>
        <pt x="111" y="515" on="1"/>
        <pt x="160" y="570" on="0"/>
        <pt x="269" y="607" on="0"/>
        <pt x="335" y="607" on="1"/>
        <pt x="476" y="607" on="0"/>
        <pt x="559" y="515" on="1"/>
        <pt x="625" y="442" on="0"/>
        <pt x="625" y="156" on="0"/>
        <pt x="559" y="83" on="1"/>
        <pt x="475" y="-10" on="0"/>
        <pt x="335" y="-10" on="1"/>
        <pt x="270" y="-10" on="0"/>
        <pt x="160" y="28" on="0"/>
        <pt x="111" y="83" on="1"/>
      </contour>
      <contour>
        <pt x="238" y="580" on="0"/>
        <pt x="147" y="448" on="0"/>
        <pt x="147" y="149" on="0"/>
        <pt x="238" y="17" on="0"/>
        <pt x="432" y="17" on="0"/>
        <pt x="523" y="149" on="0"/>
        <pt x="523" y="448" on="0"/>
        <pt x="432" y="580" on="0"/>
      </contour>
      <contour>
        <pt x="212" y="702" on="1"/>
        <pt x="192" y="702" on="1"/>
        <pt x="192" y="739" on="0"/>
        <pt x="229" y="793" on="0"/>
        <pt x="278" y="793" on="0"/>
        <pt x="406" y="750" on="0"/>
        <pt x="439" y="750" on="0"/>
        <pt x="458" y="774" on="0"/>
        <pt x="458" y="792" on="1"/>
        <pt x="478" y="792" on="1"/>
        <pt x="478" y="755" on="0"/>
        <pt x="441" y="701" on="0"/>
        <pt x="391" y="701" on="0"/>
        <pt x="264" y="744" on="0"/>
        <pt x="231" y="744" on="0"/>
        <pt x="212" y="720" on="0"/>
      </contour>
    </TTGlyph>
    <TTGlyph name="P" xMin="50" yMin="0" xMax="488" yMax="597">
      <contour>
        <pt x="108" y="547" on="1"/>
        <pt x="108" y="571" on="0"/>
        <pt x="85" y="569" on="1"/>
        <pt x="50" y="567" on="1"/>
        <pt x="50" y="597" on="1"/>
        <pt x="285" y="597" on="1"/>
        <pt x="389" y="597" on="0"/>
        <pt x="488" y="518" on="0"/>
        <pt x="488" y="357" on="0"/>
        <pt x="390" y="263" on="0"/>
        <pt x="306" y="263" on="1"/>
        <pt x="201" y="263" on="1"/>
        <pt x="201" y="49" on="1"/>
        <pt x="201" y="27" on="0"/>
        <pt x="221" y="27" on="1"/>
        <pt x="270" y="29" on="1"/>
        <pt x="270" y="0" on="1"/>
        <pt x="50" y="0" on="1"/>
        <pt x="50" y="29" on="1"/>
        <pt x="89" y="27" on="1"/>
        <pt x="108" y="27" on="0"/>
        <pt x="108" y="49" on="1"/>
      </contour>
      <contour>
        <pt x="201" y="557" on="1"/>
        <pt x="201" y="291" on="1"/>
        <pt x="285" y="291" on="1"/>
        <pt x="331" y="291" on="0"/>
        <pt x="392" y="373" on="0"/>
        <pt x="392" y="496" on="0"/>
        <pt x="325" y="569" on="0"/>
        <pt x="269" y="569" on="1"/>
        <pt x="213" y="569" on="1"/>
        <pt x="209" y="569" on="0"/>
        <pt x="201" y="562" on="0"/>
      </contour>
    </TTGlyph>
    <TTGlyph name="Q" xMin="45" yMin="-196" xMax="625" yMax="607">
      <contour>
        <pt x="45" y="156" on="0"/>
        <pt x="45" y="442" on="0"/>
        <pt x="111" y="515" on="1"/>
        <pt x="160" y="570" on="0"/>
        <pt x="269" y="607" on="0"/>
        <pt x="335" y="607" on="1"/>
        <pt x="476" y="607" on="0"/>
        <pt x="559" y="515" on="1"/>
        <pt x="625" y="442" on="0"/>
        <pt x="625" y="156" on="0"/>
        <pt x="490" y="5" on="0"/>
        <pt x="385" y="-7" on="1"/>
        <pt x="385" y="-76" on="0"/>
        <pt x="478" y="-166" on="0"/>
        <pt x="554" y="-166" on="1"/>
        <pt x="541" y="-196" on="1"/>
        <pt x="429" y="-196" on="0"/>
        <pt x="284" y="-90" on="0"/>
        <pt x="284" y="-7" on="1"/>
        <pt x="180" y="5" on="0"/>
      </contour>
      <contour>
        <pt x="238" y="580" on="0"/>
        <pt x="147" y="448" on="0"/>
        <pt x="147" y="149" on="0"/>
        <pt x="238" y="17" on="0"/>
        <pt x="432" y="17" on="0"/>
        <pt x="523" y="149" on="0"/>
        <pt x="523" y="448" on="0"/>
        <pt x="432" y="580" on="0"/>
      </contour>
    </TTGlyph>
    <TTGlyph name="R" xMin="50" yMin="0" xMax="562" yMax="597">
      <contour>
        <pt x="426" y="0" on="1"/>
        <pt x="410" y="33" on="0"/>
        <pt x="410" y="104" on="1"/>
        <pt x="410" y="137" on="1"/>
        <pt x="410" y="212" on="0"/>
        <pt x="313" y="286" on="0"/>
        <pt x="243" y="286" on="1"/>
        <pt x="201" y="286" on="1"/>
        <pt x="201" y="49" on="1"/>
        <pt x="201" y="27" on="0"/>
        <pt x="221" y="27" on="1"/>
        <pt x="270" y="29" on="1"/>
        <pt x="270" y="0" on="1"/>
        <pt x="50" y="0" on="1"/>
        <pt x="50" y="29" on="1"/>
        <pt x="89" y="27" on="1"/>
        <pt x="108" y="27" on="0"/>
        <pt x="108" y="49" on="1"/>
        <pt x="108" y="548" on="1"/>
        <pt x="108" y="569" on="0"/>
        <pt x="88" y="569" on="1"/>
        <pt x="87" y="569" on="0"/>
        <pt x="86" y="569" on="1"/>
        <pt x="50" y="567" on="1"/>
        <pt x="50" y="597" on="1"/>
        <pt x="275" y="597" on="1"/>
        <pt x="386" y="597" on="0"/>
        <pt x="486" y="522" on="0"/>
        <pt x="486" y="438" on="1"/>
        <pt x="486" y="387" on="0"/>
        <pt x="419" y="312" on="0"/>
        <pt x="364" y="297" on="1"/>
        <pt x="414" y="297" on="0"/>
        <pt x="500" y="201" on="0"/>
        <pt x="500" y="122" on="1"/>
        <pt x="500" y="92" on="0"/>
        <pt x="515" y="30" on="0"/>
        <pt x="529" y="28" on="1"/>
        <pt x="535" y="26" on="0"/>
        <pt x="556" y="26" on="0"/>
        <pt x="562" y="30" on="1"/>
        <pt x="562" y="0" on="1"/>
      </contour>
      <contour>
        <pt x="201" y="559" on="1"/>
        <pt x="201" y="313" on="1"/>
        <pt x="294" y="313" on="1"/>
        <pt x="340" y="313" on="0"/>
        <pt x="392" y="379" on="0"/>
        <pt x="392" y="507" on="0"/>
        <pt x="335" y="569" on="0"/>
        <pt x="275" y="569" on="1"/>
        <pt x="213" y="569" on="1"/>
        <pt x="201" y="569" on="0"/>
      </contour>
    </TTGlyph>
    <TTGlyph name="S" xMin="48" yMin="-10" xMax="457" yMax="607">
      <contour>
        <pt x="48" y="203" on="1"/>
        <pt x="73" y="203" on="1"/>
        <pt x="96" y="18" on="0"/>
        <pt x="257" y="18" on="1"/>
        <pt x="307" y="18" on="0"/>
        <pt x="366" y="84" on="0"/>
        <pt x="367" y="138" on="1"/>
        <pt x="367" y="215" on="0"/>
        <pt x="268" y="254" on="1"/>
        <pt x="166" y="295" on="1"/>
        <pt x="56" y="339" on="0"/>
        <pt x="56" y="441" on="1"/>
        <pt x="56" y="511" on="0"/>
        <pt x="153" y="607" on="0"/>
        <pt x="241" y="607" on="1"/>
        <pt x="267" y="607" on="0"/>
        <pt x="292" y="602" on="1"/>
        <pt x="334" y="590" on="1"/>
        <pt x="370" y="578" on="1"/>
        <pt x="386" y="572" on="0"/>
        <pt x="415" y="572" on="0"/>
        <pt x="426" y="576" on="1"/>
        <pt x="423" y="552" on="0"/>
        <pt x="423" y="452" on="0"/>
        <pt x="429" y="434" on="1"/>
        <pt x="403" y="434" on="1"/>
        <pt x="403" y="499" on="0"/>
        <pt x="318" y="580" on="0"/>
        <pt x="202" y="580" on="0"/>
        <pt x="138" y="523" on="0"/>
        <pt x="138" y="472" on="1"/>
        <pt x="138" y="404" on="0"/>
        <pt x="224" y="370" on="1"/>
        <pt x="316" y="333" on="1"/>
        <pt x="392" y="302" on="0"/>
        <pt x="457" y="227" on="0"/>
        <pt x="457" y="168" on="1"/>
        <pt x="457" y="90" on="0"/>
        <pt x="346" y="-10" on="0"/>
        <pt x="268" y="-10" on="1"/>
        <pt x="209" y="-10" on="0"/>
        <pt x="112" y="18" on="0"/>
        <pt x="57" y="18" on="0"/>
        <pt x="52" y="13" on="1"/>
        <pt x="56" y="34" on="0"/>
        <pt x="56" y="177" on="0"/>
      </contour>
    </TTGlyph>
    <TTGlyph name="Scaron" xMin="48" yMin="-10" xMax="457" yMax="861">
      <contour>
        <pt x="48" y="203" on="1"/>
        <pt x="73" y="203" on="1"/>
        <pt x="96" y="18" on="0"/>
        <pt x="257" y="18" on="1"/>
        <pt x="307" y="18" on="0"/>
        <pt x="366" y="84" on="0"/>
        <pt x="367" y="138" on="1"/>
        <pt x="367" y="215" on="0"/>
        <pt x="268" y="254" on="1"/>
        <pt x="166" y="295" on="1"/>
        <pt x="56" y="339" on="0"/>
        <pt x="56" y="441" on="1"/>
        <pt x="56" y="511" on="0"/>
        <pt x="153" y="607" on="0"/>
        <pt x="241" y="607" on="1"/>
        <pt x="281" y="607" on="0"/>
        <pt x="334" y="590" on="1"/>
        <pt x="370" y="578" on="1"/>
        <pt x="385" y="572" on="0"/>
        <pt x="415" y="572" on="0"/>
        <pt x="426" y="576" on="1"/>
        <pt x="423" y="552" on="0"/>
        <pt x="423" y="452" on="0"/>
        <pt x="429" y="434" on="1"/>
        <pt x="403" y="434" on="1"/>
        <pt x="403" y="499" on="0"/>
        <pt x="318" y="580" on="0"/>
        <pt x="202" y="580" on="0"/>
        <pt x="138" y="523" on="0"/>
        <pt x="138" y="472" on="1"/>
        <pt x="138" y="404" on="0"/>
        <pt x="224" y="370" on="1"/>
        <pt x="316" y="333" on="1"/>
        <pt x="392" y="302" on="0"/>
        <pt x="457" y="227" on="0"/>
        <pt x="457" y="168" on="1"/>
        <pt x="457" y="90" on="0"/>
        <pt x="346" y="-10" on="0"/>
        <pt x="268" y="-10" on="1"/>
        <pt x="209" y="-10" on="0"/>
        <pt x="112" y="18" on="0"/>
        <pt x="57" y="18" on="0"/>
        <pt x="52" y="13" on="1"/>
        <pt x="56" y="34" on="0"/>
        <pt x="56" y="177" on="0"/>
      </contour>
      <contour>
        <pt x="91" y="853" on="1"/>
        <pt x="91" y="861" on="0"/>
        <pt x="109" y="861" on="0"/>
        <pt x="128" y="849" on="1"/>
        <pt x="247" y="775" on="1"/>
        <pt x="366" y="849" on="1"/>
        <pt x="385" y="861" on="0"/>
        <pt x="403" y="861" on="0"/>
        <pt x="403" y="853" on="1"/>
        <pt x="403" y="849" on="0"/>
        <pt x="382" y="831" on="0"/>
        <pt x="341" y="796" on="0"/>
        <pt x="324" y="778" on="1"/>
        <pt x="276" y="730" on="1"/>
        <pt x="251" y="705" on="0"/>
        <pt x="243" y="705" on="0"/>
        <pt x="218" y="730" on="1"/>
        <pt x="170" y="778" on="1"/>
        <pt x="153" y="796" on="0"/>
        <pt x="112" y="831" on="0"/>
        <pt x="91" y="849" on="0"/>
      </contour>
    </TTGlyph>
    <TTGlyph name="T" xMin="15" yMin="0" xMax="514" yMax="599">
      <contour>
        <pt x="41" y="443" on="1"/>
        <pt x="15" y="443" on="1"/>
        <pt x="15" y="599" on="1"/>
        <pt x="29" y="597" on="0"/>
        <pt x="55" y="597" on="1"/>
        <pt x="474" y="597" on="1"/>
        <pt x="506" y="597" on="0"/>
        <pt x="514" y="599" on="1"/>
        <pt x="514" y="443" on="1"/>
        <pt x="488" y="443" on="1"/>
        <pt x="488" y="508" on="0"/>
        <pt x="431" y="569" on="0"/>
        <pt x="365" y="569" on="1"/>
        <pt x="323" y="569" on="1"/>
        <pt x="313" y="569" on="0"/>
        <pt x="311" y="558" on="1"/>
        <pt x="311" y="49" on="1"/>
        <pt x="311" y="27" on="0"/>
        <pt x="331" y="27" on="1"/>
        <pt x="384" y="29" on="1"/>
        <pt x="384" y="0" on="1"/>
        <pt x="145" y="0" on="1"/>
        <pt x="145" y="29" on="1"/>
        <pt x="199" y="27" on="1"/>
        <pt x="218" y="27" on="0"/>
        <pt x="218" y="52" on="1"/>
        <pt x="218" y="557" on="1"/>
        <pt x="218" y="569" on="0"/>
        <pt x="206" y="569" on="1"/>
        <pt x="165" y="569" on="1"/>
        <pt x="99" y="569" on="0"/>
        <pt x="41" y="508" on="0"/>
      </contour>
    </TTGlyph>
    <TTGlyph name="Thorn" xMin="39" yMin="0" xMax="478" yMax="597">
      <contour>
        <pt x="259" y="0" on="1"/>
        <pt x="39" y="0" on="1"/>
        <pt x="39" y="29" on="1"/>
        <pt x="78" y="27" on="1"/>
        <pt x="87" y="26" on="0"/>
        <pt x="97" y="39" on="0"/>
        <pt x="97" y="49" on="1"/>
        <pt x="97" y="548" on="1"/>
        <pt x="97" y="569" on="0"/>
        <pt x="78" y="569" on="1"/>
        <pt x="39" y="567" on="1"/>
        <pt x="39" y="597" on="1"/>
        <pt x="259" y="597" on="1"/>
        <pt x="259" y="567" on="1"/>
        <pt x="210" y="569" on="1"/>
        <pt x="201" y="569" on="0"/>
        <pt x="190" y="557" on="0"/>
        <pt x="190" y="548" on="1"/>
        <pt x="190" y="496" on="1"/>
        <pt x="272" y="496" on="1"/>
        <pt x="378" y="496" on="0"/>
        <pt x="478" y="418" on="0"/>
        <pt x="478" y="255" on="0"/>
        <pt x="380" y="162" on="0"/>
        <pt x="293" y="162" on="1"/>
        <pt x="190" y="162" on="1"/>
        <pt x="190" y="49" on="1"/>
        <pt x="190" y="38" on="0"/>
        <pt x="199" y="26" on="0"/>
        <pt x="210" y="27" on="1"/>
        <pt x="259" y="29" on="1"/>
      </contour>
      <contour>
        <pt x="190" y="471" on="1"/>
        <pt x="190" y="201" on="1"/>
        <pt x="190" y="188" on="0"/>
        <pt x="203" y="188" on="1"/>
        <pt x="272" y="188" on="1"/>
        <pt x="317" y="188" on="0"/>
        <pt x="382" y="273" on="0"/>
        <pt x="382" y="396" on="0"/>
        <pt x="314" y="471" on="0"/>
        <pt x="256" y="471" on="1"/>
      </contour>
    </TTGlyph>
    <TTGlyph name="U" xMin="35" yMin="-10" xMax="626" yMax="597">
      <contour>
        <pt x="73" y="569" on="1"/>
        <pt x="35" y="567" on="1"/>
        <pt x="35" y="597" on="1"/>
        <pt x="254" y="597" on="1"/>
        <pt x="254" y="567" on="1"/>
        <pt x="205" y="569" on="1"/>
        <pt x="196" y="570" on="0"/>
        <pt x="185" y="558" on="0"/>
        <pt x="185" y="549" on="1"/>
        <pt x="185" y="199" on="1"/>
        <pt x="185" y="115" on="0"/>
        <pt x="278" y="21" on="0"/>
        <pt x="435" y="21" on="0"/>
        <pt x="532" y="122" on="0"/>
        <pt x="532" y="198" on="1"/>
        <pt x="532" y="548" on="1"/>
        <pt x="532" y="558" on="0"/>
        <pt x="522" y="570" on="0"/>
        <pt x="514" y="569" on="1"/>
        <pt x="465" y="567" on="1"/>
        <pt x="465" y="597" on="1"/>
        <pt x="626" y="597" on="1"/>
        <pt x="626" y="567" on="1"/>
        <pt x="587" y="569" on="1"/>
        <pt x="578" y="570" on="0"/>
        <pt x="567" y="558" on="0"/>
        <pt x="567" y="549" on="1"/>
        <pt x="567" y="189" on="1"/>
        <pt x="567" y="103" on="0"/>
        <pt x="441" y="-10" on="0"/>
        <pt x="344" y="-10" on="1"/>
        <pt x="222" y="-10" on="0"/>
        <pt x="92" y="97" on="0"/>
        <pt x="92" y="199" on="1"/>
        <pt x="92" y="548" on="1"/>
        <pt x="92" y="557" on="0"/>
        <pt x="81" y="570" on="0"/>
      </contour>
    </TTGlyph>
    <TTGlyph name="Uacute" xMin="35" yMin="-10" xMax="626" yMax="839">
      <contour>
        <pt x="73" y="569" on="1"/>
        <pt x="35" y="567" on="1"/>
        <pt x="35" y="597" on="1"/>
        <pt x="254" y="597" on="1"/>
        <pt x="254" y="567" on="1"/>
        <pt x="205" y="569" on="1"/>
        <pt x="196" y="570" on="0"/>
        <pt x="185" y="558" on="0"/>
        <pt x="185" y="549" on="1"/>
        <pt x="185" y="199" on="1"/>
        <pt x="185" y="115" on="0"/>
        <pt x="278" y="21" on="0"/>
        <pt x="435" y="21" on="0"/>
        <pt x="532" y="122" on="0"/>
        <pt x="532" y="198" on="1"/>
        <pt x="532" y="548" on="1"/>
        <pt x="532" y="558" on="0"/>
        <pt x="522" y="570" on="0"/>
        <pt x="514" y="569" on="1"/>
        <pt x="465" y="567" on="1"/>
        <pt x="465" y="597" on="1"/>
        <pt x="626" y="597" on="1"/>
        <pt x="626" y="567" on="1"/>
        <pt x="587" y="569" on="1"/>
        <pt x="578" y="570" on="0"/>
        <pt x="567" y="558" on="0"/>
        <pt x="567" y="549" on="1"/>
        <pt x="567" y="189" on="1"/>
        <pt x="567" y="103" on="0"/>
        <pt x="441" y="-10" on="0"/>
        <pt x="344" y="-10" on="1"/>
        <pt x="222" y="-10" on="0"/>
        <pt x="92" y="97" on="0"/>
        <pt x="92" y="199" on="1"/>
        <pt x="92" y="548" on="1"/>
        <pt x="92" y="557" on="0"/>
        <pt x="81" y="570" on="0"/>
      </contour>
      <contour>
        <pt x="283" y="688" on="1"/>
        <pt x="283" y="692" on="0"/>
        <pt x="288" y="697" on="1"/>
        <pt x="394" y="814" on="1"/>
        <pt x="413" y="836" on="0"/>
        <pt x="424" y="840" on="0"/>
        <pt x="439" y="838" on="0"/>
        <pt x="475" y="830" on="0"/>
        <pt x="488" y="824" on="0"/>
        <pt x="488" y="808" on="0"/>
        <pt x="482" y="804" on="1"/>
        <pt x="306" y="683" on="1"/>
        <pt x="303" y="680" on="0"/>
        <pt x="283" y="680" on="0"/>
      </contour>
    </TTGlyph>
    <TTGlyph name="Ucircumflex" xMin="35" yMin="-10" xMax="626" yMax="811">
      <component glyphName="U" x="0" y="0" flags="0x1004"/>
      <component glyphName="circumflex" x="158" y="177" flags="0x1004"/>
    </TTGlyph>
    <TTGlyph name="Udieresis" xMin="35" yMin="-10" xMax="626" yMax="794">
      <contour>
        <pt x="73" y="569" on="1"/>
        <pt x="35" y="567" on="1"/>
        <pt x="35" y="597" on="1"/>
        <pt x="254" y="597" on="1"/>
        <pt x="254" y="567" on="1"/>
        <pt x="205" y="569" on="1"/>
        <pt x="196" y="570" on="0"/>
        <pt x="185" y="558" on="0"/>
        <pt x="185" y="549" on="1"/>
        <pt x="185" y="199" on="1"/>
        <pt x="185" y="115" on="0"/>
        <pt x="278" y="21" on="0"/>
        <pt x="435" y="21" on="0"/>
        <pt x="532" y="122" on="0"/>
        <pt x="532" y="198" on="1"/>
        <pt x="532" y="548" on="1"/>
        <pt x="532" y="558" on="0"/>
        <pt x="522" y="570" on="0"/>
        <pt x="514" y="569" on="1"/>
        <pt x="465" y="567" on="1"/>
        <pt x="465" y="597" on="1"/>
        <pt x="626" y="597" on="1"/>
        <pt x="626" y="567" on="1"/>
        <pt x="587" y="569" on="1"/>
        <pt x="578" y="570" on="0"/>
        <pt x="567" y="558" on="0"/>
        <pt x="567" y="549" on="1"/>
        <pt x="567" y="189" on="1"/>
        <pt x="567" y="103" on="0"/>
        <pt x="441" y="-10" on="0"/>
        <pt x="344" y="-10" on="1"/>
        <pt x="222" y="-10" on="0"/>
        <pt x="92" y="97" on="0"/>
        <pt x="92" y="199" on="1"/>
        <pt x="92" y="548" on="1"/>
        <pt x="92" y="557" on="0"/>
        <pt x="81" y="570" on="0"/>
      </contour>
      <contour>
        <pt x="206" y="724" on="0"/>
        <pt x="206" y="766" on="0"/>
        <pt x="237" y="794" on="0"/>
        <pt x="282" y="794" on="0"/>
        <pt x="314" y="766" on="0"/>
        <pt x="314" y="724" on="0"/>
        <pt x="284" y="697" on="0"/>
        <pt x="236" y="697" on="0"/>
      </contour>
      <contour>
        <pt x="401" y="724" on="0"/>
        <pt x="401" y="766" on="0"/>
        <pt x="432" y="794" on="0"/>
        <pt x="477" y="794" on="0"/>
        <pt x="509" y="766" on="0"/>
        <pt x="509" y="724" on="0"/>
        <pt x="479" y="697" on="0"/>
        <pt x="431" y="697" on="0"/>
      </contour>
    </TTGlyph>
    <TTGlyph name="Ugrave" xMin="35" yMin="-10" xMax="626" yMax="830">
      <component glyphName="U" x="0" y="0" flags="0x1004"/>
      <component glyphName="grave" x="74" y="177" flags="0x1004"/>
    </TTGlyph>
    <TTGlyph name="V" xMin="-5" yMin="-4" xMax="604" yMax="597">
      <contour>
        <pt x="23" y="569" on="1"/>
        <pt x="-5" y="567" on="1"/>
        <pt x="-5" y="597" on="1"/>
        <pt x="210" y="597" on="1"/>
        <pt x="210" y="567" on="1"/>
        <pt x="157" y="569" on="1"/>
        <pt x="150" y="569" on="0"/>
        <pt x="145" y="553" on="0"/>
        <pt x="148" y="545" on="1"/>
        <pt x="329" y="129" on="1"/>
        <pt x="503" y="534" on="1"/>
        <pt x="507" y="546" on="1"/>
        <pt x="514" y="569" on="0"/>
        <pt x="498" y="569" on="1"/>
        <pt x="447" y="567" on="1"/>
        <pt x="447" y="597" on="1"/>
        <pt x="604" y="597" on="1"/>
        <pt x="604" y="567" on="1"/>
        <pt x="568" y="569" on="1"/>
        <pt x="560" y="570" on="0"/>
        <pt x="553" y="560" on="0"/>
        <pt x="547" y="546" on="1"/>
        <pt x="309" y="-4" on="1"/>
        <pt x="283" y="-4" on="1"/>
        <pt x="46" y="546" on="1"/>
        <pt x="35" y="569" on="0"/>
      </contour>
    </TTGlyph>
    <TTGlyph name="W" xMin="-5" yMin="-10" xMax="904" yMax="597">
      <contour>
        <pt x="23" y="569" on="1"/>
        <pt x="-5" y="567" on="1"/>
        <pt x="-5" y="597" on="1"/>
        <pt x="211" y="597" on="1"/>
        <pt x="211" y="567" on="1"/>
        <pt x="158" y="569" on="1"/>
        <pt x="145" y="570" on="0"/>
        <pt x="145" y="558" on="1"/>
        <pt x="145" y="556" on="0"/>
        <pt x="148" y="547" on="1"/>
        <pt x="297" y="155" on="1"/>
        <pt x="423" y="545" on="1"/>
        <pt x="425" y="553" on="0"/>
        <pt x="425" y="555" on="1"/>
        <pt x="425" y="569" on="0"/>
        <pt x="406" y="569" on="1"/>
        <pt x="402" y="569" on="1"/>
        <pt x="365" y="567" on="1"/>
        <pt x="365" y="597" on="1"/>
        <pt x="573" y="597" on="1"/>
        <pt x="573" y="567" on="1"/>
        <pt x="531" y="569" on="1"/>
        <pt x="523" y="571" on="0"/>
        <pt x="518" y="553" on="0"/>
        <pt x="521" y="547" on="1"/>
        <pt x="685" y="141" on="1"/>
        <pt x="814" y="549" on="1"/>
        <pt x="817" y="557" on="0"/>
        <pt x="811" y="570" on="0"/>
        <pt x="803" y="569" on="1"/>
        <pt x="751" y="567" on="1"/>
        <pt x="751" y="597" on="1"/>
        <pt x="904" y="597" on="1"/>
        <pt x="904" y="567" on="1"/>
        <pt x="874" y="569" on="1"/>
        <pt x="873" y="569" on="0"/>
        <pt x="872" y="569" on="1"/>
        <pt x="856" y="569" on="0"/>
        <pt x="849" y="548" on="1"/>
        <pt x="668" y="-10" on="1"/>
        <pt x="652" y="-10" on="1"/>
        <pt x="446" y="510" on="1"/>
        <pt x="276" y="-10" on="1"/>
        <pt x="257" y="-10" on="1"/>
        <pt x="46" y="547" on="1"/>
        <pt x="39" y="569" on="0"/>
        <pt x="25" y="569" on="1"/>
      </contour>
    </TTGlyph>
    <TTGlyph name="X" xMin="30" yMin="0" xMax="578" yMax="597">
      <contour>
        <pt x="189" y="0" on="1"/>
        <pt x="30" y="0" on="1"/>
        <pt x="30" y="30" on="1"/>
        <pt x="63" y="28" on="1"/>
        <pt x="66" y="28" on="1"/>
        <pt x="87" y="28" on="0"/>
        <pt x="100" y="50" on="1"/>
        <pt x="254" y="296" on="1"/>
        <pt x="103" y="550" on="1"/>
        <pt x="93" y="569" on="0"/>
        <pt x="71" y="569" on="1"/>
        <pt x="39" y="567" on="1"/>
        <pt x="39" y="597" on="1"/>
        <pt x="267" y="597" on="1"/>
        <pt x="267" y="567" on="1"/>
        <pt x="225" y="569" on="1"/>
        <pt x="213" y="570" on="0"/>
        <pt x="205" y="555" on="0"/>
        <pt x="211" y="548" on="1"/>
        <pt x="320" y="361" on="1"/>
        <pt x="439" y="549" on="1"/>
        <pt x="445" y="557" on="0"/>
        <pt x="442" y="570" on="0"/>
        <pt x="431" y="569" on="1"/>
        <pt x="388" y="567" on="1"/>
        <pt x="388" y="597" on="1"/>
        <pt x="540" y="597" on="1"/>
        <pt x="540" y="567" on="1"/>
        <pt x="512" y="569" on="1"/>
        <pt x="509" y="569" on="1"/>
        <pt x="492" y="569" on="0"/>
        <pt x="478" y="549" on="1"/>
        <pt x="340" y="328" on="1"/>
        <pt x="509" y="44" on="1"/>
        <pt x="518" y="27" on="0"/>
        <pt x="537" y="27" on="1"/>
        <pt x="538" y="27" on="0"/>
        <pt x="539" y="27" on="1"/>
        <pt x="578" y="30" on="1"/>
        <pt x="578" y="0" on="1"/>
        <pt x="343" y="0" on="1"/>
        <pt x="343" y="30" on="1"/>
        <pt x="392" y="27" on="1"/>
        <pt x="403" y="26" on="0"/>
        <pt x="406" y="42" on="0"/>
        <pt x="399" y="50" on="1"/>
        <pt x="273" y="263" on="1"/>
        <pt x="138" y="47" on="1"/>
        <pt x="133" y="38" on="0"/>
        <pt x="138" y="26" on="0"/>
        <pt x="144" y="27" on="1"/>
        <pt x="189" y="30" on="1"/>
      </contour>
    </TTGlyph>
    <TTGlyph name="Y" xMin="-5" yMin="0" xMax="517" yMax="597">
      <contour>
        <pt x="22" y="569" on="1"/>
        <pt x="-5" y="567" on="1"/>
        <pt x="-5" y="597" on="1"/>
        <pt x="216" y="597" on="1"/>
        <pt x="216" y="567" on="1"/>
        <pt x="163" y="569" on="1"/>
        <pt x="153" y="570" on="0"/>
        <pt x="150" y="553" on="0"/>
        <pt x="156" y="545" on="1"/>
        <pt x="293" y="317" on="1"/>
        <pt x="424" y="549" on="1"/>
        <pt x="434" y="569" on="0"/>
        <pt x="417" y="569" on="1"/>
        <pt x="365" y="567" on="1"/>
        <pt x="365" y="597" on="1"/>
        <pt x="517" y="597" on="1"/>
        <pt x="517" y="567" on="1"/>
        <pt x="488" y="569" on="1"/>
        <pt x="487" y="569" on="1"/>
        <pt x="471" y="569" on="0"/>
        <pt x="459" y="548" on="1"/>
        <pt x="313" y="288" on="1"/>
        <pt x="313" y="48" on="1"/>
        <pt x="313" y="27" on="0"/>
        <pt x="333" y="27" on="1"/>
        <pt x="381" y="29" on="1"/>
        <pt x="381" y="0" on="1"/>
        <pt x="152" y="0" on="1"/>
        <pt x="152" y="29" on="1"/>
        <pt x="201" y="27" on="1"/>
        <pt x="220" y="27" on="0"/>
        <pt x="220" y="49" on="1"/>
        <pt x="220" y="263" on="1"/>
        <pt x="47" y="550" on="1"/>
        <pt x="37" y="569" on="0"/>
        <pt x="23" y="569" on="1"/>
      </contour>
    </TTGlyph>
    <TTGlyph name="Yacute" xMin="-5" yMin="0" xMax="517" yMax="839">
      <component glyphName="Y" x="0" y="0" flags="0x1004"/>
      <component glyphName="acute" x="97" y="177" flags="0x1004"/>
    </TTGlyph>
    <TTGlyph name="Ydieresis" xMin="-5" yMin="0" xMax="517" yMax="794">
      <component glyphName="Y" x="0" y="0" flags="0x1004"/>
      <component glyphName="dieresis" x="58" y="177" flags="0x1004"/>
    </TTGlyph>
    <TTGlyph name="Z" xMin="34" yMin="-4" xMax="492" yMax="600">
      <contour>
        <pt x="371" y="0" on="1"/>
        <pt x="34" y="0" on="1"/>
        <pt x="34" y="27" on="1"/>
        <pt x="354" y="569" on="1"/>
        <pt x="203" y="569" on="1"/>
        <pt x="131" y="569" on="0"/>
        <pt x="62" y="508" on="0"/>
        <pt x="62" y="443" on="1"/>
        <pt x="35" y="443" on="1"/>
        <pt x="35" y="600" on="1"/>
        <pt x="47" y="600" on="1"/>
        <pt x="52" y="600" on="0"/>
        <pt x="76" y="598" on="1"/>
        <pt x="112" y="598" on="1"/>
        <pt x="135" y="598" on="0"/>
        <pt x="144" y="597" on="1"/>
        <pt x="464" y="597" on="1"/>
        <pt x="464" y="573" on="1"/>
        <pt x="141" y="27" on="1"/>
        <pt x="315" y="27" on="1"/>
        <pt x="384" y="27" on="0"/>
        <pt x="465" y="102" on="0"/>
        <pt x="465" y="167" on="1"/>
        <pt x="492" y="167" on="1"/>
        <pt x="484" y="-4" on="1"/>
        <pt x="472" y="0" on="0"/>
      </contour>
    </TTGlyph>
    <TTGlyph name="Zcaron" xMin="34" yMin="-4" xMax="492" yMax="861">
      <contour>
        <pt x="371" y="0" on="1"/>
        <pt x="34" y="0" on="1"/>
        <pt x="34" y="27" on="1"/>
        <pt x="354" y="569" on="1"/>
        <pt x="203" y="569" on="1"/>
        <pt x="131" y="569" on="0"/>
        <pt x="62" y="508" on="0"/>
        <pt x="62" y="443" on="1"/>
        <pt x="35" y="443" on="1"/>
        <pt x="35" y="600" on="1"/>
        <pt x="47" y="600" on="1"/>
        <pt x="76" y="598" on="1"/>
        <pt x="112" y="598" on="1"/>
        <pt x="125" y="597" on="0"/>
        <pt x="144" y="597" on="1"/>
        <pt x="464" y="597" on="1"/>
        <pt x="464" y="573" on="1"/>
        <pt x="141" y="27" on="1"/>
        <pt x="315" y="27" on="1"/>
        <pt x="384" y="27" on="0"/>
        <pt x="465" y="102" on="0"/>
        <pt x="465" y="167" on="1"/>
        <pt x="492" y="167" on="1"/>
        <pt x="484" y="-4" on="1"/>
        <pt x="472" y="0" on="0"/>
      </contour>
      <contour>
        <pt x="100" y="853" on="1"/>
        <pt x="100" y="861" on="0"/>
        <pt x="118" y="861" on="0"/>
        <pt x="137" y="849" on="1"/>
        <pt x="256" y="775" on="1"/>
        <pt x="375" y="849" on="1"/>
        <pt x="394" y="861" on="0"/>
        <pt x="412" y="861" on="0"/>
        <pt x="412" y="853" on="1"/>
        <pt x="412" y="849" on="0"/>
        <pt x="391" y="831" on="0"/>
        <pt x="350" y="796" on="0"/>
        <pt x="333" y="778" on="1"/>
        <pt x="286" y="730" on="1"/>
        <pt x="259" y="705" on="0"/>
        <pt x="253" y="705" on="0"/>
        <pt x="226" y="730" on="1"/>
        <pt x="179" y="778" on="1"/>
        <pt x="162" y="796" on="0"/>
        <pt x="121" y="831" on="0"/>
        <pt x="100" y="849" on="0"/>
      </contour>
    </TTGlyph>
    <TTGlyph name="a" xMin="27" yMin="-5" xMax="430" yMax="430">
      <contour>
        <pt x="27" y="105" on="1"/>
        <pt x="27" y="184" on="0"/>
        <pt x="154" y="258" on="0"/>
        <pt x="294" y="258" on="1"/>
        <pt x="294" y="316" on="1"/>
        <pt x="294" y="361" on="0"/>
        <pt x="251" y="403" on="0"/>
        <pt x="206" y="403" on="1"/>
        <pt x="131" y="403" on="0"/>
        <pt x="131" y="359" on="1"/>
        <pt x="131" y="351" on="0"/>
        <pt x="141" y="331" on="0"/>
        <pt x="141" y="307" on="0"/>
        <pt x="114" y="290" on="0"/>
        <pt x="93" y="290" on="1"/>
        <pt x="49" y="290" on="0"/>
        <pt x="49" y="380" on="0"/>
        <pt x="128" y="430" on="0"/>
        <pt x="294" y="430" on="0"/>
        <pt x="380" y="362" on="0"/>
        <pt x="380" y="289" on="1"/>
        <pt x="380" y="43" on="1"/>
        <pt x="380" y="24" on="0"/>
        <pt x="393" y="24" on="1"/>
        <pt x="430" y="26" on="1"/>
        <pt x="430" y="0" on="1"/>
        <pt x="288" y="0" on="1"/>
        <pt x="290" y="13" on="0"/>
        <pt x="292" y="37" on="1"/>
        <pt x="294" y="76" on="1"/>
        <pt x="253" y="-5" on="0"/>
        <pt x="159" y="-5" on="1"/>
        <pt x="27" y="-5" on="0"/>
      </contour>
      <contour>
        <pt x="118" y="112" on="1"/>
        <pt x="118" y="74" on="0"/>
        <pt x="154" y="31" on="0"/>
        <pt x="186" y="31" on="1"/>
        <pt x="232" y="31" on="0"/>
        <pt x="294" y="111" on="0"/>
        <pt x="294" y="173" on="1"/>
        <pt x="294" y="231" on="1"/>
        <pt x="198" y="231" on="0"/>
        <pt x="118" y="176" on="0"/>
      </contour>
    </TTGlyph>
    <TTGlyph name="aacute" xMin="27" yMin="-5" xMax="430" yMax="662">
      <contour>
        <pt x="27" y="105" on="1"/>
        <pt x="27" y="184" on="0"/>
        <pt x="154" y="258" on="0"/>
        <pt x="294" y="258" on="1"/>
        <pt x="294" y="316" on="1"/>
        <pt x="294" y="361" on="0"/>
        <pt x="251" y="403" on="0"/>
        <pt x="206" y="403" on="1"/>
        <pt x="131" y="403" on="0"/>
        <pt x="131" y="359" on="1"/>
        <pt x="131" y="351" on="0"/>
        <pt x="141" y="331" on="0"/>
        <pt x="141" y="307" on="0"/>
        <pt x="114" y="290" on="0"/>
        <pt x="93" y="290" on="1"/>
        <pt x="49" y="290" on="0"/>
        <pt x="49" y="380" on="0"/>
        <pt x="128" y="430" on="0"/>
        <pt x="294" y="430" on="0"/>
        <pt x="380" y="362" on="0"/>
        <pt x="380" y="289" on="1"/>
        <pt x="380" y="43" on="1"/>
        <pt x="380" y="24" on="0"/>
        <pt x="393" y="24" on="1"/>
        <pt x="430" y="26" on="1"/>
        <pt x="430" y="0" on="1"/>
        <pt x="288" y="0" on="1"/>
        <pt x="290" y="13" on="0"/>
        <pt x="292" y="37" on="1"/>
        <pt x="294" y="76" on="1"/>
        <pt x="253" y="-5" on="0"/>
        <pt x="159" y="-5" on="1"/>
        <pt x="27" y="-5" on="0"/>
      </contour>
      <contour>
        <pt x="118" y="112" on="1"/>
        <pt x="118" y="74" on="0"/>
        <pt x="154" y="31" on="0"/>
        <pt x="186" y="31" on="1"/>
        <pt x="232" y="31" on="0"/>
        <pt x="294" y="111" on="0"/>
        <pt x="294" y="173" on="1"/>
        <pt x="294" y="231" on="1"/>
        <pt x="198" y="231" on="0"/>
        <pt x="118" y="176" on="0"/>
      </contour>
      <contour>
        <pt x="130" y="511" on="1"/>
        <pt x="130" y="515" on="0"/>
        <pt x="135" y="520" on="1"/>
        <pt x="241" y="637" on="1"/>
        <pt x="260" y="659" on="0"/>
        <pt x="271" y="663" on="0"/>
        <pt x="286" y="661" on="0"/>
        <pt x="322" y="653" on="0"/>
        <pt x="335" y="647" on="0"/>
        <pt x="335" y="632" on="0"/>
        <pt x="329" y="627" on="1"/>
        <pt x="153" y="506" on="1"/>
        <pt x="150" y="503" on="0"/>
        <pt x="130" y="503" on="0"/>
      </contour>
    </TTGlyph>
    <TTGlyph name="acircumflex" xMin="27" yMin="-5" xMax="430" yMax="634">
      <component glyphName="a" x="0" y="0" flags="0x1004"/>
      <component glyphName="circumflex" x="20" y="0" flags="0x1004"/>
    </TTGlyph>
    <TTGlyph name="acute" xMin="108" yMin="503" xMax="313" yMax="662">
      <contour>
        <pt x="108" y="511" on="1"/>
        <pt x="108" y="515" on="0"/>
        <pt x="113" y="520" on="1"/>
        <pt x="219" y="637" on="1"/>
        <pt x="238" y="659" on="0"/>
        <pt x="249" y="663" on="0"/>
        <pt x="264" y="661" on="0"/>
        <pt x="300" y="653" on="0"/>
        <pt x="313" y="647" on="0"/>
        <pt x="313" y="632" on="0"/>
        <pt x="307" y="627" on="1"/>
        <pt x="131" y="506" on="1"/>
        <pt x="128" y="503" on="0"/>
        <pt x="108" y="503" on="0"/>
      </contour>
    </TTGlyph>
    <TTGlyph name="adieresis" xMin="27" yMin="-5" xMax="430" yMax="617">
      <component glyphName="a" x="0" y="0" flags="0x1004"/>
      <component glyphName="dieresis" x="0" y="0" flags="0x1004"/>
    </TTGlyph>
    <TTGlyph name="ae" xMin="27" yMin="-10" xMax="675" yMax="430">
      <contour>
        <pt x="131" y="359" on="1"/>
        <pt x="141" y="321" on="1"/>
        <pt x="141" y="307" on="0"/>
        <pt x="113" y="290" on="0"/>
        <pt x="94" y="290" on="1"/>
        <pt x="49" y="290" on="0"/>
        <pt x="49" y="381" on="0"/>
        <pt x="130" y="430" on="0"/>
        <pt x="210" y="430" on="1"/>
        <pt x="315" y="430" on="0"/>
        <pt x="351" y="380" on="1"/>
        <pt x="405" y="430" on="0"/>
        <pt x="496" y="430" on="1"/>
        <pt x="675" y="430" on="0"/>
        <pt x="675" y="217" on="1"/>
        <pt x="381" y="217" on="1"/>
        <pt x="381" y="127" on="0"/>
        <pt x="449" y="23" on="0"/>
        <pt x="514" y="23" on="1"/>
        <pt x="553" y="23" on="0"/>
        <pt x="632" y="73" on="0"/>
        <pt x="650" y="110" on="1"/>
        <pt x="674" y="92" on="1"/>
        <pt x="653" y="45" on="0"/>
        <pt x="562" y="-10" on="0"/>
        <pt x="508" y="-10" on="1"/>
        <pt x="365" y="-10" on="0"/>
        <pt x="318" y="87" on="1"/>
        <pt x="270" y="-5" on="0"/>
        <pt x="172" y="-5" on="1"/>
        <pt x="106" y="-5" on="0"/>
        <pt x="27" y="46" on="0"/>
        <pt x="27" y="98" on="1"/>
        <pt x="27" y="178" on="0"/>
        <pt x="155" y="242" on="0"/>
        <pt x="294" y="242" on="1"/>
        <pt x="294" y="313" on="1"/>
        <pt x="294" y="358" on="0"/>
        <pt x="255" y="403" on="0"/>
        <pt x="210" y="403" on="1"/>
        <pt x="131" y="403" on="0"/>
      </contour>
      <contour>
        <pt x="118" y="93" on="1"/>
        <pt x="118" y="28" on="0"/>
        <pt x="191" y="28" on="1"/>
        <pt x="232" y="28" on="0"/>
        <pt x="294" y="113" on="0"/>
        <pt x="294" y="177" on="1"/>
        <pt x="294" y="217" on="1"/>
        <pt x="202" y="217" on="0"/>
        <pt x="118" y="155" on="0"/>
      </contour>
      <contour>
        <pt x="381" y="242" on="1"/>
        <pt x="580" y="242" on="1"/>
        <pt x="590" y="242" on="0"/>
        <pt x="590" y="270" on="1"/>
        <pt x="590" y="403" on="0"/>
        <pt x="501" y="403" on="1"/>
        <pt x="439" y="403" on="0"/>
        <pt x="381" y="324" on="0"/>
      </contour>
    </TTGlyph>
    <TTGlyph name="agrave" xMin="27" yMin="-5" xMax="430" yMax="653">
      <component glyphName="a" x="0" y="0" flags="0x1004"/>
      <component glyphName="grave" x="-58" y="0" flags="0x1004"/>
    </TTGlyph>
    <TTGlyph name="ampersand" xMin="22" yMin="-10" xMax="625" yMax="606">
      <contour>
        <pt x="22" y="163" on="1"/>
        <pt x="22" y="267" on="0"/>
        <pt x="105" y="326" on="1"/>
        <pt x="178" y="378" on="1"/>
        <pt x="132" y="437" on="0"/>
        <pt x="132" y="540" on="0"/>
        <pt x="208" y="606" on="0"/>
        <pt x="262" y="606" on="1"/>
        <pt x="386" y="606" on="0"/>
        <pt x="386" y="503" on="1"/>
        <pt x="386" y="478" on="0"/>
        <pt x="363" y="430" on="0"/>
        <pt x="344" y="419" on="1"/>
        <pt x="287" y="383" on="1"/>
        <pt x="428" y="191" on="1"/>
        <pt x="461" y="271" on="0"/>
        <pt x="461" y="349" on="1"/>
        <pt x="461" y="372" on="0"/>
        <pt x="447" y="372" on="1"/>
        <pt x="401" y="370" on="1"/>
        <pt x="401" y="399" on="1"/>
        <pt x="552" y="399" on="1"/>
        <pt x="552" y="370" on="1"/>
        <pt x="506" y="372" on="1"/>
        <pt x="493" y="372" on="0"/>
        <pt x="493" y="350" on="1"/>
        <pt x="493" y="255" on="0"/>
        <pt x="449" y="161" on="1"/>
        <pt x="539" y="39" on="1"/>
        <pt x="549" y="26" on="0"/>
        <pt x="569" y="26" on="1"/>
        <pt x="625" y="28" on="1"/>
        <pt x="625" y="0" on="1"/>
        <pt x="458" y="0" on="1"/>
        <pt x="398" y="81" on="1"/>
        <pt x="366" y="38" on="0"/>
        <pt x="284" y="-10" on="0"/>
        <pt x="136" y="-10" on="0"/>
        <pt x="22" y="83" on="0"/>
      </contour>
      <contour>
        <pt x="148" y="311" on="0"/>
        <pt x="111" y="221" on="0"/>
        <pt x="111" y="108" on="0"/>
        <pt x="187" y="21" on="0"/>
        <pt x="244" y="21" on="1"/>
        <pt x="320" y="21" on="0"/>
        <pt x="380" y="105" on="1"/>
        <pt x="199" y="350" on="1"/>
        <pt x="182" y="336" on="1"/>
      </contour>
      <contour>
        <pt x="243" y="578" on="0"/>
        <pt x="209" y="541" on="0"/>
        <pt x="209" y="487" on="0"/>
        <pt x="228" y="461" on="1"/>
        <pt x="266" y="411" on="1"/>
        <pt x="310" y="447" on="1"/>
        <pt x="330" y="467" on="0"/>
        <pt x="330" y="535" on="0"/>
        <pt x="291" y="578" on="0"/>
      </contour>
    </TTGlyph>
    <TTGlyph name="aring" xMin="27" yMin="-5" xMax="430" yMax="642">
      <contour>
        <pt x="27" y="105" on="1"/>
        <pt x="27" y="184" on="0"/>
        <pt x="154" y="258" on="0"/>
        <pt x="294" y="258" on="1"/>
        <pt x="294" y="316" on="1"/>
        <pt x="294" y="361" on="0"/>
        <pt x="251" y="403" on="0"/>
        <pt x="206" y="403" on="1"/>
        <pt x="131" y="403" on="0"/>
        <pt x="131" y="359" on="1"/>
        <pt x="131" y="351" on="0"/>
        <pt x="141" y="331" on="0"/>
        <pt x="141" y="307" on="0"/>
        <pt x="114" y="290" on="0"/>
        <pt x="93" y="290" on="1"/>
        <pt x="49" y="290" on="0"/>
        <pt x="49" y="380" on="0"/>
        <pt x="128" y="430" on="0"/>
        <pt x="294" y="430" on="0"/>
        <pt x="380" y="362" on="0"/>
        <pt x="380" y="289" on="1"/>
        <pt x="380" y="43" on="1"/>
        <pt x="380" y="24" on="0"/>
        <pt x="393" y="24" on="1"/>
        <pt x="430" y="26" on="1"/>
        <pt x="430" y="0" on="1"/>
        <pt x="288" y="0" on="1"/>
        <pt x="290" y="13" on="0"/>
        <pt x="292" y="37" on="1"/>
        <pt x="294" y="76" on="1"/>
        <pt x="253" y="-5" on="0"/>
        <pt x="159" y="-5" on="1"/>
        <pt x="27" y="-5" on="0"/>
      </contour>
      <contour>
        <pt x="118" y="112" on="1"/>
        <pt x="118" y="74" on="0"/>
        <pt x="154" y="31" on="0"/>
        <pt x="186" y="31" on="1"/>
        <pt x="232" y="31" on="0"/>
        <pt x="294" y="111" on="0"/>
        <pt x="294" y="173" on="1"/>
        <pt x="294" y="231" on="1"/>
        <pt x="198" y="231" on="0"/>
        <pt x="118" y="176" on="0"/>
      </contour>
      <contour>
        <pt x="177" y="479" on="0"/>
        <pt x="129" y="526" on="0"/>
        <pt x="129" y="595" on="0"/>
        <pt x="178" y="642" on="0"/>
        <pt x="248" y="642" on="0"/>
        <pt x="296" y="596" on="0"/>
        <pt x="296" y="526" on="0"/>
        <pt x="247" y="479" on="0"/>
      </contour>
      <contour>
        <pt x="171" y="579" on="0"/>
        <pt x="171" y="543" on="0"/>
        <pt x="195" y="515" on="0"/>
        <pt x="229" y="515" on="0"/>
        <pt x="254" y="543" on="0"/>
        <pt x="254" y="579" on="0"/>
        <pt x="229" y="606" on="0"/>
        <pt x="195" y="606" on="0"/>
      </contour>
    </TTGlyph>
    <TTGlyph name="asciicircum" xMin="18" yMin="321" xMax="442" yMax="657">
      <contour>
        <pt x="64" y="321" on="1"/>
        <pt x="18" y="321" on="1"/>
        <pt x="219" y="657" on="1"/>
        <pt x="242" y="657" on="1"/>
        <pt x="442" y="321" on="1"/>
        <pt x="395" y="321" on="1"/>
        <pt x="250" y="566" on="1"/>
        <pt x="230" y="608" on="1"/>
        <pt x="211" y="566" on="1"/>
      </contour>
    </TTGlyph>
    <TTGlyph name="asciitilde" xMin="22" yMin="215" xMax="439" yMax="328">
      <contour>
        <pt x="49" y="226" on="1"/>
        <pt x="22" y="255" on="1"/>
        <pt x="65" y="328" on="0"/>
        <pt x="131" y="328" on="1"/>
        <pt x="164" y="328" on="0"/>
        <pt x="295" y="263" on="0"/>
        <pt x="350" y="263" on="0"/>
        <pt x="388" y="289" on="0"/>
        <pt x="411" y="322" on="1"/>
        <pt x="439" y="293" on="1"/>
        <pt x="392" y="215" on="0"/>
        <pt x="325" y="215" on="1"/>
        <pt x="293" y="215" on="0"/>
        <pt x="161" y="280" on="0"/>
        <pt x="105" y="280" on="0"/>
        <pt x="72" y="259" on="0"/>
      </contour>
    </TTGlyph>
    <TTGlyph name="asterisk" xMin="20" yMin="354" xMax="318" yMax="630">
      <contour>
        <pt x="141" y="405" on="1"/>
        <pt x="147" y="383" on="1"/>
        <pt x="147" y="370" on="0"/>
        <pt x="127" y="354" on="0"/>
        <pt x="106" y="354" on="0"/>
        <pt x="71" y="380" on="0"/>
        <pt x="71" y="407" on="0"/>
        <pt x="87" y="421" on="0"/>
        <pt x="95" y="422" on="1"/>
        <pt x="113" y="423" on="0"/>
        <pt x="135" y="462" on="0"/>
        <pt x="135" y="473" on="1"/>
        <pt x="123" y="478" on="0"/>
        <pt x="82" y="478" on="0"/>
        <pt x="63" y="454" on="0"/>
        <pt x="34" y="454" on="0"/>
        <pt x="20" y="470" on="0"/>
        <pt x="20" y="514" on="0"/>
        <pt x="34" y="530" on="0"/>
        <pt x="63" y="530" on="0"/>
        <pt x="82" y="506" on="0"/>
        <pt x="123" y="506" on="0"/>
        <pt x="135" y="511" on="1"/>
        <pt x="135" y="522" on="0"/>
        <pt x="116" y="556" on="0"/>
        <pt x="104" y="561" on="1"/>
        <pt x="101" y="562" on="0"/>
        <pt x="94" y="564" on="1"/>
        <pt x="71" y="568" on="0"/>
        <pt x="71" y="593" on="1"/>
        <pt x="71" y="605" on="0"/>
        <pt x="104" y="630" on="0"/>
        <pt x="127" y="630" on="0"/>
        <pt x="147" y="614" on="0"/>
        <pt x="147" y="601" on="1"/>
        <pt x="141" y="579" on="1"/>
        <pt x="141" y="570" on="0"/>
        <pt x="160" y="537" on="0"/>
        <pt x="169" y="531" on="1"/>
        <pt x="179" y="537" on="0"/>
        <pt x="196" y="570" on="0"/>
        <pt x="196" y="579" on="1"/>
        <pt x="191" y="601" on="1"/>
        <pt x="191" y="614" on="0"/>
        <pt x="211" y="630" on="0"/>
        <pt x="232" y="630" on="0"/>
        <pt x="267" y="603" on="0"/>
        <pt x="267" y="594" on="1"/>
        <pt x="267" y="573" on="0"/>
        <pt x="254" y="566" on="1"/>
        <pt x="251" y="565" on="0"/>
        <pt x="244" y="564" on="1"/>
        <pt x="225" y="562" on="0"/>
        <pt x="204" y="524" on="0"/>
        <pt x="202" y="511" on="1"/>
        <pt x="214" y="506" on="0"/>
        <pt x="256" y="506" on="0"/>
        <pt x="275" y="530" on="0"/>
        <pt x="304" y="530" on="0"/>
        <pt x="318" y="514" on="0"/>
        <pt x="318" y="470" on="0"/>
        <pt x="304" y="454" on="0"/>
        <pt x="275" y="454" on="0"/>
        <pt x="256" y="478" on="0"/>
        <pt x="214" y="478" on="0"/>
        <pt x="202" y="473" on="1"/>
        <pt x="202" y="462" on="0"/>
        <pt x="223" y="428" on="0"/>
        <pt x="235" y="422" on="0"/>
        <pt x="242" y="421" on="1"/>
        <pt x="267" y="417" on="0"/>
        <pt x="267" y="390" on="1"/>
        <pt x="267" y="381" on="0"/>
        <pt x="233" y="354" on="0"/>
        <pt x="211" y="354" on="0"/>
        <pt x="191" y="370" on="0"/>
        <pt x="191" y="383" on="1"/>
        <pt x="196" y="405" on="1"/>
        <pt x="196" y="414" on="0"/>
        <pt x="178" y="447" on="0"/>
        <pt x="169" y="453" on="1"/>
        <pt x="158" y="445" on="0"/>
        <pt x="141" y="414" on="0"/>
      </contour>
    </TTGlyph>
    <TTGlyph name="at" xMin="26" yMin="-145" xMax="714" yMax="596">
      <contour>
        <pt x="26" y="178" on="1"/>
        <pt x="26" y="285" on="0"/>
        <pt x="127" y="477" on="0"/>
        <pt x="311" y="596" on="0"/>
        <pt x="546" y="596" on="0"/>
        <pt x="714" y="429" on="0"/>
        <pt x="714" y="306" on="1"/>
        <pt x="714" y="231" on="0"/>
        <pt x="633" y="88" on="0"/>
        <pt x="499" y="-10" on="0"/>
        <pt x="459" y="-10" on="1"/>
        <pt x="435" y="-10" on="0"/>
        <pt x="435" y="85" on="0"/>
        <pt x="459" y="187" on="1"/>
        <pt x="402" y="79" on="0"/>
        <pt x="312" y="-10" on="0"/>
        <pt x="220" y="-10" on="0"/>
        <pt x="172" y="55" on="0"/>
        <pt x="172" y="182" on="0"/>
        <pt x="245" y="329" on="0"/>
        <pt x="371" y="430" on="0"/>
        <pt x="439" y="430" on="1"/>
        <pt x="477" y="430" on="0"/>
        <pt x="496" y="391" on="1"/>
        <pt x="501" y="411" on="1"/>
        <pt x="593" y="428" on="1"/>
        <pt x="570" y="330" on="1"/>
        <pt x="528" y="139" on="0"/>
        <pt x="528" y="92" on="1"/>
        <pt x="528" y="75" on="0"/>
        <pt x="541" y="75" on="1"/>
        <pt x="559" y="75" on="0"/>
        <pt x="622" y="134" on="0"/>
        <pt x="643" y="165" on="1"/>
        <pt x="683" y="229" on="0"/>
        <pt x="683" y="305" on="1"/>
        <pt x="683" y="413" on="0"/>
        <pt x="531" y="567" on="0"/>
        <pt x="318" y="567" on="0"/>
        <pt x="160" y="453" on="0"/>
        <pt x="82" y="261" on="0"/>
        <pt x="82" y="173" on="1"/>
        <pt x="82" y="43" on="0"/>
        <pt x="246" y="-116" on="0"/>
        <pt x="385" y="-116" on="1"/>
        <pt x="474" y="-116" on="0"/>
        <pt x="611" y="-57" on="0"/>
        <pt x="676" y="9" on="1"/>
        <pt x="694" y="-13" on="1"/>
        <pt x="625" y="-84" on="0"/>
        <pt x="475" y="-145" on="0"/>
        <pt x="376" y="-145" on="1"/>
        <pt x="216" y="-145" on="0"/>
        <pt x="26" y="29" on="0"/>
      </contour>
      <contour>
        <pt x="261" y="123" on="1"/>
        <pt x="261" y="45" on="0"/>
        <pt x="311" y="45" on="1"/>
        <pt x="331" y="45" on="0"/>
        <pt x="414" y="145" on="0"/>
        <pt x="484" y="293" on="0"/>
        <pt x="484" y="348" on="1"/>
        <pt x="484" y="369" on="0"/>
        <pt x="459" y="400" on="0"/>
        <pt x="441" y="400" on="1"/>
        <pt x="393" y="400" on="0"/>
        <pt x="311" y="314" on="0"/>
        <pt x="261" y="177" on="0"/>
      </contour>
    </TTGlyph>
    <TTGlyph name="atilde" xMin="27" yMin="-5" xMax="430" yMax="616">
      <contour>
        <pt x="27" y="105" on="1"/>
        <pt x="27" y="184" on="0"/>
        <pt x="154" y="258" on="0"/>
        <pt x="294" y="258" on="1"/>
        <pt x="294" y="316" on="1"/>
        <pt x="294" y="361" on="0"/>
        <pt x="251" y="403" on="0"/>
        <pt x="206" y="403" on="1"/>
        <pt x="131" y="403" on="0"/>
        <pt x="131" y="359" on="1"/>
        <pt x="131" y="351" on="0"/>
        <pt x="141" y="331" on="0"/>
        <pt x="141" y="307" on="0"/>
        <pt x="114" y="290" on="0"/>
        <pt x="93" y="290" on="1"/>
        <pt x="49" y="290" on="0"/>
        <pt x="49" y="380" on="0"/>
        <pt x="128" y="430" on="0"/>
        <pt x="294" y="430" on="0"/>
        <pt x="380" y="362" on="0"/>
        <pt x="380" y="289" on="1"/>
        <pt x="380" y="43" on="1"/>
        <pt x="380" y="24" on="0"/>
        <pt x="393" y="24" on="1"/>
        <pt x="430" y="26" on="1"/>
        <pt x="430" y="0" on="1"/>
        <pt x="288" y="0" on="1"/>
        <pt x="290" y="13" on="0"/>
        <pt x="292" y="37" on="1"/>
        <pt x="294" y="76" on="1"/>
        <pt x="253" y="-5" on="0"/>
        <pt x="159" y="-5" on="1"/>
        <pt x="27" y="-5" on="0"/>
      </contour>
      <contour>
        <pt x="118" y="112" on="1"/>
        <pt x="118" y="74" on="0"/>
        <pt x="154" y="31" on="0"/>
        <pt x="186" y="31" on="1"/>
        <pt x="232" y="31" on="0"/>
        <pt x="294" y="111" on="0"/>
        <pt x="294" y="173" on="1"/>
        <pt x="294" y="231" on="1"/>
        <pt x="198" y="231" on="0"/>
        <pt x="118" y="176" on="0"/>
      </contour>
      <contour>
        <pt x="102" y="525" on="1"/>
        <pt x="82" y="525" on="1"/>
        <pt x="82" y="562" on="0"/>
        <pt x="119" y="616" on="0"/>
        <pt x="168" y="616" on="0"/>
        <pt x="296" y="573" on="0"/>
        <pt x="329" y="573" on="0"/>
        <pt x="348" y="597" on="0"/>
        <pt x="348" y="615" on="1"/>
        <pt x="368" y="615" on="1"/>
        <pt x="368" y="578" on="0"/>
        <pt x="331" y="524" on="0"/>
        <pt x="282" y="524" on="0"/>
        <pt x="154" y="567" on="0"/>
        <pt x="121" y="567" on="0"/>
        <pt x="102" y="543" on="0"/>
      </contour>
    </TTGlyph>
    <TTGlyph name="b" xMin="21" yMin="-10" xMax="461" yMax="730">
      <contour>
        <pt x="57" y="707" on="1"/>
        <pt x="21" y="705" on="1"/>
        <pt x="21" y="730" on="1"/>
        <pt x="157" y="730" on="1"/>
        <pt x="157" y="342" on="1"/>
        <pt x="194" y="430" on="0"/>
        <pt x="288" y="430" on="1"/>
        <pt x="461" y="430" on="0"/>
        <pt x="461" y="-10" on="0"/>
        <pt x="271" y="-10" on="1"/>
        <pt x="236" y="-10" on="0"/>
        <pt x="186" y="10" on="0"/>
        <pt x="164" y="32" on="0"/>
        <pt x="149" y="52" on="1"/>
        <pt x="144" y="61" on="0"/>
        <pt x="131" y="61" on="1"/>
        <pt x="103" y="61" on="0"/>
        <pt x="103" y="-5" on="1"/>
        <pt x="70" y="-5" on="1"/>
        <pt x="70" y="687" on="1"/>
        <pt x="70" y="707" on="0"/>
      </contour>
      <contour>
        <pt x="159" y="226" on="1"/>
        <pt x="159" y="184" on="1"/>
        <pt x="159" y="17" on="0"/>
        <pt x="271" y="17" on="1"/>
        <pt x="328" y="17" on="0"/>
        <pt x="370" y="99" on="0"/>
        <pt x="370" y="323" on="0"/>
        <pt x="333" y="403" on="0"/>
        <pt x="221" y="403" on="0"/>
        <pt x="159" y="308" on="0"/>
      </contour>
    </TTGlyph>
    <TTGlyph name="backslash" xMin="-8" yMin="-5" xMax="250" yMax="635">
      <contour>
        <pt x="210" y="-5" on="1"/>
        <pt x="-8" y="626" on="1"/>
        <pt x="31" y="635" on="1"/>
        <pt x="250" y="6" on="1"/>
      </contour>
    </TTGlyph>
    <TTGlyph name="bar" xMin="98" yMin="-239" xMax="134" yMax="730">
      <contour>
        <pt x="134" y="-239" on="1"/>
        <pt x="98" y="-239" on="1"/>
        <pt x="98" y="730" on="1"/>
        <pt x="134" y="730" on="1"/>
      </contour>
    </TTGlyph>
    <TTGlyph name="braceleft" xMin="30" yMin="-146" xMax="235" yMax="675">
      <contour>
        <pt x="30" y="257" on="1"/>
        <pt x="30" y="277" on="1"/>
        <pt x="70" y="283" on="0"/>
        <pt x="102" y="319" on="0"/>
        <pt x="102" y="358" on="1"/>
        <pt x="102" y="582" on="1"/>
        <pt x="102" y="636" on="0"/>
        <pt x="143" y="675" on="0"/>
        <pt x="201" y="675" on="1"/>
        <pt x="235" y="675" on="1"/>
        <pt x="235" y="645" on="1"/>
        <pt x="208" y="645" on="1"/>
        <pt x="169" y="645" on="0"/>
        <pt x="169" y="589" on="1"/>
        <pt x="169" y="358" on="1"/>
        <pt x="169" y="312" on="0"/>
        <pt x="130" y="277" on="0"/>
        <pt x="73" y="267" on="1"/>
        <pt x="131" y="255" on="0"/>
        <pt x="169" y="221" on="0"/>
        <pt x="169" y="176" on="1"/>
        <pt x="169" y="-60" on="1"/>
        <pt x="169" y="-116" on="0"/>
        <pt x="208" y="-116" on="1"/>
        <pt x="235" y="-116" on="1"/>
        <pt x="235" y="-146" on="1"/>
        <pt x="201" y="-146" on="1"/>
        <pt x="142" y="-146" on="0"/>
        <pt x="102" y="-108" on="0"/>
        <pt x="102" y="-53" on="1"/>
        <pt x="102" y="176" on="1"/>
        <pt x="102" y="220" on="0"/>
        <pt x="76" y="247" on="0"/>
      </contour>
    </TTGlyph>
    <TTGlyph name="braceright" xMin="45" yMin="-146" xMax="260" yMax="675">
      <contour>
        <pt x="45" y="-146" on="1"/>
        <pt x="45" y="-116" on="1"/>
        <pt x="82" y="-116" on="1"/>
        <pt x="121" y="-116" on="0"/>
        <pt x="121" y="-60" on="1"/>
        <pt x="121" y="176" on="1"/>
        <pt x="121" y="221" on="0"/>
        <pt x="159" y="255" on="0"/>
        <pt x="217" y="267" on="1"/>
        <pt x="160" y="277" on="0"/>
        <pt x="121" y="312" on="0"/>
        <pt x="121" y="358" on="1"/>
        <pt x="121" y="589" on="1"/>
        <pt x="121" y="645" on="0"/>
        <pt x="82" y="645" on="1"/>
        <pt x="45" y="645" on="1"/>
        <pt x="45" y="675" on="1"/>
        <pt x="89" y="675" on="1"/>
        <pt x="147" y="675" on="0"/>
        <pt x="188" y="636" on="0"/>
        <pt x="188" y="582" on="1"/>
        <pt x="188" y="358" on="1"/>
        <pt x="188" y="319" on="0"/>
        <pt x="220" y="283" on="0"/>
        <pt x="260" y="277" on="1"/>
        <pt x="260" y="257" on="1"/>
        <pt x="214" y="247" on="0"/>
        <pt x="188" y="220" on="0"/>
        <pt x="188" y="176" on="1"/>
        <pt x="188" y="-53" on="1"/>
        <pt x="188" y="-108" on="0"/>
        <pt x="148" y="-146" on="0"/>
        <pt x="89" y="-146" on="1"/>
      </contour>
    </TTGlyph>
    <TTGlyph name="bracketleft" xMin="46" yMin="-147" xMax="223" yMax="675">
      <contour>
        <pt x="223" y="-147" on="1"/>
        <pt x="46" y="-147" on="1"/>
        <pt x="46" y="675" on="1"/>
        <pt x="223" y="675" on="1"/>
        <pt x="223" y="648" on="1"/>
        <pt x="119" y="648" on="1"/>
        <pt x="119" y="-120" on="1"/>
        <pt x="223" y="-120" on="1"/>
      </contour>
    </TTGlyph>
    <TTGlyph name="bracketright" xMin="34" yMin="-147" xMax="210" yMax="675">
      <contour>
        <pt x="34" y="-147" on="1"/>
        <pt x="34" y="-120" on="1"/>
        <pt x="139" y="-120" on="1"/>
        <pt x="139" y="648" on="1"/>
        <pt x="34" y="648" on="1"/>
        <pt x="34" y="675" on="1"/>
        <pt x="210" y="675" on="1"/>
        <pt x="210" y="-147" on="1"/>
      </contour>
    </TTGlyph>
    <TTGlyph name="brokenbar" xMin="97" yMin="-231" xMax="135" yMax="607">
      <contour>
        <pt x="97" y="-231" on="1"/>
        <pt x="97" y="113" on="1"/>
        <pt x="135" y="113" on="1"/>
        <pt x="135" y="-231" on="1"/>
      </contour>
      <contour>
        <pt x="135" y="265" on="1"/>
        <pt x="97" y="265" on="1"/>
        <pt x="97" y="607" on="1"/>
        <pt x="135" y="607" on="1"/>
      </contour>
    </TTGlyph>
    <TTGlyph name="bullet" xMin="105" yMin="131" xMax="362" yMax="363">
      <contour>
        <pt x="105" y="196" on="0"/>
        <pt x="105" y="298" on="0"/>
        <pt x="179" y="363" on="0"/>
        <pt x="289" y="363" on="0"/>
        <pt x="362" y="298" on="0"/>
        <pt x="362" y="196" on="0"/>
        <pt x="288" y="131" on="0"/>
        <pt x="177" y="131" on="0"/>
      </contour>
    </TTGlyph>
    <TTGlyph name="c" xMin="36" yMin="-10" xMax="406" yMax="430">
      <contour>
        <pt x="143" y="-10" on="0"/>
        <pt x="36" y="104" on="0"/>
        <pt x="36" y="308" on="0"/>
        <pt x="144" y="430" on="0"/>
        <pt x="232" y="430" on="1"/>
        <pt x="296" y="430" on="0"/>
        <pt x="387" y="371" on="0"/>
        <pt x="387" y="327" on="1"/>
        <pt x="387" y="306" on="0"/>
        <pt x="362" y="278" on="0"/>
        <pt x="344" y="278" on="1"/>
        <pt x="304" y="278" on="0"/>
        <pt x="304" y="306" on="1"/>
        <pt x="304" y="316" on="0"/>
        <pt x="313" y="341" on="0"/>
        <pt x="313" y="353" on="1"/>
        <pt x="313" y="377" on="0"/>
        <pt x="266" y="403" on="0"/>
        <pt x="232" y="403" on="1"/>
        <pt x="178" y="403" on="0"/>
        <pt x="129" y="311" on="0"/>
        <pt x="129" y="206" on="1"/>
        <pt x="129" y="17" on="0"/>
        <pt x="245" y="17" on="1"/>
        <pt x="290" y="17" on="0"/>
        <pt x="369" y="79" on="0"/>
        <pt x="381" y="124" on="1"/>
        <pt x="406" y="107" on="1"/>
        <pt x="370" y="-10" on="0"/>
        <pt x="239" y="-10" on="1"/>
      </contour>
    </TTGlyph>
    <TTGlyph name="ccedilla" xMin="36" yMin="-214" xMax="406" yMax="430">
      <component glyphName="c" x="0" y="0" flags="0x1004"/>
      <component glyphName="cedilla" x="20" y="0" flags="0x1004"/>
    </TTGlyph>
    <TTGlyph name="cedilla" xMin="131" yMin="-214" xMax="294" yMax="0">
      <contour>
        <pt x="131" y="-198" on="1"/>
        <pt x="138" y="-174" on="1"/>
        <pt x="150" y="-187" on="0"/>
        <pt x="196" y="-187" on="0"/>
        <pt x="229" y="-156" on="0"/>
        <pt x="229" y="-112" on="0"/>
        <pt x="195" y="-94" on="1"/>
        <pt x="172" y="-80" on="1"/>
        <pt x="161" y="-72" on="0"/>
        <pt x="161" y="-58" on="0"/>
        <pt x="167" y="-52" on="1"/>
        <pt x="208" y="0" on="1"/>
        <pt x="241" y="0" on="1"/>
        <pt x="214" y="-43" on="1"/>
        <pt x="208" y="-53" on="0"/>
        <pt x="208" y="-62" on="1"/>
        <pt x="208" y="-73" on="0"/>
        <pt x="251" y="-81" on="1"/>
        <pt x="267" y="-84" on="0"/>
        <pt x="294" y="-104" on="0"/>
        <pt x="294" y="-122" on="1"/>
        <pt x="294" y="-165" on="0"/>
        <pt x="245" y="-214" on="0"/>
        <pt x="156" y="-214" on="0"/>
      </contour>
    </TTGlyph>
    <TTGlyph name="cent" xMin="51" yMin="-95" xMax="347" yMax="647">
      <contour>
        <pt x="133" y="117" on="0"/>
        <pt x="51" y="209" on="0"/>
        <pt x="51" y="370" on="0"/>
        <pt x="136" y="466" on="0"/>
        <pt x="206" y="467" on="1"/>
        <pt x="206" y="647" on="1"/>
        <pt x="243" y="647" on="1"/>
        <pt x="243" y="464" on="1"/>
        <pt x="283" y="455" on="0"/>
        <pt x="332" y="413" on="0"/>
        <pt x="332" y="367" on="0"/>
        <pt x="312" y="345" on="0"/>
        <pt x="297" y="345" on="1"/>
        <pt x="263" y="345" on="0"/>
        <pt x="263" y="368" on="1"/>
        <pt x="263" y="376" on="0"/>
        <pt x="273" y="395" on="0"/>
        <pt x="273" y="424" on="0"/>
        <pt x="235" y="445" on="0"/>
        <pt x="208" y="445" on="1"/>
        <pt x="164" y="445" on="0"/>
        <pt x="127" y="372" on="0"/>
        <pt x="127" y="288" on="1"/>
        <pt x="127" y="137" on="0"/>
        <pt x="218" y="137" on="1"/>
        <pt x="255" y="137" on="0"/>
        <pt x="316" y="185" on="0"/>
        <pt x="327" y="222" on="1"/>
        <pt x="347" y="209" on="1"/>
        <pt x="324" y="131" on="0"/>
        <pt x="243" y="117" on="1"/>
        <pt x="243" y="-95" on="1"/>
        <pt x="206" y="-95" on="1"/>
        <pt x="206" y="115" on="1"/>
      </contour>
    </TTGlyph>
    <TTGlyph name="circumflex" xMin="49" yMin="478" xMax="361" yMax="634">
      <contour>
        <pt x="49" y="486" on="1"/>
        <pt x="49" y="490" on="0"/>
        <pt x="70" y="508" on="0"/>
        <pt x="111" y="543" on="0"/>
        <pt x="128" y="561" on="1"/>
        <pt x="176" y="609" on="1"/>
        <pt x="201" y="634" on="0"/>
        <pt x="209" y="634" on="0"/>
        <pt x="234" y="609" on="1"/>
        <pt x="282" y="561" on="1"/>
        <pt x="299" y="543" on="0"/>
        <pt x="340" y="508" on="0"/>
        <pt x="361" y="490" on="0"/>
        <pt x="361" y="486" on="1"/>
        <pt x="361" y="478" on="0"/>
        <pt x="343" y="478" on="0"/>
        <pt x="324" y="490" on="1"/>
        <pt x="205" y="564" on="1"/>
        <pt x="86" y="490" on="1"/>
        <pt x="67" y="478" on="0"/>
        <pt x="49" y="478" on="0"/>
      </contour>
    </TTGlyph>
    <TTGlyph name="colon" xMin="60" yMin="-10" xMax="190" yMax="403">
      <contour>
        <pt x="60" y="21" on="0"/>
        <pt x="60" y="73" on="0"/>
        <pt x="97" y="105" on="0"/>
        <pt x="153" y="105" on="0"/>
        <pt x="190" y="73" on="0"/>
        <pt x="190" y="21" on="0"/>
        <pt x="153" y="-10" on="0"/>
        <pt x="97" y="-10" on="0"/>
      </contour>
      <contour>
        <pt x="60" y="319" on="0"/>
        <pt x="60" y="371" on="0"/>
        <pt x="97" y="403" on="0"/>
        <pt x="153" y="403" on="0"/>
        <pt x="190" y="371" on="0"/>
        <pt x="190" y="319" on="0"/>
        <pt x="153" y="288" on="0"/>
        <pt x="97" y="288" on="0"/>
      </contour>
    </TTGlyph>
    <TTGlyph name="comma" xMin="60" yMin="-160" xMax="189" yMax="91">
      <contour>
        <pt x="79" y="-160" on="1"/>
        <pt x="60" y="-149" on="1"/>
        <pt x="86" y="-125" on="0"/>
        <pt x="129" y="-57" on="0"/>
        <pt x="129" y="-34" on="1"/>
        <pt x="129" y="-5" on="0"/>
        <pt x="93" y="-5" on="1"/>
        <pt x="61" y="-5" on="0"/>
        <pt x="61" y="38" on="1"/>
        <pt x="61" y="59" on="0"/>
        <pt x="96" y="91" on="0"/>
        <pt x="119" y="91" on="1"/>
        <pt x="189" y="91" on="0"/>
        <pt x="189" y="8" on="1"/>
        <pt x="189" y="-42" on="0"/>
        <pt x="121" y="-131" on="0"/>
      </contour>
    </TTGlyph>
    <TTGlyph name="copyright" xMin="56" yMin="-11" xMax="627" yMax="560">
      <contour>
        <pt x="56" y="156" on="0"/>
        <pt x="56" y="392" on="0"/>
        <pt x="223" y="560" on="0"/>
        <pt x="459" y="560" on="0"/>
        <pt x="627" y="392" on="0"/>
        <pt x="627" y="156" on="0"/>
        <pt x="459" y="-11" on="0"/>
        <pt x="223" y="-11" on="0"/>
      </contour>
      <contour>
        <pt x="88" y="380" on="0"/>
        <pt x="88" y="168" on="0"/>
        <pt x="235" y="19" on="0"/>
        <pt x="446" y="19" on="0"/>
        <pt x="593" y="168" on="0"/>
        <pt x="593" y="380" on="0"/>
        <pt x="445" y="530" on="0"/>
        <pt x="235" y="530" on="0"/>
      </contour>
      <contour>
        <pt x="464" y="366" on="1"/>
        <pt x="464" y="360" on="0"/>
        <pt x="465" y="350" on="1"/>
        <pt x="453" y="350" on="1"/>
        <pt x="445" y="387" on="0"/>
        <pt x="386" y="434" on="0"/>
        <pt x="296" y="434" on="0"/>
        <pt x="238" y="345" on="0"/>
        <pt x="238" y="205" on="0"/>
        <pt x="297" y="119" on="0"/>
        <pt x="385" y="119" on="0"/>
        <pt x="445" y="165" on="0"/>
        <pt x="453" y="201" on="1"/>
        <pt x="469" y="201" on="1"/>
        <pt x="463" y="167" on="0"/>
        <pt x="463" y="141" on="0"/>
        <pt x="465" y="127" on="1"/>
        <pt x="462" y="127" on="1"/>
        <pt x="446" y="127" on="0"/>
        <pt x="366" y="105" on="0"/>
        <pt x="347" y="105" on="1"/>
        <pt x="267" y="105" on="0"/>
        <pt x="181" y="196" on="0"/>
        <pt x="181" y="278" on="1"/>
        <pt x="183" y="359" on="0"/>
        <pt x="269" y="448" on="0"/>
        <pt x="346" y="448" on="1"/>
        <pt x="393" y="448" on="0"/>
        <pt x="450" y="423" on="0"/>
        <pt x="465" y="423" on="0"/>
        <pt x="467" y="423" on="1"/>
        <pt x="464" y="402" on="0"/>
        <pt x="464" y="388" on="1"/>
      </contour>
    </TTGlyph>
    <TTGlyph name="currency" xMin="42" yMin="83" xMax="402" yMax="443">
      <contour>
        <pt x="65" y="84" on="1"/>
        <pt x="42" y="107" on="1"/>
        <pt x="91" y="156" on="1"/>
        <pt x="52" y="202" on="0"/>
        <pt x="52" y="324" on="0"/>
        <pt x="90" y="373" on="1"/>
        <pt x="43" y="420" on="1"/>
        <pt x="66" y="443" on="1"/>
        <pt x="113" y="396" on="1"/>
        <pt x="163" y="435" on="0"/>
        <pt x="282" y="435" on="0"/>
        <pt x="332" y="395" on="1"/>
        <pt x="379" y="442" on="1"/>
        <pt x="402" y="419" on="1"/>
        <pt x="354" y="372" on="1"/>
        <pt x="393" y="322" on="0"/>
        <pt x="393" y="207" on="0"/>
        <pt x="353" y="155" on="1"/>
        <pt x="401" y="106" on="1"/>
        <pt x="378" y="83" on="1"/>
        <pt x="330" y="132" on="1"/>
        <pt x="281" y="94" on="0"/>
        <pt x="161" y="94" on="0"/>
        <pt x="114" y="133" on="1"/>
      </contour>
      <contour>
        <pt x="165" y="403" on="0"/>
        <pt x="83" y="322" on="0"/>
        <pt x="83" y="207" on="0"/>
        <pt x="165" y="126" on="0"/>
        <pt x="280" y="126" on="0"/>
        <pt x="361" y="207" on="0"/>
        <pt x="361" y="322" on="0"/>
        <pt x="280" y="403" on="0"/>
      </contour>
    </TTGlyph>
    <TTGlyph name="d" xMin="35" yMin="-10" xMax="476" yMax="730">
      <contour>
        <pt x="35" y="209" on="1"/>
        <pt x="35" y="430" on="0"/>
        <pt x="224" y="430" on="1"/>
        <pt x="270" y="430" on="0"/>
        <pt x="329" y="384" on="0"/>
        <pt x="339" y="348" on="1"/>
        <pt x="339" y="687" on="1"/>
        <pt x="339" y="707" on="0"/>
        <pt x="326" y="707" on="1"/>
        <pt x="280" y="705" on="1"/>
        <pt x="280" y="730" on="1"/>
        <pt x="426" y="730" on="1"/>
        <pt x="426" y="43" on="1"/>
        <pt x="426" y="24" on="0"/>
        <pt x="439" y="24" on="1"/>
        <pt x="476" y="26" on="1"/>
        <pt x="476" y="0" on="1"/>
        <pt x="332" y="0" on="1"/>
        <pt x="334" y="8" on="0"/>
        <pt x="334" y="16" on="1"/>
        <pt x="334" y="38" on="1"/>
        <pt x="334" y="46" on="0"/>
        <pt x="335" y="56" on="1"/>
        <pt x="336" y="67" on="1"/>
        <pt x="311" y="-10" on="0"/>
        <pt x="225" y="-10" on="1"/>
        <pt x="123" y="-10" on="0"/>
        <pt x="35" y="97" on="0"/>
      </contour>
      <contour>
        <pt x="170" y="403" on="0"/>
        <pt x="127" y="303" on="0"/>
        <pt x="127" y="101" on="0"/>
        <pt x="168" y="17" on="0"/>
        <pt x="286" y="17" on="0"/>
        <pt x="337" y="97" on="0"/>
        <pt x="337" y="184" on="1"/>
        <pt x="337" y="226" on="1"/>
        <pt x="337" y="403" on="0"/>
        <pt x="224" y="403" on="1"/>
      </contour>
    </TTGlyph>
    <TTGlyph name="dagger" xMin="35" yMin="-150" xMax="483" yMax="640">
      <contour>
        <pt x="204" y="390" on="1"/>
        <pt x="136" y="397" on="1"/>
        <pt x="118" y="397" on="0"/>
        <pt x="88" y="358" on="0"/>
        <pt x="75" y="358" on="1"/>
        <pt x="35" y="358" on="0"/>
        <pt x="35" y="408" on="1"/>
        <pt x="35" y="429" on="0"/>
        <pt x="70" y="458" on="0"/>
        <pt x="112" y="458" on="0"/>
        <pt x="124" y="452" on="1"/>
        <pt x="150" y="437" on="1"/>
        <pt x="186" y="416" on="0"/>
        <pt x="241" y="416" on="1"/>
        <pt x="229" y="452" on="0"/>
        <pt x="229" y="481" on="0"/>
        <pt x="231" y="495" on="1"/>
        <pt x="235" y="515" on="1"/>
        <pt x="241" y="541" on="0"/>
        <pt x="241" y="558" on="0"/>
        <pt x="211" y="590" on="0"/>
        <pt x="211" y="618" on="0"/>
        <pt x="239" y="640" on="0"/>
        <pt x="279" y="640" on="0"/>
        <pt x="307" y="618" on="0"/>
        <pt x="307" y="590" on="0"/>
        <pt x="277" y="558" on="0"/>
        <pt x="277" y="541" on="0"/>
        <pt x="283" y="515" on="1"/>
        <pt x="287" y="495" on="1"/>
        <pt x="289" y="481" on="0"/>
        <pt x="289" y="452" on="0"/>
        <pt x="277" y="416" on="1"/>
        <pt x="332" y="416" on="0"/>
        <pt x="368" y="437" on="1"/>
        <pt x="394" y="452" on="1"/>
        <pt x="406" y="458" on="0"/>
        <pt x="448" y="458" on="0"/>
        <pt x="483" y="429" on="0"/>
        <pt x="483" y="408" on="1"/>
        <pt x="483" y="358" on="0"/>
        <pt x="443" y="358" on="1"/>
        <pt x="429" y="358" on="0"/>
        <pt x="400" y="397" on="0"/>
        <pt x="382" y="397" on="1"/>
        <pt x="382" y="397" on="0"/>
        <pt x="314" y="390" on="1"/>
        <pt x="292" y="390" on="0"/>
        <pt x="273" y="399" on="1"/>
        <pt x="273" y="362" on="0"/>
        <pt x="291" y="336" on="1"/>
        <pt x="304" y="318" on="1"/>
        <pt x="309" y="310" on="0"/>
        <pt x="309" y="295" on="0"/>
        <pt x="298" y="207" on="0"/>
        <pt x="295" y="85" on="0"/>
        <pt x="292" y="3" on="0"/>
        <pt x="284" y="-101" on="0"/>
        <pt x="270" y="-150" on="0"/>
        <pt x="248" y="-150" on="0"/>
        <pt x="234" y="-101" on="0"/>
        <pt x="230" y="-49" on="1"/>
        <pt x="224" y="32" on="0"/>
        <pt x="222" y="156" on="1"/>
        <pt x="220" y="207" on="0"/>
        <pt x="209" y="295" on="0"/>
        <pt x="209" y="310" on="0"/>
        <pt x="214" y="318" on="1"/>
        <pt x="227" y="336" on="1"/>
        <pt x="245" y="362" on="0"/>
        <pt x="245" y="399" on="1"/>
        <pt x="226" y="390" on="0"/>
      </contour>
    </TTGlyph>
    <TTGlyph name="daggerdbl" xMin="35" yMin="-153" xMax="483" yMax="640">
      <contour>
        <pt x="314" y="97" on="1"/>
        <pt x="382" y="90" on="1"/>
        <pt x="400" y="90" on="0"/>
        <pt x="429" y="129" on="0"/>
        <pt x="443" y="129" on="1"/>
        <pt x="483" y="129" on="0"/>
        <pt x="483" y="79" on="1"/>
        <pt x="483" y="58" on="0"/>
        <pt x="448" y="29" on="0"/>
        <pt x="405" y="29" on="0"/>
        <pt x="394" y="36" on="1"/>
        <pt x="368" y="50" on="1"/>
        <pt x="332" y="71" on="0"/>
        <pt x="277" y="71" on="1"/>
        <pt x="289" y="35" on="0"/>
        <pt x="289" y="6" on="0"/>
        <pt x="287" y="-8" on="1"/>
        <pt x="283" y="-28" on="1"/>
        <pt x="277" y="-54" on="0"/>
        <pt x="277" y="-70" on="0"/>
        <pt x="307" y="-104" on="0"/>
        <pt x="307" y="-131" on="0"/>
        <pt x="279" y="-153" on="0"/>
        <pt x="239" y="-153" on="0"/>
        <pt x="211" y="-131" on="0"/>
        <pt x="211" y="-104" on="0"/>
        <pt x="241" y="-70" on="0"/>
        <pt x="241" y="-54" on="0"/>
        <pt x="235" y="-28" on="1"/>
        <pt x="231" y="-8" on="1"/>
        <pt x="229" y="6" on="0"/>
        <pt x="229" y="35" on="0"/>
        <pt x="241" y="71" on="1"/>
        <pt x="186" y="71" on="0"/>
        <pt x="150" y="50" on="1"/>
        <pt x="124" y="36" on="1"/>
        <pt x="113" y="29" on="0"/>
        <pt x="70" y="29" on="0"/>
        <pt x="35" y="58" on="0"/>
        <pt x="35" y="79" on="1"/>
        <pt x="35" y="129" on="0"/>
        <pt x="75" y="129" on="1"/>
        <pt x="88" y="129" on="0"/>
        <pt x="118" y="90" on="0"/>
        <pt x="136" y="90" on="1"/>
        <pt x="204" y="97" on="1"/>
        <pt x="226" y="97" on="0"/>
        <pt x="245" y="88" on="1"/>
        <pt x="245" y="126" on="0"/>
        <pt x="227" y="150" on="1"/>
        <pt x="214" y="168" on="1"/>
        <pt x="209" y="176" on="0"/>
        <pt x="209" y="213" on="0"/>
        <pt x="224" y="238" on="1"/>
        <pt x="227" y="244" on="1"/>
        <pt x="218" y="262" on="1"/>
        <pt x="209" y="282" on="0"/>
        <pt x="209" y="310" on="0"/>
        <pt x="214" y="318" on="1"/>
        <pt x="227" y="336" on="1"/>
        <pt x="245" y="362" on="0"/>
        <pt x="245" y="399" on="1"/>
        <pt x="226" y="390" on="0"/>
        <pt x="204" y="390" on="1"/>
        <pt x="136" y="397" on="1"/>
        <pt x="118" y="397" on="0"/>
        <pt x="88" y="358" on="0"/>
        <pt x="75" y="358" on="1"/>
        <pt x="35" y="358" on="0"/>
        <pt x="35" y="408" on="1"/>
        <pt x="35" y="429" on="0"/>
        <pt x="70" y="458" on="0"/>
        <pt x="112" y="458" on="0"/>
        <pt x="124" y="452" on="1"/>
        <pt x="150" y="437" on="1"/>
        <pt x="186" y="416" on="0"/>
        <pt x="241" y="416" on="1"/>
        <pt x="229" y="452" on="0"/>
        <pt x="229" y="481" on="0"/>
        <pt x="231" y="495" on="1"/>
        <pt x="235" y="515" on="1"/>
        <pt x="241" y="541" on="0"/>
        <pt x="241" y="558" on="0"/>
        <pt x="211" y="590" on="0"/>
        <pt x="211" y="618" on="0"/>
        <pt x="239" y="640" on="0"/>
        <pt x="279" y="640" on="0"/>
        <pt x="307" y="618" on="0"/>
        <pt x="307" y="590" on="0"/>
        <pt x="277" y="558" on="0"/>
        <pt x="277" y="541" on="0"/>
        <pt x="283" y="515" on="1"/>
        <pt x="287" y="495" on="1"/>
        <pt x="289" y="481" on="0"/>
        <pt x="289" y="452" on="0"/>
        <pt x="277" y="416" on="1"/>
        <pt x="332" y="416" on="0"/>
        <pt x="368" y="437" on="1"/>
        <pt x="394" y="452" on="1"/>
        <pt x="406" y="458" on="0"/>
        <pt x="448" y="458" on="0"/>
        <pt x="483" y="429" on="0"/>
        <pt x="483" y="408" on="1"/>
        <pt x="483" y="358" on="0"/>
        <pt x="443" y="358" on="1"/>
        <pt x="429" y="358" on="0"/>
        <pt x="400" y="397" on="0"/>
        <pt x="382" y="397" on="1"/>
        <pt x="314" y="390" on="1"/>
        <pt x="292" y="390" on="0"/>
        <pt x="273" y="399" on="1"/>
        <pt x="273" y="362" on="0"/>
        <pt x="291" y="336" on="1"/>
        <pt x="304" y="318" on="1"/>
        <pt x="309" y="310" on="0"/>
        <pt x="309" y="282" on="0"/>
        <pt x="300" y="262" on="1"/>
        <pt x="291" y="244" on="1"/>
        <pt x="294" y="238" on="1"/>
        <pt x="309" y="213" on="0"/>
        <pt x="309" y="176" on="0"/>
        <pt x="304" y="168" on="1"/>
        <pt x="291" y="150" on="1"/>
        <pt x="273" y="126" on="0"/>
        <pt x="273" y="88" on="1"/>
        <pt x="292" y="97" on="0"/>
      </contour>
    </TTGlyph>
    <TTGlyph name="degree" xMin="89" yMin="411" xMax="285" yMax="607">
      <contour>
        <pt x="89" y="470" on="0"/>
        <pt x="89" y="548" on="0"/>
        <pt x="148" y="607" on="0"/>
        <pt x="226" y="607" on="0"/>
        <pt x="285" y="548" on="0"/>
        <pt x="285" y="470" on="0"/>
        <pt x="226" y="411" on="0"/>
        <pt x="148" y="411" on="0"/>
      </contour>
      <contour>
        <pt x="130" y="532" on="0"/>
        <pt x="130" y="486" on="0"/>
        <pt x="164" y="453" on="0"/>
        <pt x="209" y="453" on="0"/>
        <pt x="243" y="486" on="0"/>
        <pt x="243" y="532" on="0"/>
        <pt x="209" y="565" on="0"/>
        <pt x="164" y="565" on="0"/>
      </contour>
    </TTGlyph>
    <TTGlyph name="dieresis" xMin="77" yMin="520" xMax="380" yMax="617">
      <contour>
        <pt x="77" y="547" on="0"/>
        <pt x="77" y="589" on="0"/>
        <pt x="108" y="617" on="0"/>
        <pt x="153" y="617" on="0"/>
        <pt x="185" y="589" on="0"/>
        <pt x="185" y="547" on="0"/>
        <pt x="155" y="520" on="0"/>
        <pt x="107" y="520" on="0"/>
      </contour>
      <contour>
        <pt x="272" y="547" on="0"/>
        <pt x="272" y="589" on="0"/>
        <pt x="303" y="617" on="0"/>
        <pt x="348" y="617" on="0"/>
        <pt x="380" y="589" on="0"/>
        <pt x="380" y="547" on="0"/>
        <pt x="350" y="520" on="0"/>
        <pt x="302" y="520" on="0"/>
      </contour>
    </TTGlyph>
    <TTGlyph name="divide" xMin="19" yMin="50" xMax="441" yMax="484">
      <contour>
        <pt x="441" y="249" on="1"/>
        <pt x="19" y="249" on="1"/>
        <pt x="19" y="290" on="1"/>
        <pt x="441" y="290" on="1"/>
      </contour>
      <contour>
        <pt x="205" y="50" on="0"/>
        <pt x="175" y="75" on="0"/>
        <pt x="175" y="118" on="0"/>
        <pt x="205" y="145" on="0"/>
        <pt x="253" y="145" on="0"/>
        <pt x="284" y="120" on="0"/>
        <pt x="284" y="76" on="0"/>
        <pt x="253" y="50" on="0"/>
      </contour>
      <contour>
        <pt x="205" y="389" on="0"/>
        <pt x="175" y="414" on="0"/>
        <pt x="175" y="459" on="0"/>
        <pt x="205" y="484" on="0"/>
        <pt x="253" y="484" on="0"/>
        <pt x="284" y="459" on="0"/>
        <pt x="284" y="415" on="0"/>
        <pt x="253" y="389" on="0"/>
      </contour>
    </TTGlyph>
    <TTGlyph name="dollar" xMin="87" yMin="-95" xMax="355" yMax="647">
      <contour>
        <pt x="87" y="135" on="1"/>
        <pt x="87" y="241" on="1"/>
        <pt x="106" y="242" on="1"/>
        <pt x="114" y="197" on="0"/>
        <pt x="181" y="141" on="0"/>
        <pt x="260" y="141" on="0"/>
        <pt x="295" y="174" on="0"/>
        <pt x="295" y="225" on="0"/>
        <pt x="270" y="253" on="0"/>
        <pt x="239" y="261" on="1"/>
        <pt x="159" y="283" on="1"/>
        <pt x="126" y="291" on="0"/>
        <pt x="87" y="340" on="0"/>
        <pt x="87" y="415" on="0"/>
        <pt x="152" y="469" on="0"/>
        <pt x="206" y="471" on="1"/>
        <pt x="206" y="647" on="1"/>
        <pt x="243" y="647" on="1"/>
        <pt x="243" y="467" on="1"/>
        <pt x="251" y="466" on="0"/>
        <pt x="301" y="453" on="0"/>
        <pt x="324" y="453" on="0"/>
        <pt x="335" y="460" on="1"/>
        <pt x="330" y="369" on="1"/>
        <pt x="312" y="369" on="1"/>
        <pt x="312" y="401" on="0"/>
        <pt x="258" y="449" on="0"/>
        <pt x="214" y="449" on="1"/>
        <pt x="147" y="449" on="0"/>
        <pt x="147" y="394" on="1"/>
        <pt x="147" y="353" on="0"/>
        <pt x="199" y="340" on="1"/>
        <pt x="280" y="318" on="1"/>
        <pt x="355" y="298" on="0"/>
        <pt x="355" y="228" on="1"/>
        <pt x="355" y="181" on="0"/>
        <pt x="295" y="125" on="0"/>
        <pt x="243" y="120" on="1"/>
        <pt x="243" y="-95" on="1"/>
        <pt x="206" y="-95" on="1"/>
        <pt x="206" y="120" on="1"/>
        <pt x="186" y="122" on="0"/>
        <pt x="120" y="140" on="0"/>
        <pt x="95" y="140" on="0"/>
      </contour>
    </TTGlyph>
    <TTGlyph name="e" xMin="35" yMin="-10" xMax="414" yMax="430">
      <contour>
        <pt x="35" y="209" on="1"/>
        <pt x="35" y="318" on="0"/>
        <pt x="137" y="430" on="0"/>
        <pt x="236" y="430" on="1"/>
        <pt x="315" y="430" on="0"/>
        <pt x="412" y="329" on="0"/>
        <pt x="414" y="241" on="1"/>
        <pt x="414" y="212" on="1"/>
        <pt x="126" y="212" on="1"/>
        <pt x="126" y="24" on="0"/>
        <pt x="252" y="23" on="1"/>
        <pt x="302" y="23" on="0"/>
        <pt x="371" y="73" on="0"/>
        <pt x="387" y="110" on="1"/>
        <pt x="410" y="93" on="1"/>
        <pt x="390" y="45" on="0"/>
        <pt x="295" y="-10" on="0"/>
        <pt x="238" y="-10" on="1"/>
        <pt x="35" y="-10" on="0"/>
      </contour>
      <contour>
        <pt x="127" y="237" on="1"/>
        <pt x="309" y="237" on="1"/>
        <pt x="329" y="237" on="0"/>
        <pt x="329" y="270" on="1"/>
        <pt x="329" y="338" on="0"/>
        <pt x="286" y="403" on="0"/>
        <pt x="180" y="403" on="0"/>
        <pt x="127" y="311" on="0"/>
      </contour>
    </TTGlyph>
    <TTGlyph name="eacute" xMin="35" yMin="-10" xMax="414" yMax="662">
      <contour>
        <pt x="35" y="209" on="1"/>
        <pt x="35" y="318" on="0"/>
        <pt x="137" y="430" on="0"/>
        <pt x="236" y="430" on="1"/>
        <pt x="315" y="430" on="0"/>
        <pt x="412" y="329" on="0"/>
        <pt x="414" y="241" on="1"/>
        <pt x="414" y="212" on="1"/>
        <pt x="126" y="212" on="1"/>
        <pt x="126" y="24" on="0"/>
        <pt x="252" y="23" on="1"/>
        <pt x="302" y="23" on="0"/>
        <pt x="371" y="73" on="0"/>
        <pt x="387" y="110" on="1"/>
        <pt x="410" y="93" on="1"/>
        <pt x="390" y="45" on="0"/>
        <pt x="295" y="-10" on="0"/>
        <pt x="238" y="-10" on="1"/>
        <pt x="35" y="-10" on="0"/>
      </contour>
      <contour>
        <pt x="127" y="237" on="1"/>
        <pt x="309" y="237" on="1"/>
        <pt x="329" y="237" on="0"/>
        <pt x="329" y="270" on="1"/>
        <pt x="329" y="338" on="0"/>
        <pt x="286" y="403" on="0"/>
        <pt x="180" y="403" on="0"/>
        <pt x="127" y="311" on="0"/>
      </contour>
      <contour>
        <pt x="141" y="511" on="1"/>
        <pt x="141" y="515" on="0"/>
        <pt x="146" y="520" on="1"/>
        <pt x="252" y="637" on="1"/>
        <pt x="271" y="659" on="0"/>
        <pt x="282" y="663" on="0"/>
        <pt x="297" y="661" on="0"/>
        <pt x="333" y="653" on="0"/>
        <pt x="346" y="647" on="0"/>
        <pt x="346" y="632" on="0"/>
        <pt x="340" y="627" on="1"/>
        <pt x="164" y="506" on="1"/>
        <pt x="161" y="503" on="0"/>
        <pt x="141" y="503" on="0"/>
      </contour>
    </TTGlyph>
    <TTGlyph name="ecircumflex" xMin="35" yMin="-10" xMax="414" yMax="634">
      <component glyphName="e" x="0" y="0" flags="0x1004"/>
      <component glyphName="circumflex" x="19" y="0" flags="0x1004"/>
    </TTGlyph>
    <TTGlyph name="edieresis" xMin="35" yMin="-10" xMax="414" yMax="617">
      <contour>
        <pt x="35" y="209" on="1"/>
        <pt x="35" y="318" on="0"/>
        <pt x="137" y="430" on="0"/>
        <pt x="236" y="430" on="1"/>
        <pt x="315" y="430" on="0"/>
        <pt x="412" y="329" on="0"/>
        <pt x="414" y="241" on="1"/>
        <pt x="414" y="212" on="1"/>
        <pt x="126" y="212" on="1"/>
        <pt x="126" y="24" on="0"/>
        <pt x="252" y="23" on="1"/>
        <pt x="302" y="23" on="0"/>
        <pt x="371" y="73" on="0"/>
        <pt x="387" y="110" on="1"/>
        <pt x="410" y="93" on="1"/>
        <pt x="390" y="45" on="0"/>
        <pt x="295" y="-10" on="0"/>
        <pt x="238" y="-10" on="1"/>
        <pt x="35" y="-10" on="0"/>
      </contour>
      <contour>
        <pt x="127" y="237" on="1"/>
        <pt x="309" y="237" on="1"/>
        <pt x="329" y="237" on="0"/>
        <pt x="329" y="270" on="1"/>
        <pt x="329" y="338" on="0"/>
        <pt x="286" y="403" on="0"/>
        <pt x="180" y="403" on="0"/>
        <pt x="127" y="311" on="0"/>
      </contour>
      <contour>
        <pt x="76" y="547" on="0"/>
        <pt x="76" y="589" on="0"/>
        <pt x="107" y="617" on="0"/>
        <pt x="152" y="617" on="0"/>
        <pt x="184" y="589" on="0"/>
        <pt x="184" y="547" on="0"/>
        <pt x="154" y="520" on="0"/>
        <pt x="106" y="520" on="0"/>
      </contour>
      <contour>
        <pt x="271" y="547" on="0"/>
        <pt x="271" y="589" on="0"/>
        <pt x="302" y="617" on="0"/>
        <pt x="347" y="617" on="0"/>
        <pt x="379" y="589" on="0"/>
        <pt x="379" y="547" on="0"/>
        <pt x="349" y="520" on="0"/>
        <pt x="301" y="520" on="0"/>
      </contour>
    </TTGlyph>
    <TTGlyph name="egrave" xMin="35" yMin="-10" xMax="414" yMax="653">
      <component glyphName="e" x="0" y="0" flags="0x1004"/>
      <component glyphName="grave" x="-57" y="0" flags="0x1004"/>
    </TTGlyph>
    <TTGlyph name="eight" xMin="37" yMin="-9" xMax="402" yMax="549">
      <contour>
        <pt x="37" y="126" on="1"/>
        <pt x="37" y="168" on="0"/>
        <pt x="104" y="248" on="0"/>
        <pt x="158" y="275" on="1"/>
        <pt x="107" y="306" on="0"/>
        <pt x="57" y="370" on="0"/>
        <pt x="57" y="410" on="1"/>
        <pt x="57" y="475" on="0"/>
        <pt x="155" y="549" on="0"/>
        <pt x="300" y="549" on="0"/>
        <pt x="388" y="488" on="0"/>
        <pt x="388" y="429" on="1"/>
        <pt x="388" y="393" on="0"/>
        <pt x="312" y="304" on="0"/>
        <pt x="274" y="297" on="1"/>
        <pt x="402" y="233" on="0"/>
        <pt x="402" y="139" on="1"/>
        <pt x="402" y="74" on="0"/>
        <pt x="289" y="-9" on="0"/>
        <pt x="216" y="-9" on="1"/>
        <pt x="37" y="-9" on="0"/>
      </contour>
      <contour>
        <pt x="151" y="241" on="0"/>
        <pt x="104" y="160" on="0"/>
        <pt x="104" y="79" on="0"/>
        <pt x="164" y="16" on="0"/>
        <pt x="259" y="16" on="0"/>
        <pt x="314" y="65" on="0"/>
        <pt x="314" y="106" on="1"/>
        <pt x="314" y="181" on="0"/>
        <pt x="229" y="231" on="1"/>
        <pt x="182" y="260" on="1"/>
      </contour>
      <contour>
        <pt x="193" y="524" on="0"/>
        <pt x="143" y="477" on="0"/>
        <pt x="143" y="408" on="0"/>
        <pt x="199" y="339" on="0"/>
        <pt x="253" y="311" on="1"/>
        <pt x="323" y="351" on="0"/>
        <pt x="323" y="431" on="1"/>
        <pt x="323" y="476" on="0"/>
        <pt x="277" y="524" on="0"/>
      </contour>
    </TTGlyph>
    <TTGlyph name="ellipsis" xMin="60" yMin="-10" xMax="629" yMax="105">
      <contour>
        <pt x="60" y="21" on="0"/>
        <pt x="60" y="73" on="0"/>
        <pt x="97" y="105" on="0"/>
        <pt x="153" y="105" on="0"/>
        <pt x="190" y="73" on="0"/>
        <pt x="190" y="21" on="0"/>
        <pt x="153" y="-10" on="0"/>
        <pt x="97" y="-10" on="0"/>
      </contour>
      <contour>
        <pt x="280" y="21" on="0"/>
        <pt x="280" y="73" on="0"/>
        <pt x="317" y="105" on="0"/>
        <pt x="373" y="105" on="0"/>
        <pt x="410" y="73" on="0"/>
        <pt x="410" y="21" on="0"/>
        <pt x="373" y="-10" on="0"/>
        <pt x="317" y="-10" on="0"/>
      </contour>
      <contour>
        <pt x="499" y="21" on="0"/>
        <pt x="499" y="73" on="0"/>
        <pt x="536" y="105" on="0"/>
        <pt x="592" y="105" on="0"/>
        <pt x="629" y="73" on="0"/>
        <pt x="629" y="21" on="0"/>
        <pt x="592" y="-10" on="0"/>
        <pt x="536" y="-10" on="0"/>
      </contour>
    </TTGlyph>
    <TTGlyph name="emdash" xMin="0" yMin="191" xMax="794" yMax="230">
      <contour>
        <pt x="794" y="191" on="1"/>
        <pt x="0" y="191" on="1"/>
        <pt x="0" y="230" on="1"/>
        <pt x="794" y="230" on="1"/>
      </contour>
    </TTGlyph>
    <TTGlyph name="endash" xMin="18" yMin="191" xMax="459" yMax="230">
      <contour>
        <pt x="459" y="191" on="1"/>
        <pt x="18" y="191" on="1"/>
        <pt x="18" y="230" on="1"/>
        <pt x="459" y="230" on="1"/>
      </contour>
    </TTGlyph>
    <TTGlyph name="equal" xMin="35" yMin="103" xMax="425" yMax="345">
      <contour>
        <pt x="425" y="103" on="1"/>
        <pt x="35" y="103" on="1"/>
        <pt x="35" y="146" on="1"/>
        <pt x="425" y="146" on="1"/>
      </contour>
      <contour>
        <pt x="425" y="302" on="1"/>
        <pt x="35" y="302" on="1"/>
        <pt x="35" y="345" on="1"/>
        <pt x="425" y="345" on="1"/>
      </contour>
    </TTGlyph>
    <TTGlyph name="eth" xMin="35" yMin="-11" xMax="457" yMax="620">
      <contour>
        <pt x="35" y="101" on="0"/>
        <pt x="35" y="317" on="0"/>
        <pt x="143" y="429" on="0"/>
        <pt x="246" y="429" on="1"/>
        <pt x="269" y="429" on="0"/>
        <pt x="321" y="414" on="0"/>
        <pt x="328" y="403" on="1"/>
        <pt x="297" y="480" on="0"/>
        <pt x="245" y="518" on="1"/>
        <pt x="140" y="457" on="1"/>
        <pt x="125" y="483" on="1"/>
        <pt x="221" y="538" on="1"/>
        <pt x="154" y="585" on="0"/>
        <pt x="112" y="585" on="1"/>
        <pt x="132" y="607" on="1"/>
        <pt x="201" y="607" on="0"/>
        <pt x="268" y="565" on="1"/>
        <pt x="364" y="620" on="1"/>
        <pt x="378" y="594" on="1"/>
        <pt x="296" y="546" on="1"/>
        <pt x="457" y="435" on="0"/>
        <pt x="457" y="213" on="1"/>
        <pt x="457" y="109" on="0"/>
        <pt x="347" y="-11" on="0"/>
        <pt x="143" y="-11" on="0"/>
      </contour>
      <contour>
        <pt x="178" y="404" on="0"/>
        <pt x="126" y="320" on="0"/>
        <pt x="126" y="100" on="0"/>
        <pt x="180" y="14" on="0"/>
        <pt x="311" y="14" on="0"/>
        <pt x="366" y="105" on="0"/>
        <pt x="366" y="314" on="0"/>
        <pt x="310" y="404" on="0"/>
      </contour>
    </TTGlyph>
    <TTGlyph name="exclam" xMin="90" yMin="-10" xMax="219" yMax="637">
      <contour>
        <pt x="90" y="24" on="0"/>
        <pt x="90" y="72" on="0"/>
        <pt x="128" y="105" on="0"/>
        <pt x="182" y="105" on="0"/>
        <pt x="219" y="71" on="0"/>
        <pt x="219" y="24" on="0"/>
        <pt x="180" y="-10" on="0"/>
        <pt x="129" y="-10" on="0"/>
      </contour>
      <contour>
        <pt x="105" y="588" on="1"/>
        <pt x="105" y="637" on="0"/>
        <pt x="204" y="637" on="0"/>
        <pt x="204" y="588" on="1"/>
        <pt x="204" y="560" on="0"/>
        <pt x="198" y="520" on="1"/>
        <pt x="185" y="428" on="1"/>
        <pt x="166" y="291" on="0"/>
        <pt x="166" y="217" on="1"/>
        <pt x="166" y="201" on="0"/>
        <pt x="143" y="201" on="0"/>
        <pt x="143" y="217" on="1"/>
        <pt x="143" y="291" on="0"/>
        <pt x="124" y="428" on="1"/>
        <pt x="111" y="520" on="1"/>
        <pt x="105" y="560" on="0"/>
      </contour>
    </TTGlyph>
    <TTGlyph name="exclamdown" xMin="50" yMin="-242" xMax="179" yMax="445">
      <contour>
        <pt x="50" y="363" on="0"/>
        <pt x="50" y="411" on="0"/>
        <pt x="89" y="445" on="0"/>
        <pt x="140" y="445" on="0"/>
        <pt x="179" y="411" on="0"/>
        <pt x="179" y="364" on="0"/>
        <pt x="142" y="330" on="0"/>
        <pt x="88" y="330" on="0"/>
      </contour>
      <contour>
        <pt x="145" y="-34" on="1"/>
        <pt x="164" y="-139" on="0"/>
        <pt x="164" y="-242" on="0"/>
        <pt x="65" y="-242" on="0"/>
        <pt x="65" y="-139" on="0"/>
        <pt x="84" y="-34" on="1"/>
        <pt x="103" y="105" on="0"/>
        <pt x="103" y="218" on="1"/>
        <pt x="103" y="234" on="0"/>
        <pt x="126" y="234" on="0"/>
        <pt x="126" y="218" on="1"/>
        <pt x="126" y="105" on="0"/>
      </contour>
    </TTGlyph>
    <TTGlyph name="f" xMin="35" yMin="0" xMax="371" yMax="736">
      <contour>
        <pt x="164" y="597" on="1"/>
        <pt x="170" y="449" on="1"/>
        <pt x="170" y="420" on="1"/>
        <pt x="277" y="420" on="1"/>
        <pt x="277" y="395" on="1"/>
        <pt x="171" y="395" on="1"/>
        <pt x="171" y="43" on="1"/>
        <pt x="171" y="24" on="0"/>
        <pt x="184" y="24" on="1"/>
        <pt x="250" y="26" on="1"/>
        <pt x="250" y="0" on="1"/>
        <pt x="35" y="0" on="1"/>
        <pt x="35" y="26" on="1"/>
        <pt x="82" y="24" on="1"/>
        <pt x="86" y="24" on="0"/>
        <pt x="87" y="27" on="0"/>
        <pt x="85" y="38" on="0"/>
        <pt x="85" y="43" on="1"/>
        <pt x="85" y="395" on="1"/>
        <pt x="46" y="395" on="1"/>
        <pt x="46" y="420" on="1"/>
        <pt x="85" y="420" on="1"/>
        <pt x="85" y="486" on="1"/>
        <pt x="85" y="600" on="0"/>
        <pt x="106" y="649" on="1"/>
        <pt x="143" y="736" on="0"/>
        <pt x="246" y="736" on="1"/>
        <pt x="260" y="736" on="1"/>
        <pt x="304" y="736" on="0"/>
        <pt x="371" y="699" on="0"/>
        <pt x="371" y="657" on="1"/>
        <pt x="371" y="624" on="0"/>
        <pt x="331" y="624" on="1"/>
        <pt x="318" y="624" on="0"/>
        <pt x="295" y="638" on="0"/>
        <pt x="295" y="661" on="0"/>
        <pt x="302" y="680" on="0"/>
        <pt x="302" y="683" on="1"/>
        <pt x="302" y="711" on="0"/>
        <pt x="258" y="711" on="1"/>
        <pt x="164" y="711" on="0"/>
      </contour>
    </TTGlyph>
    <TTGlyph name="five" xMin="42" yMin="-9" xMax="395" yMax="540">
      <contour>
        <pt x="97" y="6" on="0"/>
        <pt x="42" y="54" on="0"/>
        <pt x="42" y="118" on="0"/>
        <pt x="68" y="147" on="0"/>
        <pt x="87" y="147" on="1"/>
        <pt x="129" y="147" on="0"/>
        <pt x="129" y="112" on="1"/>
        <pt x="129" y="102" on="0"/>
        <pt x="121" y="82" on="0"/>
        <pt x="121" y="77" on="1"/>
        <pt x="121" y="47" on="0"/>
        <pt x="170" y="16" on="0"/>
        <pt x="203" y="16" on="1"/>
        <pt x="261" y="16" on="0"/>
        <pt x="309" y="94" on="0"/>
        <pt x="309" y="236" on="0"/>
        <pt x="248" y="310" on="0"/>
        <pt x="189" y="310" on="1"/>
        <pt x="159" y="310" on="0"/>
        <pt x="99" y="281" on="0"/>
        <pt x="86" y="260" on="1"/>
        <pt x="85" y="259" on="0"/>
        <pt x="84" y="259" on="1"/>
        <pt x="70" y="259" on="1"/>
        <pt x="66" y="259" on="0"/>
        <pt x="65" y="260" on="1"/>
        <pt x="84" y="537" on="1"/>
        <pt x="308" y="537" on="1"/>
        <pt x="344" y="537" on="0"/>
        <pt x="377" y="540" on="1"/>
        <pt x="350" y="484" on="0"/>
        <pt x="341" y="414" on="1"/>
        <pt x="315" y="414" on="1"/>
        <pt x="317" y="428" on="0"/>
        <pt x="317" y="454" on="0"/>
        <pt x="302" y="472" on="0"/>
        <pt x="288" y="472" on="1"/>
        <pt x="111" y="472" on="1"/>
        <pt x="96" y="301" on="1"/>
        <pt x="150" y="343" on="0"/>
        <pt x="300" y="343" on="0"/>
        <pt x="395" y="253" on="0"/>
        <pt x="395" y="88" on="0"/>
        <pt x="285" y="-9" on="0"/>
        <pt x="203" y="-9" on="1"/>
        <pt x="163" y="-9" on="0"/>
      </contour>
    </TTGlyph>
    <TTGlyph name="florin" xMin="-119" yMin="-188" xMax="456" yMax="663">
      <contour>
        <pt x="-82" y="-188" on="0"/>
        <pt x="-119" y="-177" on="0"/>
        <pt x="-119" y="-144" on="0"/>
        <pt x="-97" y="-115" on="0"/>
        <pt x="-73" y="-115" on="0"/>
        <pt x="-60" y="-138" on="0"/>
        <pt x="-43" y="-162" on="0"/>
        <pt x="-2" y="-162" on="0"/>
        <pt x="29" y="-128" on="0"/>
        <pt x="69" y="-42" on="0"/>
        <pt x="112" y="184" on="1"/>
        <pt x="153" y="389" on="1"/>
        <pt x="59" y="389" on="1"/>
        <pt x="86" y="420" on="1"/>
        <pt x="160" y="420" on="1"/>
        <pt x="179" y="490" on="1"/>
        <pt x="194" y="549" on="0"/>
        <pt x="234" y="600" on="1"/>
        <pt x="255" y="628" on="0"/>
        <pt x="322" y="663" on="0"/>
        <pt x="363" y="663" on="1"/>
        <pt x="456" y="663" on="0"/>
        <pt x="456" y="588" on="0"/>
        <pt x="424" y="588" on="1"/>
        <pt x="408" y="588" on="0"/>
        <pt x="393" y="603" on="0"/>
        <pt x="391" y="621" on="0"/>
        <pt x="375" y="636" on="0"/>
        <pt x="335" y="636" on="0"/>
        <pt x="293" y="582" on="0"/>
        <pt x="280" y="543" on="1"/>
        <pt x="256" y="465" on="0"/>
        <pt x="251" y="420" on="1"/>
        <pt x="350" y="420" on="1"/>
        <pt x="350" y="405" on="1"/>
        <pt x="321" y="389" on="1"/>
        <pt x="245" y="389" on="1"/>
        <pt x="182" y="87" on="1"/>
        <pt x="161" y="-11" on="0"/>
        <pt x="112" y="-92" on="1"/>
        <pt x="85" y="-135" on="0"/>
        <pt x="8" y="-188" on="0"/>
      </contour>
    </TTGlyph>
    <TTGlyph name="four" xMin="13" yMin="0" xMax="395" yMax="544">
      <contour>
        <pt x="249" y="138" on="1"/>
        <pt x="13" y="138" on="1"/>
        <pt x="13" y="194" on="1"/>
        <pt x="27" y="206" on="0"/>
        <pt x="39" y="221" on="1"/>
        <pt x="64" y="249" on="1"/>
        <pt x="266" y="499" on="1"/>
        <pt x="298" y="544" on="1"/>
        <pt x="328" y="544" on="1"/>
        <pt x="328" y="202" on="1"/>
        <pt x="395" y="202" on="1"/>
        <pt x="395" y="138" on="1"/>
        <pt x="328" y="138" on="1"/>
        <pt x="328" y="40" on="1"/>
        <pt x="328" y="22" on="0"/>
        <pt x="344" y="22" on="1"/>
        <pt x="382" y="23" on="1"/>
        <pt x="382" y="0" on="1"/>
        <pt x="175" y="0" on="1"/>
        <pt x="175" y="23" on="1"/>
        <pt x="233" y="22" on="1"/>
        <pt x="249" y="22" on="0"/>
        <pt x="249" y="40" on="1"/>
      </contour>
      <contour>
        <pt x="249" y="435" on="1"/>
        <pt x="62" y="202" on="1"/>
        <pt x="249" y="202" on="1"/>
      </contour>
    </TTGlyph>
    <TTGlyph name="g" xMin="32" yMin="-245" xMax="467" yMax="505">
      <contour>
        <pt x="215" y="-245" on="1"/>
        <pt x="32" y="-245" on="0"/>
        <pt x="32" y="-108" on="1"/>
        <pt x="32" y="-38" on="0"/>
        <pt x="122" y="5" on="1"/>
        <pt x="96" y="12" on="0"/>
        <pt x="70" y="23" on="0"/>
        <pt x="45" y="56" on="0"/>
        <pt x="45" y="105" on="0"/>
        <pt x="119" y="153" on="0"/>
        <pt x="123" y="159" on="1"/>
        <pt x="93" y="173" on="0"/>
        <pt x="57" y="239" on="0"/>
        <pt x="57" y="280" on="1"/>
        <pt x="57" y="347" on="0"/>
        <pt x="152" y="430" on="0"/>
        <pt x="227" y="430" on="1"/>
        <pt x="266" y="430" on="0"/>
        <pt x="303" y="418" on="1"/>
        <pt x="328" y="452" on="0"/>
        <pt x="401" y="505" on="0"/>
        <pt x="446" y="505" on="0"/>
        <pt x="467" y="478" on="0"/>
        <pt x="467" y="448" on="0"/>
        <pt x="449" y="424" on="0"/>
        <pt x="417" y="424" on="0"/>
        <pt x="398" y="447" on="0"/>
        <pt x="380" y="447" on="0"/>
        <pt x="337" y="425" on="0"/>
        <pt x="324" y="409" on="1"/>
        <pt x="398" y="379" on="0"/>
        <pt x="398" y="280" on="1"/>
        <pt x="398" y="214" on="0"/>
        <pt x="304" y="131" on="0"/>
        <pt x="227" y="131" on="1"/>
        <pt x="186" y="131" on="0"/>
        <pt x="152" y="145" on="1"/>
        <pt x="113" y="125" on="0"/>
        <pt x="113" y="102" on="1"/>
        <pt x="113" y="65" on="0"/>
        <pt x="171" y="65" on="1"/>
        <pt x="304" y="65" on="1"/>
        <pt x="378" y="65" on="0"/>
        <pt x="453" y="1" on="0"/>
        <pt x="453" y="-152" on="0"/>
        <pt x="323" y="-245" on="0"/>
      </contour>
      <contour>
        <pt x="158" y="0" on="0"/>
        <pt x="81" y="-67" on="0"/>
        <pt x="81" y="-159" on="0"/>
        <pt x="148" y="-219" on="0"/>
        <pt x="297" y="-219" on="0"/>
        <pt x="387" y="-143" on="0"/>
        <pt x="387" y="-81" on="1"/>
        <pt x="387" y="0" on="0"/>
        <pt x="289" y="0" on="1"/>
        <pt x="200" y="0" on="1"/>
      </contour>
      <contour>
        <pt x="181" y="403" on="0"/>
        <pt x="146" y="350" on="0"/>
        <pt x="146" y="208" on="0"/>
        <pt x="180" y="154" on="0"/>
        <pt x="274" y="154" on="0"/>
        <pt x="309" y="211" on="0"/>
        <pt x="309" y="347" on="0"/>
        <pt x="273" y="403" on="0"/>
      </contour>
    </TTGlyph>
    <TTGlyph name="germandbls" xMin="35" yMin="-8" xMax="529" yMax="737">
      <contour>
        <pt x="230" y="0" on="1"/>
        <pt x="35" y="0" on="1"/>
        <pt x="35" y="29" on="1"/>
        <pt x="71" y="27" on="1"/>
        <pt x="84" y="27" on="0"/>
        <pt x="84" y="48" on="1"/>
        <pt x="84" y="512" on="1"/>
        <pt x="84" y="737" on="0"/>
        <pt x="257" y="737" on="1"/>
        <pt x="339" y="737" on="0"/>
        <pt x="438" y="675" on="0"/>
        <pt x="438" y="622" on="1"/>
        <pt x="438" y="586" on="0"/>
        <pt x="390" y="535" on="0"/>
        <pt x="315" y="492" on="0"/>
        <pt x="289" y="457" on="0"/>
        <pt x="289" y="427" on="1"/>
        <pt x="289" y="384" on="0"/>
        <pt x="353" y="340" on="1"/>
        <pt x="440" y="277" on="1"/>
        <pt x="529" y="215" on="0"/>
        <pt x="529" y="70" on="0"/>
        <pt x="428" y="-8" on="0"/>
        <pt x="348" y="-8" on="1"/>
        <pt x="313" y="-8" on="0"/>
        <pt x="250" y="32" on="0"/>
        <pt x="250" y="101" on="0"/>
        <pt x="283" y="101" on="1"/>
        <pt x="318" y="101" on="0"/>
        <pt x="322" y="61" on="1"/>
        <pt x="324" y="46" on="0"/>
        <pt x="347" y="21" on="0"/>
        <pt x="370" y="21" on="1"/>
        <pt x="450" y="21" on="0"/>
        <pt x="450" y="99" on="1"/>
        <pt x="450" y="164" on="0"/>
        <pt x="375" y="219" on="1"/>
        <pt x="289" y="281" on="1"/>
        <pt x="210" y="339" on="0"/>
        <pt x="210" y="386" on="1"/>
        <pt x="210" y="419" on="0"/>
        <pt x="243" y="466" on="0"/>
        <pt x="327" y="525" on="0"/>
        <pt x="359" y="573" on="0"/>
        <pt x="359" y="657" on="0"/>
        <pt x="305" y="712" on="0"/>
        <pt x="212" y="712" on="0"/>
        <pt x="155" y="652" on="0"/>
        <pt x="155" y="601" on="1"/>
        <pt x="155" y="580" on="0"/>
        <pt x="170" y="460" on="0"/>
        <pt x="170" y="434" on="1"/>
        <pt x="170" y="48" on="1"/>
        <pt x="170" y="27" on="0"/>
        <pt x="184" y="27" on="1"/>
        <pt x="230" y="29" on="1"/>
      </contour>
    </TTGlyph>
    <TTGlyph name="grave" xMin="183" yMin="493" xMax="389" yMax="653">
      <contour>
        <pt x="193" y="614" on="1"/>
        <pt x="183" y="622" on="0"/>
        <pt x="183" y="633" on="0"/>
        <pt x="223" y="653" on="0"/>
        <pt x="247" y="653" on="0"/>
        <pt x="253" y="650" on="1"/>
        <pt x="261" y="646" on="0"/>
        <pt x="276" y="628" on="1"/>
        <pt x="371" y="524" on="1"/>
        <pt x="389" y="504" on="0"/>
        <pt x="389" y="501" on="1"/>
        <pt x="389" y="493" on="0"/>
        <pt x="365" y="493" on="0"/>
        <pt x="356" y="502" on="1"/>
      </contour>
    </TTGlyph>
    <TTGlyph name="greater" xMin="54" yMin="-5" xMax="406" yMax="442">
      <contour>
        <pt x="406" y="207" on="1"/>
        <pt x="54" y="-5" on="1"/>
        <pt x="54" y="43" on="1"/>
        <pt x="310" y="198" on="1"/>
        <pt x="353" y="218" on="1"/>
        <pt x="310" y="239" on="1"/>
        <pt x="54" y="393" on="1"/>
        <pt x="54" y="442" on="1"/>
        <pt x="406" y="231" on="1"/>
      </contour>
    </TTGlyph>
    <TTGlyph name="guillemotleft" xMin="26" yMin="16" xMax="377" yMax="358">
      <contour>
        <pt x="175" y="16" on="1"/>
        <pt x="26" y="187" on="1"/>
        <pt x="175" y="358" on="1"/>
        <pt x="211" y="358" on="1"/>
        <pt x="113" y="187" on="1"/>
        <pt x="211" y="16" on="1"/>
      </contour>
      <contour>
        <pt x="342" y="16" on="1"/>
        <pt x="193" y="187" on="1"/>
        <pt x="342" y="358" on="1"/>
        <pt x="377" y="358" on="1"/>
        <pt x="280" y="187" on="1"/>
        <pt x="377" y="16" on="1"/>
      </contour>
    </TTGlyph>
    <TTGlyph name="guillemotright" xMin="58" yMin="16" xMax="414" yMax="358">
      <contour>
        <pt x="94" y="16" on="1"/>
        <pt x="58" y="16" on="1"/>
        <pt x="155" y="187" on="1"/>
        <pt x="58" y="358" on="1"/>
        <pt x="94" y="358" on="1"/>
        <pt x="242" y="187" on="1"/>
      </contour>
      <contour>
        <pt x="266" y="16" on="1"/>
        <pt x="230" y="16" on="1"/>
        <pt x="327" y="187" on="1"/>
        <pt x="230" y="358" on="1"/>
        <pt x="266" y="358" on="1"/>
        <pt x="414" y="187" on="1"/>
      </contour>
    </TTGlyph>
    <TTGlyph name="guilsinglleft" xMin="26" yMin="16" xMax="211" yMax="358">
      <contour>
        <pt x="175" y="16" on="1"/>
        <pt x="26" y="187" on="1"/>
        <pt x="175" y="358" on="1"/>
        <pt x="211" y="358" on="1"/>
        <pt x="113" y="187" on="1"/>
        <pt x="211" y="16" on="1"/>
      </contour>
    </TTGlyph>
    <TTGlyph name="guilsinglright" xMin="15" yMin="16" xMax="200" yMax="358">
      <contour>
        <pt x="51" y="16" on="1"/>
        <pt x="15" y="16" on="1"/>
        <pt x="113" y="187" on="1"/>
        <pt x="15" y="358" on="1"/>
        <pt x="51" y="358" on="1"/>
        <pt x="200" y="187" on="1"/>
      </contour>
    </TTGlyph>
    <TTGlyph name="h" xMin="35" yMin="0" xMax="505" yMax="730">
      <contour>
        <pt x="230" y="0" on="1"/>
        <pt x="35" y="0" on="1"/>
        <pt x="35" y="26" on="1"/>
        <pt x="72" y="24" on="1"/>
        <pt x="85" y="27" on="0"/>
        <pt x="85" y="43" on="1"/>
        <pt x="85" y="686" on="1"/>
        <pt x="85" y="707" on="0"/>
        <pt x="72" y="707" on="1"/>
        <pt x="35" y="705" on="1"/>
        <pt x="35" y="730" on="1"/>
        <pt x="171" y="730" on="1"/>
        <pt x="171" y="331" on="1"/>
        <pt x="192" y="377" on="0"/>
        <pt x="270" y="430" on="0"/>
        <pt x="392" y="430" on="0"/>
        <pt x="455" y="363" on="0"/>
        <pt x="455" y="288" on="1"/>
        <pt x="455" y="43" on="1"/>
        <pt x="455" y="24" on="0"/>
        <pt x="468" y="24" on="1"/>
        <pt x="505" y="26" on="1"/>
        <pt x="505" y="0" on="1"/>
        <pt x="310" y="0" on="1"/>
        <pt x="310" y="26" on="1"/>
        <pt x="356" y="24" on="1"/>
        <pt x="369" y="27" on="0"/>
        <pt x="369" y="43" on="1"/>
        <pt x="369" y="270" on="1"/>
        <pt x="369" y="341" on="0"/>
        <pt x="345" y="398" on="0"/>
        <pt x="302" y="398" on="1"/>
        <pt x="242" y="398" on="0"/>
        <pt x="171" y="294" on="0"/>
        <pt x="171" y="208" on="1"/>
        <pt x="171" y="43" on="1"/>
        <pt x="171" y="24" on="0"/>
        <pt x="184" y="24" on="1"/>
        <pt x="230" y="26" on="1"/>
      </contour>
    </TTGlyph>
    <TTGlyph name="hyphen" xMin="22" yMin="189" xMax="228" yMax="244">
      <contour>
        <pt x="228" y="189" on="1"/>
        <pt x="22" y="189" on="1"/>
        <pt x="22" y="244" on="1"/>
        <pt x="228" y="244" on="1"/>
      </contour>
    </TTGlyph>
    <TTGlyph name="i" xMin="35" yMin="0" xMax="220" yMax="680">
      <contour>
        <pt x="220" y="0" on="1"/>
        <pt x="35" y="0" on="1"/>
        <pt x="35" y="26" on="1"/>
        <pt x="72" y="24" on="1"/>
        <pt x="85" y="24" on="0"/>
        <pt x="85" y="43" on="1"/>
        <pt x="85" y="376" on="1"/>
        <pt x="85" y="393" on="0"/>
        <pt x="73" y="396" on="1"/>
        <pt x="36" y="394" on="1"/>
        <pt x="36" y="420" on="1"/>
        <pt x="171" y="420" on="1"/>
        <pt x="171" y="43" on="1"/>
        <pt x="171" y="24" on="0"/>
        <pt x="184" y="24" on="1"/>
        <pt x="220" y="26" on="1"/>
      </contour>
      <contour>
        <pt x="97" y="585" on="0"/>
        <pt x="67" y="610" on="0"/>
        <pt x="67" y="654" on="0"/>
        <pt x="97" y="680" on="0"/>
        <pt x="145" y="680" on="0"/>
        <pt x="176" y="654" on="0"/>
        <pt x="176" y="610" on="0"/>
        <pt x="146" y="585" on="0"/>
      </contour>
    </TTGlyph>
    <TTGlyph name="iacute" xMin="35" yMin="0" xMax="249" yMax="662">
      <contour>
        <pt x="220" y="0" on="1"/>
        <pt x="35" y="0" on="1"/>
        <pt x="35" y="26" on="1"/>
        <pt x="72" y="24" on="1"/>
        <pt x="85" y="24" on="0"/>
        <pt x="85" y="43" on="1"/>
        <pt x="85" y="376" on="1"/>
        <pt x="85" y="393" on="0"/>
        <pt x="73" y="396" on="1"/>
        <pt x="36" y="394" on="1"/>
        <pt x="36" y="420" on="1"/>
        <pt x="171" y="420" on="1"/>
        <pt x="171" y="43" on="1"/>
        <pt x="171" y="24" on="0"/>
        <pt x="184" y="24" on="1"/>
        <pt x="220" y="26" on="1"/>
      </contour>
      <contour>
        <pt x="44" y="511" on="1"/>
        <pt x="44" y="515" on="0"/>
        <pt x="49" y="520" on="1"/>
        <pt x="155" y="637" on="1"/>
        <pt x="174" y="659" on="0"/>
        <pt x="185" y="663" on="0"/>
        <pt x="200" y="661" on="0"/>
        <pt x="236" y="653" on="0"/>
        <pt x="249" y="647" on="0"/>
        <pt x="249" y="632" on="0"/>
        <pt x="243" y="627" on="1"/>
        <pt x="67" y="506" on="1"/>
        <pt x="64" y="503" on="0"/>
        <pt x="44" y="503" on="0"/>
      </contour>
    </TTGlyph>
    <TTGlyph name="icircumflex" xMin="-28" yMin="0" xMax="284" yMax="634">
      <contour>
        <pt x="-28" y="486" on="1"/>
        <pt x="-28" y="490" on="0"/>
        <pt x="-7" y="508" on="0"/>
        <pt x="34" y="543" on="0"/>
        <pt x="51" y="561" on="1"/>
        <pt x="98" y="609" on="1"/>
        <pt x="125" y="634" on="0"/>
        <pt x="131" y="634" on="0"/>
        <pt x="158" y="609" on="1"/>
        <pt x="205" y="561" on="1"/>
        <pt x="222" y="543" on="0"/>
        <pt x="263" y="508" on="0"/>
        <pt x="284" y="490" on="0"/>
        <pt x="284" y="486" on="1"/>
        <pt x="284" y="478" on="0"/>
        <pt x="266" y="478" on="0"/>
        <pt x="247" y="490" on="1"/>
        <pt x="128" y="564" on="1"/>
        <pt x="9" y="490" on="1"/>
        <pt x="-10" y="478" on="0"/>
        <pt x="-28" y="478" on="0"/>
      </contour>
      <contour>
        <pt x="220" y="0" on="1"/>
        <pt x="35" y="0" on="1"/>
        <pt x="35" y="26" on="1"/>
        <pt x="72" y="24" on="1"/>
        <pt x="85" y="24" on="0"/>
        <pt x="85" y="43" on="1"/>
        <pt x="85" y="376" on="1"/>
        <pt x="85" y="393" on="0"/>
        <pt x="73" y="396" on="1"/>
        <pt x="36" y="394" on="1"/>
        <pt x="36" y="420" on="1"/>
        <pt x="171" y="420" on="1"/>
        <pt x="171" y="43" on="1"/>
        <pt x="171" y="24" on="0"/>
        <pt x="184" y="24" on="1"/>
        <pt x="220" y="26" on="1"/>
      </contour>
    </TTGlyph>
    <TTGlyph name="idieresis" xMin="-24" yMin="0" xMax="279" yMax="617">
      <contour>
        <pt x="-24" y="547" on="0"/>
        <pt x="-24" y="589" on="0"/>
        <pt x="7" y="617" on="0"/>
        <pt x="52" y="617" on="0"/>
        <pt x="84" y="589" on="0"/>
        <pt x="84" y="547" on="0"/>
        <pt x="54" y="520" on="0"/>
        <pt x="6" y="520" on="0"/>
      </contour>
      <contour>
        <pt x="220" y="0" on="1"/>
        <pt x="35" y="0" on="1"/>
        <pt x="35" y="26" on="1"/>
        <pt x="72" y="24" on="1"/>
        <pt x="85" y="24" on="0"/>
        <pt x="85" y="43" on="1"/>
        <pt x="85" y="376" on="1"/>
        <pt x="85" y="393" on="0"/>
        <pt x="73" y="396" on="1"/>
        <pt x="36" y="394" on="1"/>
        <pt x="36" y="420" on="1"/>
        <pt x="171" y="420" on="1"/>
        <pt x="171" y="43" on="1"/>
        <pt x="171" y="24" on="0"/>
        <pt x="184" y="24" on="1"/>
        <pt x="220" y="26" on="1"/>
      </contour>
      <contour>
        <pt x="171" y="547" on="0"/>
        <pt x="171" y="589" on="0"/>
        <pt x="202" y="617" on="0"/>
        <pt x="247" y="617" on="0"/>
        <pt x="279" y="589" on="0"/>
        <pt x="279" y="547" on="0"/>
        <pt x="249" y="520" on="0"/>
        <pt x="201" y="520" on="0"/>
      </contour>
    </TTGlyph>
    <TTGlyph name="igrave" xMin="15" yMin="0" xMax="221" yMax="653">
      <contour>
        <pt x="25" y="614" on="1"/>
        <pt x="15" y="622" on="0"/>
        <pt x="15" y="633" on="0"/>
        <pt x="55" y="653" on="0"/>
        <pt x="79" y="653" on="0"/>
        <pt x="85" y="650" on="1"/>
        <pt x="93" y="646" on="0"/>
        <pt x="108" y="628" on="1"/>
        <pt x="203" y="524" on="1"/>
        <pt x="221" y="504" on="0"/>
        <pt x="221" y="501" on="1"/>
        <pt x="221" y="493" on="0"/>
        <pt x="197" y="493" on="0"/>
        <pt x="188" y="502" on="1"/>
      </contour>
      <contour>
        <pt x="220" y="0" on="1"/>
        <pt x="35" y="0" on="1"/>
        <pt x="35" y="26" on="1"/>
        <pt x="72" y="24" on="1"/>
        <pt x="85" y="24" on="0"/>
        <pt x="85" y="43" on="1"/>
        <pt x="85" y="376" on="1"/>
        <pt x="85" y="393" on="0"/>
        <pt x="73" y="396" on="1"/>
        <pt x="36" y="394" on="1"/>
        <pt x="36" y="420" on="1"/>
        <pt x="171" y="420" on="1"/>
        <pt x="171" y="43" on="1"/>
        <pt x="171" y="24" on="0"/>
        <pt x="184" y="24" on="1"/>
        <pt x="220" y="26" on="1"/>
      </contour>
    </TTGlyph>
    <TTGlyph name="j" xMin="-58" yMin="-243" xMax="178" yMax="680">
      <contour>
        <pt x="87" y="-133" on="1"/>
        <pt x="85" y="-59" on="1"/>
        <pt x="85" y="376" on="1"/>
        <pt x="85" y="396" on="0"/>
        <pt x="72" y="396" on="1"/>
        <pt x="31" y="394" on="1"/>
        <pt x="31" y="420" on="1"/>
        <pt x="171" y="420" on="1"/>
        <pt x="171" y="-4" on="1"/>
        <pt x="171" y="-243" on="0"/>
        <pt x="28" y="-243" on="1"/>
        <pt x="-23" y="-243" on="0"/>
        <pt x="-58" y="-231" on="0"/>
        <pt x="-58" y="-212" on="1"/>
        <pt x="-58" y="-169" on="0"/>
        <pt x="-33" y="-169" on="1"/>
        <pt x="-23" y="-169" on="0"/>
        <pt x="-17" y="-176" on="1"/>
        <pt x="-4" y="-192" on="1"/>
        <pt x="14" y="-216" on="0"/>
        <pt x="34" y="-216" on="1"/>
        <pt x="87" y="-216" on="0"/>
      </contour>
      <contour>
        <pt x="98" y="585" on="0"/>
        <pt x="69" y="610" on="0"/>
        <pt x="69" y="655" on="0"/>
        <pt x="99" y="680" on="0"/>
        <pt x="147" y="680" on="0"/>
        <pt x="178" y="654" on="0"/>
        <pt x="178" y="610" on="0"/>
        <pt x="147" y="585" on="0"/>
      </contour>
    </TTGlyph>
    <TTGlyph name="k" xMin="35" yMin="0" xMax="504" yMax="730">
      <contour>
        <pt x="230" y="0" on="1"/>
        <pt x="35" y="0" on="1"/>
        <pt x="35" y="26" on="1"/>
        <pt x="72" y="24" on="1"/>
        <pt x="85" y="27" on="0"/>
        <pt x="85" y="43" on="1"/>
        <pt x="85" y="686" on="1"/>
        <pt x="85" y="707" on="0"/>
        <pt x="73" y="707" on="1"/>
        <pt x="36" y="705" on="1"/>
        <pt x="36" y="730" on="1"/>
        <pt x="171" y="730" on="1"/>
        <pt x="171" y="237" on="1"/>
        <pt x="334" y="377" on="1"/>
        <pt x="343" y="386" on="0"/>
        <pt x="337" y="397" on="0"/>
        <pt x="331" y="397" on="1"/>
        <pt x="288" y="395" on="1"/>
        <pt x="288" y="420" on="1"/>
        <pt x="450" y="420" on="1"/>
        <pt x="450" y="395" on="1"/>
        <pt x="414" y="397" on="1"/>
        <pt x="399" y="397" on="0"/>
        <pt x="383" y="383" on="1"/>
        <pt x="266" y="283" on="1"/>
        <pt x="441" y="42" on="1"/>
        <pt x="454" y="24" on="0"/>
        <pt x="468" y="24" on="1"/>
        <pt x="504" y="26" on="1"/>
        <pt x="504" y="0" on="1"/>
        <pt x="289" y="0" on="1"/>
        <pt x="289" y="26" on="1"/>
        <pt x="334" y="24" on="1"/>
        <pt x="343" y="23" on="0"/>
        <pt x="347" y="33" on="0"/>
        <pt x="343" y="38" on="1"/>
        <pt x="204" y="230" on="1"/>
        <pt x="171" y="202" on="1"/>
        <pt x="171" y="43" on="1"/>
        <pt x="171" y="24" on="0"/>
        <pt x="184" y="24" on="1"/>
        <pt x="230" y="26" on="1"/>
      </contour>
    </TTGlyph>
    <TTGlyph name="l" xMin="35" yMin="0" xMax="220" yMax="731">
      <contour>
        <pt x="220" y="0" on="1"/>
        <pt x="35" y="0" on="1"/>
        <pt x="35" y="26" on="1"/>
        <pt x="72" y="24" on="1"/>
        <pt x="85" y="27" on="0"/>
        <pt x="85" y="43" on="1"/>
        <pt x="85" y="687" on="1"/>
        <pt x="85" y="704" on="0"/>
        <pt x="73" y="708" on="1"/>
        <pt x="36" y="706" on="1"/>
        <pt x="36" y="731" on="1"/>
        <pt x="171" y="731" on="1"/>
        <pt x="171" y="43" on="1"/>
        <pt x="171" y="24" on="0"/>
        <pt x="184" y="24" on="1"/>
        <pt x="220" y="26" on="1"/>
      </contour>
    </TTGlyph>
    <TTGlyph name="less" xMin="54" yMin="-5" xMax="406" yMax="442">
      <contour>
        <pt x="406" y="-5" on="1"/>
        <pt x="54" y="206" on="1"/>
        <pt x="54" y="230" on="1"/>
        <pt x="406" y="442" on="1"/>
        <pt x="406" y="394" on="1"/>
        <pt x="149" y="239" on="1"/>
        <pt x="106" y="219" on="1"/>
        <pt x="149" y="198" on="1"/>
        <pt x="406" y="44" on="1"/>
      </contour>
    </TTGlyph>
    <TTGlyph name="logicalnot" xMin="20" yMin="146" xMax="440" yMax="360">
      <contour>
        <pt x="397" y="319" on="1"/>
        <pt x="20" y="319" on="1"/>
        <pt x="20" y="360" on="1"/>
        <pt x="440" y="360" on="1"/>
        <pt x="440" y="146" on="1"/>
        <pt x="397" y="146" on="1"/>
      </contour>
    </TTGlyph>
    <TTGlyph name="m" xMin="35" yMin="0" xMax="781" yMax="430">
      <contour>
        <pt x="230" y="0" on="1"/>
        <pt x="35" y="0" on="1"/>
        <pt x="35" y="26" on="1"/>
        <pt x="72" y="24" on="1"/>
        <pt x="85" y="27" on="0"/>
        <pt x="85" y="43" on="1"/>
        <pt x="85" y="376" on="1"/>
        <pt x="85" y="396" on="0"/>
        <pt x="72" y="396" on="1"/>
        <pt x="35" y="394" on="1"/>
        <pt x="35" y="420" on="1"/>
        <pt x="177" y="420" on="1"/>
        <pt x="172" y="405" on="0"/>
        <pt x="172" y="386" on="1"/>
        <pt x="171" y="328" on="1"/>
        <pt x="186" y="373" on="0"/>
        <pt x="262" y="430" on="0"/>
        <pt x="317" y="430" on="1"/>
        <pt x="440" y="430" on="0"/>
        <pt x="447" y="316" on="1"/>
        <pt x="464" y="371" on="0"/>
        <pt x="544" y="430" on="0"/>
        <pt x="668" y="430" on="0"/>
        <pt x="731" y="363" on="0"/>
        <pt x="731" y="288" on="1"/>
        <pt x="731" y="43" on="1"/>
        <pt x="731" y="24" on="0"/>
        <pt x="744" y="24" on="1"/>
        <pt x="781" y="26" on="1"/>
        <pt x="781" y="0" on="1"/>
        <pt x="586" y="0" on="1"/>
        <pt x="586" y="26" on="1"/>
        <pt x="632" y="24" on="1"/>
        <pt x="645" y="27" on="0"/>
        <pt x="645" y="43" on="1"/>
        <pt x="645" y="270" on="1"/>
        <pt x="645" y="341" on="0"/>
        <pt x="621" y="398" on="0"/>
        <pt x="578" y="398" on="1"/>
        <pt x="522" y="398" on="0"/>
        <pt x="451" y="293" on="0"/>
        <pt x="451" y="208" on="1"/>
        <pt x="451" y="43" on="1"/>
        <pt x="451" y="24" on="0"/>
        <pt x="464" y="24" on="1"/>
        <pt x="511" y="26" on="1"/>
        <pt x="511" y="0" on="1"/>
        <pt x="306" y="0" on="1"/>
        <pt x="306" y="26" on="1"/>
        <pt x="352" y="24" on="1"/>
        <pt x="365" y="27" on="0"/>
        <pt x="365" y="43" on="1"/>
        <pt x="365" y="272" on="1"/>
        <pt x="365" y="348" on="0"/>
        <pt x="338" y="397" on="0"/>
        <pt x="239" y="397" on="0"/>
        <pt x="171" y="292" on="0"/>
        <pt x="171" y="210" on="1"/>
        <pt x="171" y="43" on="1"/>
        <pt x="171" y="24" on="0"/>
        <pt x="184" y="24" on="1"/>
        <pt x="230" y="26" on="1"/>
      </contour>
    </TTGlyph>
    <TTGlyph name="middot" xMin="50" yMin="127" xMax="180" yMax="242">
      <contour>
        <pt x="50" y="158" on="0"/>
        <pt x="50" y="210" on="0"/>
        <pt x="87" y="242" on="0"/>
        <pt x="143" y="242" on="0"/>
        <pt x="180" y="210" on="0"/>
        <pt x="180" y="158" on="0"/>
        <pt x="143" y="127" on="0"/>
        <pt x="87" y="127" on="0"/>
      </contour>
    </TTGlyph>
    <TTGlyph name="multiply" xMin="64" yMin="102" xMax="396" yMax="433">
      <contour>
        <pt x="94" y="103" on="1"/>
        <pt x="64" y="131" on="1"/>
        <pt x="202" y="268" on="1"/>
        <pt x="66" y="403" on="1"/>
        <pt x="95" y="432" on="1"/>
        <pt x="229" y="296" on="1"/>
        <pt x="366" y="433" on="1"/>
        <pt x="396" y="404" on="1"/>
        <pt x="259" y="268" on="1"/>
        <pt x="396" y="130" on="1"/>
        <pt x="368" y="102" on="1"/>
        <pt x="230" y="239" on="1"/>
      </contour>
    </TTGlyph>
    <TTGlyph name="n" xMin="35" yMin="0" xMax="505" yMax="430">
      <contour>
        <pt x="230" y="0" on="1"/>
        <pt x="35" y="0" on="1"/>
        <pt x="35" y="26" on="1"/>
        <pt x="72" y="24" on="1"/>
        <pt x="85" y="27" on="0"/>
        <pt x="85" y="43" on="1"/>
        <pt x="85" y="376" on="1"/>
        <pt x="85" y="393" on="0"/>
        <pt x="72" y="396" on="1"/>
        <pt x="35" y="394" on="1"/>
        <pt x="35" y="420" on="1"/>
        <pt x="176" y="420" on="1"/>
        <pt x="171" y="405" on="0"/>
        <pt x="171" y="385" on="1"/>
        <pt x="171" y="331" on="1"/>
        <pt x="192" y="377" on="0"/>
        <pt x="270" y="430" on="0"/>
        <pt x="392" y="430" on="0"/>
        <pt x="455" y="363" on="0"/>
        <pt x="455" y="288" on="1"/>
        <pt x="455" y="43" on="1"/>
        <pt x="455" y="24" on="0"/>
        <pt x="468" y="24" on="1"/>
        <pt x="505" y="26" on="1"/>
        <pt x="505" y="0" on="1"/>
        <pt x="310" y="0" on="1"/>
        <pt x="310" y="26" on="1"/>
        <pt x="356" y="24" on="1"/>
        <pt x="369" y="27" on="0"/>
        <pt x="369" y="43" on="1"/>
        <pt x="369" y="270" on="1"/>
        <pt x="369" y="341" on="0"/>
        <pt x="345" y="398" on="0"/>
        <pt x="302" y="398" on="1"/>
        <pt x="242" y="398" on="0"/>
        <pt x="171" y="294" on="0"/>
        <pt x="171" y="208" on="1"/>
        <pt x="171" y="43" on="1"/>
        <pt x="171" y="24" on="0"/>
        <pt x="184" y="24" on="1"/>
        <pt x="230" y="26" on="1"/>
      </contour>
    </TTGlyph>
    <TTGlyph name="nine" xMin="40" yMin="-10" xMax="388" yMax="549">
      <contour>
        <pt x="150" y="90" on="1"/>
        <pt x="145" y="58" on="1"/>
        <pt x="145" y="42" on="0"/>
        <pt x="171" y="17" on="0"/>
        <pt x="193" y="17" on="1"/>
        <pt x="244" y="17" on="0"/>
        <pt x="297" y="132" on="0"/>
        <pt x="301" y="225" on="1"/>
        <pt x="270" y="179" on="0"/>
        <pt x="211" y="179" on="1"/>
        <pt x="130" y="179" on="0"/>
        <pt x="40" y="276" on="0"/>
        <pt x="40" y="444" on="0"/>
        <pt x="136" y="549" on="0"/>
        <pt x="211" y="549" on="1"/>
        <pt x="314" y="549" on="0"/>
        <pt x="353" y="476" on="1"/>
        <pt x="388" y="410" on="0"/>
        <pt x="388" y="304" on="1"/>
        <pt x="388" y="-10" on="0"/>
        <pt x="181" y="-10" on="1"/>
        <pt x="124" y="-10" on="0"/>
        <pt x="64" y="35" on="0"/>
        <pt x="64" y="77" on="1"/>
        <pt x="64" y="99" on="0"/>
        <pt x="89" y="124" on="0"/>
        <pt x="109" y="124" on="1"/>
        <pt x="150" y="124" on="0"/>
      </contour>
      <contour>
        <pt x="126" y="364" on="1"/>
        <pt x="126" y="201" on="0"/>
        <pt x="211" y="201" on="1"/>
        <pt x="280" y="201" on="0"/>
        <pt x="295" y="270" on="1"/>
        <pt x="303" y="308" on="0"/>
        <pt x="303" y="432" on="0"/>
        <pt x="256" y="528" on="0"/>
        <pt x="165" y="528" on="0"/>
        <pt x="126" y="448" on="0"/>
      </contour>
    </TTGlyph>
    <TTGlyph name="ntilde" xMin="35" yMin="0" xMax="505" yMax="616">
      <component glyphName="n" x="0" y="0" flags="0x1004"/>
      <component glyphName="tilde" x="62" y="0" flags="0x1004"/>
    </TTGlyph>
    <TTGlyph name="numbersign" xMin="18" yMin="-9" xMax="487" yMax="639">
      <contour>
        <pt x="117" y="194" on="1"/>
        <pt x="18" y="194" on="1"/>
        <pt x="29" y="234" on="1"/>
        <pt x="128" y="234" on="1"/>
        <pt x="180" y="405" on="1"/>
        <pt x="80" y="405" on="1"/>
        <pt x="91" y="445" on="1"/>
        <pt x="191" y="445" on="1"/>
        <pt x="250" y="639" on="1"/>
        <pt x="290" y="639" on="1"/>
        <pt x="231" y="445" on="1"/>
        <pt x="345" y="445" on="1"/>
        <pt x="404" y="639" on="1"/>
        <pt x="444" y="639" on="1"/>
        <pt x="386" y="445" on="1"/>
        <pt x="487" y="445" on="1"/>
        <pt x="476" y="405" on="1"/>
        <pt x="374" y="405" on="1"/>
        <pt x="323" y="234" on="1"/>
        <pt x="424" y="234" on="1"/>
        <pt x="412" y="194" on="1"/>
        <pt x="311" y="194" on="1"/>
        <pt x="250" y="-9" on="1"/>
        <pt x="210" y="-9" on="1"/>
        <pt x="271" y="194" on="1"/>
        <pt x="157" y="194" on="1"/>
        <pt x="96" y="-9" on="1"/>
        <pt x="56" y="-9" on="1"/>
      </contour>
      <contour>
        <pt x="220" y="405" on="1"/>
        <pt x="168" y="234" on="1"/>
        <pt x="283" y="234" on="1"/>
        <pt x="334" y="405" on="1"/>
      </contour>
    </TTGlyph>
    <TTGlyph name="o" xMin="35" yMin="-10" xMax="437" yMax="430">
      <contour>
        <pt x="137" y="-10" on="0"/>
        <pt x="35" y="107" on="0"/>
        <pt x="35" y="313" on="0"/>
        <pt x="137" y="430" on="0"/>
        <pt x="335" y="430" on="0"/>
        <pt x="437" y="313" on="0"/>
        <pt x="437" y="107" on="0"/>
        <pt x="335" y="-10" on="0"/>
      </contour>
      <contour>
        <pt x="177" y="403" on="0"/>
        <pt x="126" y="311" on="0"/>
        <pt x="126" y="108" on="0"/>
        <pt x="177" y="17" on="0"/>
        <pt x="295" y="17" on="0"/>
        <pt x="346" y="108" on="0"/>
        <pt x="346" y="311" on="0"/>
        <pt x="295" y="403" on="0"/>
      </contour>
    </TTGlyph>
    <TTGlyph name="oacute" xMin="35" yMin="-10" xMax="437" yMax="662">
      <contour>
        <pt x="137" y="-10" on="0"/>
        <pt x="35" y="107" on="0"/>
        <pt x="35" y="313" on="0"/>
        <pt x="137" y="430" on="0"/>
        <pt x="335" y="430" on="0"/>
        <pt x="437" y="313" on="0"/>
        <pt x="437" y="107" on="0"/>
        <pt x="335" y="-10" on="0"/>
      </contour>
      <contour>
        <pt x="177" y="403" on="0"/>
        <pt x="126" y="311" on="0"/>
        <pt x="126" y="108" on="0"/>
        <pt x="177" y="17" on="0"/>
        <pt x="295" y="17" on="0"/>
        <pt x="346" y="108" on="0"/>
        <pt x="346" y="311" on="0"/>
        <pt x="295" y="403" on="0"/>
      </contour>
      <contour>
        <pt x="143" y="511" on="1"/>
        <pt x="143" y="515" on="0"/>
        <pt x="148" y="520" on="1"/>
        <pt x="254" y="637" on="1"/>
        <pt x="273" y="659" on="0"/>
        <pt x="284" y="663" on="0"/>
        <pt x="299" y="661" on="0"/>
        <pt x="335" y="653" on="0"/>
        <pt x="348" y="647" on="0"/>
        <pt x="348" y="632" on="0"/>
        <pt x="342" y="627" on="1"/>
        <pt x="166" y="506" on="1"/>
        <pt x="163" y="503" on="0"/>
        <pt x="143" y="503" on="0"/>
      </contour>
    </TTGlyph>
    <TTGlyph name="ocircumflex" xMin="35" yMin="-10" xMax="437" yMax="634">
      <component glyphName="o" x="0" y="0" flags="0x1004"/>
      <component glyphName="circumflex" x="31" y="0" flags="0x1004"/>
    </TTGlyph>
    <TTGlyph name="odieresis" xMin="35" yMin="-10" xMax="437" yMax="617">
      <component glyphName="o" x="0" y="0" flags="0x1004"/>
      <component glyphName="dieresis" x="7" y="0" flags="0x1004"/>
    </TTGlyph>
    <TTGlyph name="oe" xMin="35" yMin="-10" xMax="726" yMax="430">
      <contour>
        <pt x="138" y="-10" on="0"/>
        <pt x="35" y="108" on="0"/>
        <pt x="35" y="303" on="0"/>
        <pt x="129" y="430" on="0"/>
        <pt x="227" y="430" on="1"/>
        <pt x="346" y="430" on="0"/>
        <pt x="391" y="356" on="1"/>
        <pt x="418" y="395" on="0"/>
        <pt x="490" y="430" on="0"/>
        <pt x="551" y="430" on="1"/>
        <pt x="633" y="430" on="0"/>
        <pt x="726" y="329" on="0"/>
        <pt x="726" y="239" on="1"/>
        <pt x="726" y="217" on="1"/>
        <pt x="432" y="217" on="1"/>
        <pt x="432" y="124" on="0"/>
        <pt x="502" y="23" on="0"/>
        <pt x="568" y="23" on="1"/>
        <pt x="610" y="23" on="0"/>
        <pt x="690" y="78" on="0"/>
        <pt x="700" y="110" on="1"/>
        <pt x="723" y="93" on="1"/>
        <pt x="705" y="47" on="0"/>
        <pt x="616" y="-10" on="0"/>
        <pt x="556" y="-10" on="1"/>
        <pt x="451" y="-10" on="0"/>
        <pt x="391" y="64" on="1"/>
        <pt x="361" y="22" on="0"/>
        <pt x="292" y="-10" on="0"/>
        <pt x="228" y="-10" on="1"/>
      </contour>
      <contour>
        <pt x="126" y="203" on="1"/>
        <pt x="126" y="17" on="0"/>
        <pt x="228" y="17" on="1"/>
        <pt x="298" y="17" on="0"/>
        <pt x="345" y="108" on="0"/>
        <pt x="345" y="318" on="0"/>
        <pt x="293" y="403" on="0"/>
        <pt x="227" y="403" on="1"/>
        <pt x="174" y="403" on="0"/>
        <pt x="126" y="306" on="0"/>
      </contour>
      <contour>
        <pt x="432" y="242" on="1"/>
        <pt x="629" y="242" on="1"/>
        <pt x="641" y="242" on="0"/>
        <pt x="641" y="257" on="1"/>
        <pt x="641" y="335" on="0"/>
        <pt x="597" y="403" on="0"/>
        <pt x="546" y="403" on="1"/>
        <pt x="432" y="403" on="0"/>
      </contour>
    </TTGlyph>
    <TTGlyph name="ograve" xMin="35" yMin="-10" xMax="437" yMax="653">
      <component glyphName="o" x="0" y="0" flags="0x1004"/>
      <component glyphName="grave" x="-47" y="0" flags="0x1004"/>
    </TTGlyph>
    <TTGlyph name="one" xMin="61" yMin="0" xMax="282" yMax="555">
      <contour>
        <pt x="61" y="461" on="1"/>
        <pt x="136" y="483" on="0"/>
        <pt x="204" y="555" on="1"/>
        <pt x="219" y="555" on="1"/>
        <pt x="219" y="40" on="1"/>
        <pt x="219" y="22" on="0"/>
        <pt x="234" y="22" on="1"/>
        <pt x="282" y="23" on="1"/>
        <pt x="282" y="0" on="1"/>
        <pt x="75" y="0" on="1"/>
        <pt x="75" y="23" on="1"/>
        <pt x="124" y="22" on="1"/>
        <pt x="140" y="22" on="0"/>
        <pt x="140" y="40" on="1"/>
        <pt x="140" y="444" on="1"/>
        <pt x="140" y="453" on="0"/>
        <pt x="131" y="462" on="0"/>
        <pt x="124" y="458" on="1"/>
        <pt x="69" y="431" on="1"/>
      </contour>
    </TTGlyph>
    <TTGlyph name="onehalf" xMin="40" yMin="-70" xMax="580" yMax="683">
      <contour>
        <pt x="73" y="-70" on="1"/>
        <pt x="40" y="-47" on="1"/>
        <pt x="505" y="605" on="1"/>
        <pt x="539" y="585" on="1"/>
      </contour>
      <contour>
        <pt x="54" y="629" on="1"/>
        <pt x="99" y="641" on="0"/>
        <pt x="141" y="683" on="1"/>
        <pt x="166" y="683" on="1"/>
        <pt x="166" y="439" on="1"/>
        <pt x="166" y="432" on="0"/>
        <pt x="175" y="420" on="0"/>
        <pt x="181" y="421" on="1"/>
        <pt x="210" y="422" on="1"/>
        <pt x="210" y="404" on="1"/>
        <pt x="54" y="404" on="1"/>
        <pt x="54" y="422" on="1"/>
        <pt x="95" y="421" on="1"/>
        <pt x="107" y="421" on="0"/>
        <pt x="107" y="439" on="1"/>
        <pt x="107" y="604" on="1"/>
        <pt x="107" y="621" on="0"/>
        <pt x="90" y="615" on="1"/>
        <pt x="60" y="604" on="1"/>
      </contour>
      <contour>
        <pt x="464" y="202" on="0"/>
        <pt x="445" y="187" on="0"/>
        <pt x="445" y="168" on="0"/>
        <pt x="451" y="154" on="1"/>
        <pt x="451" y="144" on="0"/>
        <pt x="431" y="131" on="0"/>
        <pt x="406" y="131" on="0"/>
        <pt x="386" y="147" on="0"/>
        <pt x="386" y="183" on="0"/>
        <pt x="435" y="219" on="0"/>
        <pt x="523" y="219" on="0"/>
        <pt x="576" y="182" on="0"/>
        <pt x="576" y="103" on="0"/>
        <pt x="524" y="60" on="1"/>
        <pt x="480" y="23" on="1"/>
        <pt x="456" y="4" on="0"/>
        <pt x="438" y="-22" on="1"/>
        <pt x="511" y="-22" on="1"/>
        <pt x="547" y="-22" on="0"/>
        <pt x="547" y="16" on="1"/>
        <pt x="580" y="16" on="1"/>
        <pt x="577" y="-23" on="0"/>
        <pt x="577" y="-53" on="1"/>
        <pt x="577" y="-62" on="1"/>
        <pt x="561" y="-60" on="0"/>
        <pt x="554" y="-60" on="1"/>
        <pt x="380" y="-60" on="1"/>
        <pt x="389" y="-12" on="0"/>
        <pt x="453" y="47" on="1"/>
        <pt x="476" y="68" on="0"/>
        <pt x="513" y="122" on="0"/>
        <pt x="513" y="172" on="0"/>
        <pt x="492" y="202" on="0"/>
      </contour>
    </TTGlyph>
    <TTGlyph name="onequarter" xMin="40" yMin="-70" xMax="577" yMax="683">
      <contour>
        <pt x="73" y="-70" on="1"/>
        <pt x="40" y="-47" on="1"/>
        <pt x="505" y="605" on="1"/>
        <pt x="539" y="585" on="1"/>
      </contour>
      <contour>
        <pt x="54" y="629" on="1"/>
        <pt x="99" y="641" on="0"/>
        <pt x="141" y="683" on="1"/>
        <pt x="166" y="683" on="1"/>
        <pt x="166" y="439" on="1"/>
        <pt x="166" y="432" on="0"/>
        <pt x="175" y="420" on="0"/>
        <pt x="181" y="421" on="1"/>
        <pt x="210" y="422" on="1"/>
        <pt x="210" y="404" on="1"/>
        <pt x="54" y="404" on="1"/>
        <pt x="54" y="422" on="1"/>
        <pt x="95" y="421" on="1"/>
        <pt x="107" y="421" on="0"/>
        <pt x="107" y="439" on="1"/>
        <pt x="107" y="604" on="1"/>
        <pt x="107" y="621" on="0"/>
        <pt x="90" y="615" on="1"/>
        <pt x="60" y="604" on="1"/>
      </contour>
      <contour>
        <pt x="485" y="9" on="1"/>
        <pt x="367" y="9" on="1"/>
        <pt x="367" y="40" on="1"/>
        <pt x="369" y="44" on="0"/>
        <pt x="390" y="68" on="1"/>
        <pt x="512" y="219" on="1"/>
        <pt x="544" y="219" on="1"/>
        <pt x="544" y="47" on="1"/>
        <pt x="577" y="47" on="1"/>
        <pt x="577" y="8" on="1"/>
        <pt x="544" y="8" on="1"/>
        <pt x="544" y="-25" on="1"/>
        <pt x="544" y="-43" on="0"/>
        <pt x="559" y="-43" on="1"/>
        <pt x="577" y="-42" on="1"/>
        <pt x="577" y="-60" on="1"/>
        <pt x="432" y="-60" on="1"/>
        <pt x="432" y="-42" on="1"/>
        <pt x="473" y="-43" on="1"/>
        <pt x="485" y="-43" on="0"/>
        <pt x="485" y="-25" on="1"/>
      </contour>
      <contour>
        <pt x="484" y="146" on="1"/>
        <pt x="403" y="47" on="1"/>
        <pt x="484" y="47" on="1"/>
      </contour>
    </TTGlyph>
    <TTGlyph name="ordfeminine" xMin="0" yMin="342" xMax="262" yMax="615">
      <contour>
        <pt x="0" y="411" on="1"/>
        <pt x="0" y="459" on="0"/>
        <pt x="80" y="505" on="0"/>
        <pt x="166" y="505" on="1"/>
        <pt x="166" y="542" on="1"/>
        <pt x="166" y="592" on="0"/>
        <pt x="114" y="592" on="1"/>
        <pt x="86" y="592" on="0"/>
        <pt x="73" y="580" on="0"/>
        <pt x="73" y="558" on="1"/>
        <pt x="73" y="529" on="0"/>
        <pt x="11" y="529" on="0"/>
        <pt x="11" y="561" on="1"/>
        <pt x="11" y="615" on="0"/>
        <pt x="114" y="615" on="1"/>
        <pt x="172" y="615" on="0"/>
        <pt x="226" y="573" on="0"/>
        <pt x="226" y="527" on="1"/>
        <pt x="226" y="380" on="1"/>
        <pt x="226" y="373" on="0"/>
        <pt x="232" y="373" on="1"/>
        <pt x="262" y="374" on="1"/>
        <pt x="262" y="350" on="1"/>
        <pt x="167" y="350" on="1"/>
        <pt x="170" y="397" on="1"/>
        <pt x="148" y="342" on="0"/>
        <pt x="84" y="342" on="1"/>
        <pt x="0" y="342" on="0"/>
      </contour>
      <contour>
        <pt x="63" y="416" on="1"/>
        <pt x="63" y="373" on="0"/>
        <pt x="101" y="373" on="1"/>
        <pt x="127" y="373" on="0"/>
        <pt x="166" y="422" on="0"/>
        <pt x="166" y="457" on="1"/>
        <pt x="166" y="482" on="1"/>
        <pt x="63" y="482" on="0"/>
      </contour>
    </TTGlyph>
    <TTGlyph name="ordmasculine" xMin="44" yMin="344" xMax="307" yMax="618">
      <contour>
        <pt x="111" y="344" on="0"/>
        <pt x="44" y="420" on="0"/>
        <pt x="44" y="545" on="0"/>
        <pt x="114" y="618" on="0"/>
        <pt x="236" y="618" on="0"/>
        <pt x="307" y="546" on="0"/>
        <pt x="307" y="416" on="0"/>
        <pt x="238" y="344" on="0"/>
      </contour>
      <contour>
        <pt x="115" y="543" on="0"/>
        <pt x="115" y="417" on="0"/>
        <pt x="138" y="368" on="0"/>
        <pt x="209" y="368" on="0"/>
        <pt x="236" y="413" on="0"/>
        <pt x="236" y="545" on="0"/>
        <pt x="210" y="594" on="0"/>
        <pt x="140" y="594" on="0"/>
      </contour>
    </TTGlyph>
    <TTGlyph name="oslash" xMin="35" yMin="-85" xMax="437" yMax="504">
      <contour>
        <pt x="35" y="211" on="1"/>
        <pt x="35" y="313" on="0"/>
        <pt x="137" y="430" on="0"/>
        <pt x="236" y="430" on="1"/>
        <pt x="290" y="430" on="0"/>
        <pt x="335" y="409" on="1"/>
        <pt x="388" y="504" on="1"/>
        <pt x="422" y="483" on="1"/>
        <pt x="369" y="387" on="1"/>
        <pt x="437" y="328" on="0"/>
        <pt x="437" y="107" on="0"/>
        <pt x="335" y="-10" on="0"/>
        <pt x="236" y="-10" on="1"/>
        <pt x="191" y="-10" on="0"/>
        <pt x="155" y="3" on="1"/>
        <pt x="106" y="-85" on="1"/>
        <pt x="68" y="-68" on="1"/>
        <pt x="118" y="21" on="1"/>
        <pt x="35" y="76" on="0"/>
      </contour>
      <contour>
        <pt x="177" y="403" on="0"/>
        <pt x="126" y="311" on="0"/>
        <pt x="126" y="120" on="0"/>
        <pt x="146" y="72" on="1"/>
        <pt x="312" y="369" on="1"/>
        <pt x="287" y="403" on="0"/>
      </contour>
      <contour>
        <pt x="334" y="324" on="1"/>
        <pt x="173" y="36" on="1"/>
        <pt x="195" y="17" on="0"/>
        <pt x="236" y="17" on="1"/>
        <pt x="295" y="17" on="0"/>
        <pt x="346" y="108" on="0"/>
        <pt x="346" y="280" on="0"/>
      </contour>
    </TTGlyph>
    <TTGlyph name="otilde" xMin="35" yMin="-10" xMax="437" yMax="616">
      <contour>
        <pt x="137" y="-10" on="0"/>
        <pt x="35" y="107" on="0"/>
        <pt x="35" y="313" on="0"/>
        <pt x="137" y="430" on="0"/>
        <pt x="335" y="430" on="0"/>
        <pt x="437" y="313" on="0"/>
        <pt x="437" y="107" on="0"/>
        <pt x="335" y="-10" on="0"/>
      </contour>
      <contour>
        <pt x="177" y="403" on="0"/>
        <pt x="126" y="311" on="0"/>
        <pt x="126" y="108" on="0"/>
        <pt x="177" y="17" on="0"/>
        <pt x="295" y="17" on="0"/>
        <pt x="346" y="108" on="0"/>
        <pt x="346" y="311" on="0"/>
        <pt x="295" y="403" on="0"/>
      </contour>
      <contour>
        <pt x="113" y="525" on="1"/>
        <pt x="93" y="525" on="1"/>
        <pt x="93" y="562" on="0"/>
        <pt x="130" y="616" on="0"/>
        <pt x="179" y="616" on="0"/>
        <pt x="307" y="573" on="0"/>
        <pt x="340" y="573" on="0"/>
        <pt x="359" y="597" on="0"/>
        <pt x="359" y="615" on="1"/>
        <pt x="379" y="615" on="1"/>
        <pt x="379" y="578" on="0"/>
        <pt x="342" y="524" on="0"/>
        <pt x="292" y="524" on="0"/>
        <pt x="166" y="567" on="0"/>
        <pt x="132" y="567" on="0"/>
        <pt x="113" y="543" on="0"/>
      </contour>
    </TTGlyph>
    <TTGlyph name="overscore" xMin="104" yMin="567" xMax="343" yMax="607">
      <contour>
        <pt x="343" y="567" on="1"/>
        <pt x="104" y="567" on="1"/>
        <pt x="104" y="607" on="1"/>
        <pt x="343" y="607" on="1"/>
      </contour>
    </TTGlyph>
    <TTGlyph name="p" xMin="20" yMin="-239" xMax="459" yMax="430">
      <contour>
        <pt x="56" y="396" on="1"/>
        <pt x="20" y="394" on="1"/>
        <pt x="20" y="420" on="1"/>
        <pt x="159" y="420" on="1"/>
        <pt x="155" y="395" on="0"/>
        <pt x="155" y="369" on="1"/>
        <pt x="155" y="340" on="1"/>
        <pt x="186" y="430" on="0"/>
        <pt x="287" y="430" on="1"/>
        <pt x="459" y="430" on="0"/>
        <pt x="459" y="209" on="1"/>
        <pt x="459" y="99" on="0"/>
        <pt x="366" y="-10" on="0"/>
        <pt x="184" y="-10" on="0"/>
        <pt x="155" y="43" on="1"/>
        <pt x="155" y="-195" on="1"/>
        <pt x="155" y="-215" on="0"/>
        <pt x="168" y="-215" on="1"/>
        <pt x="230" y="-213" on="1"/>
        <pt x="230" y="-239" on="1"/>
        <pt x="24" y="-239" on="1"/>
        <pt x="24" y="-213" on="1"/>
        <pt x="56" y="-215" on="1"/>
        <pt x="69" y="-214" on="0"/>
        <pt x="69" y="-195" on="1"/>
        <pt x="69" y="376" on="1"/>
        <pt x="69" y="396" on="0"/>
      </contour>
      <contour>
        <pt x="157" y="226" on="1"/>
        <pt x="157" y="184" on="1"/>
        <pt x="157" y="17" on="0"/>
        <pt x="269" y="17" on="1"/>
        <pt x="326" y="17" on="0"/>
        <pt x="368" y="99" on="0"/>
        <pt x="368" y="320" on="0"/>
        <pt x="330" y="403" on="0"/>
        <pt x="220" y="403" on="0"/>
        <pt x="157" y="306" on="0"/>
      </contour>
    </TTGlyph>
    <TTGlyph name="paragraph" xMin="30" yMin="-269" xMax="478" yMax="597">
      <contour>
        <pt x="134" y="288" on="0"/>
        <pt x="30" y="368" on="0"/>
        <pt x="30" y="514" on="0"/>
        <pt x="135" y="597" on="0"/>
        <pt x="228" y="597" on="1"/>
        <pt x="478" y="597" on="1"/>
        <pt x="478" y="566" on="1"/>
        <pt x="377" y="566" on="1"/>
        <pt x="377" y="-269" on="1"/>
        <pt x="342" y="-269" on="1"/>
        <pt x="342" y="566" on="1"/>
        <pt x="301" y="566" on="1"/>
        <pt x="263" y="566" on="0"/>
        <pt x="263" y="528" on="1"/>
        <pt x="263" y="-269" on="1"/>
        <pt x="228" y="-269" on="1"/>
        <pt x="228" y="288" on="1"/>
      </contour>
    </TTGlyph>
    <TTGlyph name="parenleft" xMin="18" yMin="-231" xMax="254" yMax="711">
      <contour>
        <pt x="18" y="-3" on="0"/>
        <pt x="18" y="483" on="0"/>
        <pt x="211" y="711" on="1"/>
        <pt x="254" y="711" on="1"/>
        <pt x="190" y="630" on="0"/>
        <pt x="112" y="350" on="0"/>
        <pt x="112" y="130" on="0"/>
        <pt x="190" y="-150" on="0"/>
        <pt x="254" y="-231" on="1"/>
        <pt x="211" y="-231" on="1"/>
      </contour>
    </TTGlyph>
    <TTGlyph name="parenright" xMin="0" yMin="-231" xMax="236" yMax="711">
      <contour>
        <pt x="43" y="-231" on="1"/>
        <pt x="0" y="-231" on="1"/>
        <pt x="64" y="-150" on="0"/>
        <pt x="142" y="130" on="0"/>
        <pt x="142" y="350" on="0"/>
        <pt x="64" y="630" on="0"/>
        <pt x="0" y="711" on="1"/>
        <pt x="43" y="711" on="1"/>
        <pt x="236" y="483" on="0"/>
        <pt x="236" y="-3" on="0"/>
      </contour>
    </TTGlyph>
    <TTGlyph name="percent" xMin="0" yMin="-77" xMax="548" yMax="680">
      <contour>
        <pt x="36" y="-77" on="1"/>
        <pt x="0" y="-52" on="1"/>
        <pt x="511" y="666" on="1"/>
        <pt x="548" y="644" on="1"/>
      </contour>
      <contour>
        <pt x="95" y="396" on="0"/>
        <pt x="30" y="470" on="0"/>
        <pt x="30" y="607" on="0"/>
        <pt x="97" y="680" on="0"/>
        <pt x="208" y="680" on="0"/>
        <pt x="275" y="606" on="0"/>
        <pt x="275" y="469" on="0"/>
        <pt x="208" y="396" on="0"/>
      </contour>
      <contour>
        <pt x="94" y="662" on="0"/>
        <pt x="94" y="415" on="0"/>
        <pt x="211" y="415" on="0"/>
        <pt x="211" y="662" on="0"/>
      </contour>
      <contour>
        <pt x="365" y="-68" on="0"/>
        <pt x="300" y="6" on="0"/>
        <pt x="300" y="143" on="0"/>
        <pt x="367" y="216" on="0"/>
        <pt x="478" y="216" on="0"/>
        <pt x="545" y="142" on="0"/>
        <pt x="545" y="5" on="0"/>
        <pt x="478" y="-68" on="0"/>
      </contour>
      <contour>
        <pt x="364" y="198" on="0"/>
        <pt x="364" y="-49" on="0"/>
        <pt x="481" y="-49" on="0"/>
        <pt x="481" y="198" on="0"/>
      </contour>
    </TTGlyph>
    <TTGlyph name="period" xMin="60" yMin="-10" xMax="190" yMax="105">
      <contour>
        <pt x="60" y="21" on="0"/>
        <pt x="60" y="73" on="0"/>
        <pt x="97" y="105" on="0"/>
        <pt x="153" y="105" on="0"/>
        <pt x="190" y="73" on="0"/>
        <pt x="190" y="21" on="0"/>
        <pt x="153" y="-10" on="0"/>
        <pt x="97" y="-10" on="0"/>
      </contour>
    </TTGlyph>
    <TTGlyph name="perthousand" xMin="0" yMin="-70" xMax="815" yMax="680">
      <contour>
        <pt x="33" y="-70" on="1"/>
        <pt x="0" y="-47" on="1"/>
        <pt x="465" y="605" on="1"/>
        <pt x="499" y="585" on="1"/>
      </contour>
      <contour>
        <pt x="95" y="396" on="0"/>
        <pt x="30" y="470" on="0"/>
        <pt x="30" y="607" on="0"/>
        <pt x="97" y="680" on="0"/>
        <pt x="208" y="680" on="0"/>
        <pt x="275" y="606" on="0"/>
        <pt x="275" y="469" on="0"/>
        <pt x="208" y="396" on="0"/>
      </contour>
      <contour>
        <pt x="94" y="662" on="0"/>
        <pt x="94" y="415" on="0"/>
        <pt x="211" y="415" on="0"/>
        <pt x="211" y="662" on="0"/>
      </contour>
      <contour>
        <pt x="350" y="-68" on="0"/>
        <pt x="285" y="6" on="0"/>
        <pt x="285" y="143" on="0"/>
        <pt x="352" y="216" on="0"/>
        <pt x="463" y="216" on="0"/>
        <pt x="530" y="142" on="0"/>
        <pt x="530" y="5" on="0"/>
        <pt x="463" y="-68" on="0"/>
      </contour>
      <contour>
        <pt x="349" y="198" on="0"/>
        <pt x="349" y="-49" on="0"/>
        <pt x="466" y="-49" on="0"/>
        <pt x="466" y="198" on="0"/>
      </contour>
      <contour>
        <pt x="635" y="-68" on="0"/>
        <pt x="570" y="6" on="0"/>
        <pt x="570" y="143" on="0"/>
        <pt x="637" y="216" on="0"/>
        <pt x="748" y="216" on="0"/>
        <pt x="815" y="142" on="0"/>
        <pt x="815" y="5" on="0"/>
        <pt x="748" y="-68" on="0"/>
      </contour>
      <contour>
        <pt x="634" y="198" on="0"/>
        <pt x="634" y="-49" on="0"/>
        <pt x="751" y="-49" on="0"/>
        <pt x="751" y="198" on="0"/>
      </contour>
    </TTGlyph>
    <TTGlyph name="plus" xMin="20" yMin="73" xMax="440" yMax="488">
      <contour>
        <pt x="206" y="259" on="1"/>
        <pt x="20" y="259" on="1"/>
        <pt x="20" y="303" on="1"/>
        <pt x="206" y="303" on="1"/>
        <pt x="206" y="488" on="1"/>
        <pt x="255" y="488" on="1"/>
        <pt x="255" y="303" on="1"/>
        <pt x="440" y="303" on="1"/>
        <pt x="440" y="259" on="1"/>
        <pt x="255" y="259" on="1"/>
        <pt x="255" y="73" on="1"/>
        <pt x="206" y="73" on="1"/>
      </contour>
    </TTGlyph>
    <TTGlyph name="plusminus" xMin="20" yMin="0" xMax="440" yMax="506">
      <contour>
        <pt x="440" y="0" on="1"/>
        <pt x="20" y="0" on="1"/>
        <pt x="20" y="41" on="1"/>
        <pt x="440" y="41" on="1"/>
      </contour>
      <contour>
        <pt x="207" y="274" on="1"/>
        <pt x="20" y="274" on="1"/>
        <pt x="20" y="315" on="1"/>
        <pt x="207" y="315" on="1"/>
        <pt x="207" y="506" on="1"/>
        <pt x="252" y="506" on="1"/>
        <pt x="252" y="315" on="1"/>
        <pt x="440" y="315" on="1"/>
        <pt x="440" y="274" on="1"/>
        <pt x="252" y="274" on="1"/>
        <pt x="252" y="80" on="1"/>
        <pt x="207" y="80" on="1"/>
      </contour>
    </TTGlyph>
</ttFont>
